<svg xmlns="http://www.w3.org/2000/svg" viewBox="0 0 64 64"><circle fill="#FFF" cx="31.4" cy="32.3" r="24.6"/><path fill="#D33D34" d="M41.4 34.9c0-1.2-1-2.2-2.2-2.2s-2.2 1-2.2 2.2 1 2.2 2.2 2.2 2.2-.9 2.2-2.2m5.8 15.6h-5.3l-1.2-9h-3.1l-1.2 9H31l5-37.1h6.2l5 37.1zM29.9 25.7h-5.1v-5.6-.6c0-.2-.1-.5-.2-.6-.1-.2-.3-.4-.5-.5s-.5-.2-.9-.2-.6 0-.8.2c-.2.1-.4.3-.5.5s-.2.4-.2.6V44.4c0 .3.1.7.2 1 .1.3.6.5 1.2.5.5 0 .9-.2 1.2-.4.3-.2.5-.6.5-1v-7H23V33h6.9v11.2c0 2.2-.6 3.8-1.8 4.9-1.1 1.1-2.8 1.7-4.9 1.7-2.4 0-4.1-.5-5.1-1.7-1.1-1.1-1.6-2.8-1.6-5v-24c0-2.1.6-3.8 1.8-5s2.9-1.9 5.1-1.9 3.9.6 5 1.9 1.8 2.9 1.8 5l-.3 5.6zm34.1 4c-.1-1.3-.2-2.5-.5-3.8-1.2.4-2.5-.4-2.8-1.6-.3-1.2.4-2.5 1.6-2.8-.4-1.2-.9-2.4-1.5-3.5-1.1.6-2.5.2-3.2-.9s-.2-2.5.8-3.1c-.6-1-1.4-2-2.2-3-.9.9-2.3.9-3.2 0s-.9-2.4 0-3.2c-1-.8-2-1.6-3-2.3-.7 1.1-2 1.4-3.2.8-1.1-.7-1.5-2-.8-3.2-1.2-.5-2.3-1-3.5-1.5-.3 1.2-1.6 2-2.8 1.6C38.5 3 37.8 1.7 38 .5 36.8.3 35.5.1 34.2 0c0 1.2-1 2.3-2.3 2.3s-2.3-1-2.3-2.3c-1.3.1-2.5.2-3.8.5.4 1.2-.4 2.5-1.6 2.8-1.2.3-2.5-.4-2.8-1.6-1.2.4-2.4.9-3.5 1.5.6 1.1.2 2.5-.9 3.2s-2.4.2-3-.9c-1.1.7-2.1 1.5-3 2.3.9.9.9 2.4 0 3.2s-2.4.9-3.2 0c-.8.9-1.6 1.9-2.3 3 1.1.6 1.4 2 .8 3.1-.7 1.1-2 1.5-3.2.9-.5 1.1-1 2.3-1.5 3.5 1.2.4 2 1.6 1.6 2.8-.3 1.2-1.6 2-2.8 1.7-.2 1.2-.4 2.5-.5 3.8 1.2 0 2.3 1 2.3 2.3s-1 2.3-2.3 2.3c.1 1.3.2 2.5.5 3.8 1.2-.3 2.5.4 2.8 1.6.3 1.2-.4 2.5-1.6 2.8.4 1.2.9 2.4 1.5 3.5 1.1-.7 2.5-.2 3.2.8s.2 2.5-.8 3.2c.7 1 1.5 2 2.3 3 .9-.9 2.4-.9 3.2 0s.9 2.3 0 3.2c.9.8 1.9 1.6 3 2.3.6-1.1 2-1.5 3.1-.8s1.5 2 .9 3.2c1.1.5 2.3 1 3.5 1.5.4-1.2 1.6-2 2.8-1.6 1.2.3 2 1.6 1.6 2.8 1.2.2 2.5.4 3.8.5 0-1.2 1-2.3 2.3-2.3 1.3 0 2.3 1 2.3 2.3 1.3-.1 2.5-.2 3.8-.5-.3-1.2.4-2.5 1.6-2.8 1.2-.3 2.5.4 2.8 1.6 1.2-.4 2.4-.9 3.5-1.5-.7-1.1-.2-2.5.8-3.2s2.5-.2 3.2.8c1-.7 2-1.5 3-2.3-.9-.9-.9-2.3 0-3.2s2.3-.9 3.2 0c.8-1 1.6-2 2.3-3-1.1-.7-1.5-2-.8-3.2.7-1.1 2-1.5 3.2-.8.5-1.2 1-2.3 1.5-3.5-1.2-.3-2-1.6-1.6-2.8.3-1.2 1.6-2 2.8-1.6.2-1.2.4-2.5.5-3.8-1.2 0-2.3-1-2.3-2.3-.1-1.3 1-2.4 2.2-2.4"/></svg>