<?xml version="1.0" standalone="no"?>
<!DOCTYPE svg PUBLIC "-//W3C//DTD SVG 20010904//EN"
 "http://www.w3.org/TR/2001/REC-SVG-20010904/DTD/svg10.dtd">
<svg version="1.0" xmlns="http://www.w3.org/2000/svg"
 width="251.000000pt" height="251.000000pt" viewBox="0 0 251.000000 251.000000"
 preserveAspectRatio="xMidYMid meet">
<metadata>
Created by potrace 1.11, written by Peter Selinger 2001-2013
</metadata>
<g transform="translate(0.000000,251.000000) scale(0.100000,-0.100000)"
fill="#000000" stroke="none">
<path d="M1090 2439 c-143 -22 -171 -28 -272 -64 -365 -130 -647 -414 -762
-768 -72 -221 -70 -498 5 -711 60 -171 150 -316 273 -441 76 -76 195 -175 212
-175 4 0 15 -7 24 -15 28 -25 192 -102 275 -129 136 -44 223 -58 380 -62 373
-9 684 113 940 370 165 166 256 325 316 551 29 109 35 333 13 460 -73 414
-379 770 -793 919 -64 23 -99 33 -186 52 -104 23 -317 30 -425 13z"/>
</g>
</svg>
