<?xml version="1.0" standalone="no"?>
<!DOCTYPE svg PUBLIC "-//W3C//DTD SVG 20010904//EN"
 "http://www.w3.org/TR/2001/REC-SVG-20010904/DTD/svg10.dtd">
<svg version="1.0" xmlns="http://www.w3.org/2000/svg"
 width="260.000000pt" height="260.000000pt" viewBox="0 0 260.000000 260.000000"
 preserveAspectRatio="xMidYMid meet">
<metadata>
Created by potrace 1.11, written by Peter Selinger 2001-2013
</metadata>
<g transform="translate(0.000000,260.000000) scale(0.100000,-0.100000)"
fill="#000000" stroke="none">
<path d="M1220 2507 c-3 -2 -32 -7 -65 -10 -67 -6 -101 -13 -160 -29 -22 -6
-48 -13 -57 -15 -68 -12 -247 -98 -347 -165 -195 -132 -331 -289 -427 -492
-84 -178 -121 -362 -110 -546 7 -133 13 -166 42 -270 73 -254 238 -483 470
-653 29 -20 56 -37 62 -37 6 0 12 -3 14 -8 8 -18 232 -121 298 -137 14 -3 66
-15 115 -26 124 -29 400 -32 525 -5 215 46 425 143 576 268 223 183 397 484
432 748 13 100 6 319 -13 405 -20 92 -57 199 -91 267 -14 27 -24 50 -24 53 1
3 -27 47 -62 97 -198 289 -512 485 -868 542 -51 8 -304 19 -310 13z"/>
</g>
</svg>
