<?xml version="1.0" standalone="no"?>
<!DOCTYPE svg PUBLIC "-//W3C//DTD SVG 20010904//EN"
 "http://www.w3.org/TR/2001/REC-SVG-20010904/DTD/svg10.dtd">
<svg version="1.0" xmlns="http://www.w3.org/2000/svg"
 width="260.000000pt" height="260.000000pt" viewBox="0 0 260.000000 260.000000"
 preserveAspectRatio="xMidYMid meet">
<metadata>
Created by potrace 1.11, written by Peter Selinger 2001-2013
</metadata>
<g transform="translate(0.000000,260.000000) scale(0.100000,-0.100000)"
fill="#000000" stroke="none">
<path d="M1140 2483 c-419 -62 -746 -275 -949 -621 -53 -91 -110 -240 -126
-334 -3 -16 -8 -43 -11 -60 -12 -67 -11 -248 2 -334 61 -411 349 -768 749
-929 79 -31 208 -69 276 -81 80 -13 336 -12 428 2 303 47 596 214 784 447 116
144 192 297 232 471 24 105 28 137 27 266 -1 262 -88 505 -254 714 -52 66
-188 190 -263 240 -152 102 -346 184 -480 202 -22 3 -58 10 -79 14 -38 8 -285
10 -336 3z"/>
</g>
</svg>
