<?xml version="1.0" encoding="UTF-8"?>
<svg width="751px" height="228px" viewBox="0 0 751 228" version="1.1" xmlns="http://www.w3.org/2000/svg" xmlns:xlink="http://www.w3.org/1999/xlink">
    <!-- Generator: Sketch 44.1 (41455) - http://www.bohemiancoding.com/sketch -->
    <title>Group 5</title>
    <desc>Created with Sketch.</desc>
    <defs>
        <rect id="path-1" x="389" y="91" width="174" height="98"></rect>
        <polygon id="path-2" points="101.334404 138.883676 7 138.883676 7 85 101.334404 85 101.334404 138.883676"></polygon>
        <polygon id="path-4" points="57.321 0.09600705 0.904197257 0.09600705 0.904197257 107.972093 57.321 107.972093"></polygon>
    </defs>
    <g id="Welcome" stroke="none" stroke-width="1" fill="none" fill-rule="evenodd">
        <g id="Complete-Digital-Marketing-UI" transform="translate(-425.000000, -167.000000)">
            <g id="Group-7" transform="translate(-114.000000, 107.000000)">
                <g id="Group-3" transform="translate(114.000000, 8.000000)">
                    <g id="Group-5" transform="translate(425.000000, 44.000000)">
                        <g id="Group-2">
                            <polygon id="Fill-3" fill="#0190A9" points="22.5226415 58 11 85.3534459 22.5226415 85.3534459"></polygon>
                            <path d="M339.246038,145 C339.885925,145.005858 340.53283,145.011715 341.187925,145.019916 L338.939547,171.210058 C338.287962,171.183113 337.639887,171.15734 337,171.139768 L339.246038,145 Z" id="Fill-33" fill="#8F8F8F"></path>
                            <path d="M320.835434,171.108137 C320.140566,171.12571 319.503019,171.140939 319,171.143282 L319,145.057404 C319,145.057404 319.660943,145.032802 320.835434,145 L320.835434,171.108137 Z" id="Fill-34" fill="#8F8F8F"></path>
                            <polygon id="Fill-39" fill="#5E5E5E" points="250 173.681931 327.93166 173.681931 327.93166 145 250 145"></polygon>
                            <polygon id="Fill-39-Copy" fill="#5E5E5E" points="351.285509 173.681931 429.21717 173.681931 429.21717 145 351.285509 145"></polygon>
                            <polygon id="Fill-40" fill="#707070" points="250 171.143282 327.93166 171.143282 327.93166 145 250 145"></polygon>
                            <polygon id="Fill-40-Copy" fill="#707070" points="351.285509 171.143282 429.21717 171.143282 429.21717 145 351.285509 145"></polygon>
                            <polygon id="Fill-41" fill="#8F8F8F" points="271 171.143282 273.632075 171.143282 273.632075 145 271 145"></polygon>
                            <polygon id="Fill-41-Copy" fill="#8F8F8F" points="372.285509 171.143282 374.917585 171.143282 374.917585 145 372.285509 145"></polygon>
                            <polygon id="Fill-42" fill="#8F8F8F" points="299 171.143282 301.630906 171.143282 301.630906 145 299 145"></polygon>
                            <polygon id="Fill-42-Copy" fill="#8F8F8F" points="400.285509 171.143282 402.916415 171.143282 402.916415 145 400.285509 145"></polygon>
                            <polygon id="Fill-43" fill="#8F8F8F" points="285 171.143282 287.630906 171.143282 287.630906 145 285 145"></polygon>
                            <polygon id="Fill-43-Copy" fill="#8F8F8F" points="386.285509 171.143282 388.916415 171.143282 388.916415 145 386.285509 145"></polygon>
                            <g id="Rectangle-4">
                                <use fill="#FFFFFF" fill-rule="evenodd" xlink:href="#path-1"></use>
                                <rect stroke="#979797" stroke-width="1" x="389.5" y="91.5" width="173" height="97"></rect>
                            </g>
                            <path d="M270.328038,144.197266 L7,144.197266 L7,89.1190079 C7,86.8439472 8.84245283,85 11.1142264,85 L266.214981,85 C268.487925,85 270.328038,86.8439472 270.328038,89.1190079 L270.328038,144.197266 Z" id="Fill-113" fill="#08577A"></path>
                            <path d="M266.213811,358.437942 L11.110717,358.437942 C8.84011321,358.437942 7,356.593995 7,354.318934 L7,144 L270.328038,144 L270.328038,354.318934 C270.328038,356.593995 268.485585,358.437942 266.213811,358.437942" id="Fill-114" fill="#C1CFD9"></path>
                            <polygon id="Fill-115" fill="#002C3F" points="17 349.21942 261.131434 349.21942 261.131434 154 17 154"></polygon>
                            <path d="M273.048,149.030417 L5.00562264,149.030417 C2.24135849,149.030417 0,146.785815 0,144.01638 C0,141.244602 2.24135849,139 5.00562264,139 L273.048,139 C275.812264,139 278.053623,141.244602 278.053623,144.01638 C278.053623,146.785815 275.812264,149.030417 273.048,149.030417" id="Fill-116" fill="#01BCDC"></path>
                            <path d="M252.296302,94.154153 C252.296302,96.4491293 250.438642,98.3083061 248.146981,98.3083061 C245.855321,98.3083061 244,96.4491293 244,94.154153 C244,91.8603483 245.855321,90 248.146981,90 C250.438642,90 252.296302,91.8603483 252.296302,94.154153" id="Fill-118" fill="#01BCDC"></path>
                            <path d="M265.296302,94.154153 C265.296302,96.4491293 263.438642,98.3083061 261.148151,98.3083061 C258.856491,98.3083061 257,96.4491293 257,94.154153 C257,91.8603483 258.856491,90 261.148151,90 C263.438642,90 265.296302,91.8603483 265.296302,94.154153" id="Fill-119" fill="#01BCDC"></path>
                            <path d="M263.964,111.901087 L245.369849,111.901087 C244.614151,111.901087 244,111.286047 244,110.528084 L244,104.373003 C244,103.61504 244.614151,103 245.369849,103 L263.964,103 C264.719698,103 265.335019,103.61504 265.335019,104.373003 L265.335019,110.528084 C265.335019,111.286047 264.719698,111.901087 263.964,111.901087" id="Fill-120" fill="#FFFFFF"></path>
                            <path d="M148.972679,116.511641 C148.972679,126.182406 141.144302,134.023282 131.48517,134.023282 C121.829547,134.023282 114,126.182406 114,116.511641 C114,106.840876 121.829547,99 131.48517,99 C141.144302,99 148.972679,106.840876 148.972679,116.511641" id="Fill-121" fill="#01BCDC"></path>
                            <path d="M131.373283,130.785266 C123.998792,130.785266 118,124.777794 118,117.392633 C118,110.008644 123.998792,104 131.373283,104 C138.747774,104 144.747736,110.008644 144.747736,117.392633 C144.747736,124.777794 138.747774,130.785266 131.373283,130.785266" id="Fill-122" fill="#FFFFFF"></path>
                            <path d="M131.533135,124.843641 C129.436833,124.843641 127.517173,124.050533 126.067777,122.741963 C125.837324,122.533435 125.546041,122.408084 125.236041,122.408084 L125.231362,122.408084 C124.097814,122.408084 123.580758,123.808032 124.424192,124.569509 C126.311097,126.274047 128.806305,127.312 131.533135,127.312 C134.268154,127.312 136.764531,126.274047 138.652607,124.569509 C139.497211,123.808032 138.980154,122.408084 137.845437,122.408084 L137.838418,122.408084 C137.529588,122.408084 137.239475,122.532264 137.011362,122.73962 C135.551437,124.050533 133.630607,124.843641 131.533135,124.843641 M131.533135,108.457815 C133.641135,108.457815 135.561965,109.260296 137.01955,110.57238 C137.251173,110.779736 137.541286,110.905087 137.848946,110.905087 C138.984833,110.905087 139.50189,109.50514 138.657286,108.742491 C136.77155,107.037953 134.268154,106 131.533135,106 C128.798116,106 126.299399,107.037953 124.417173,108.743662 C123.574909,109.506311 124.090795,110.905087 125.225512,110.905087 C125.535512,110.905087 125.826795,110.778565 126.057248,110.570037 C127.508984,109.259124 129.436833,108.457815 131.533135,108.457815" id="Fill-123" fill="#83BBDB"></path>
                            <path d="M130.846067,113.064323 C129.269162,113.340798 127.962482,114.598993 127.612709,116.162951 C127.413841,117.048608 127.514445,117.893262 127.820935,118.63131 L125.056671,123.113484 C124.854294,123.441505 125.234482,123.818729 125.55852,123.612544 L129.972218,120.818507 C130.709199,121.135985 131.553803,121.247278 132.44286,121.061009 C134.013916,120.731816 135.289011,119.431447 135.579124,117.851088 C136.10086,115.010191 133.67935,112.568777 130.846067,113.064323" id="Fill-124" fill="#01BCDC"></path>
                            <path d="M127.175434,93.0915989 C127.175434,94.7996517 125.792717,96.1831979 124.088302,96.1831979 C122.382717,96.1831979 121,94.7996517 121,93.0915989 C121,91.3835462 122.382717,90 124.088302,90 C125.792717,90 127.175434,91.3835462 127.175434,93.0915989" id="Fill-125" fill="#F6763D"></path>
                            <path d="M135.175434,93.0915989 C135.175434,94.7996517 133.791547,96.1831979 132.088302,96.1831979 C130.381547,96.1831979 129,94.7996517 129,93.0915989 C129,91.3835462 130.381547,90 132.088302,90 C133.791547,90 135.175434,91.3835462 135.175434,93.0915989" id="Fill-126" fill="#FECC19"></path>
                            <path d="M143.174264,93.0915989 C143.174264,94.7996517 141.791547,96.1831979 140.087132,96.1831979 C138.382717,96.1831979 137,94.7996517 137,93.0915989 C137,91.3835462 138.382717,90 140.087132,90 C141.791547,90 143.174264,91.3835462 143.174264,93.0915989" id="Fill-127" fill="#7CC143"></path>
                            <path d="M260.446642,60 L137.054943,60 L136.561283,60 C133.490528,60 131,62.4941319 131,65.5693298 L131,85.461467 L137.054943,85.461467 L137.054943,65.5693298 L260.446642,65.5693298 L260.446642,85.461467 L266.500415,85.461467 L266.500415,65.5693298 C266.500415,62.4941319 264.009887,60 260.939132,60 L260.446642,60 Z" id="Fill-128" fill="#01BCDC"></path>
                            <path d="M235.360189,115 L160.432604,115 C157.433208,115 155,117.435557 155,120.440464 C155,123.445372 157.433208,125.880929 160.432604,125.880929 L235.360189,125.880929 C238.359585,125.880929 240.792792,123.445372 240.792792,120.440464 C240.792792,117.435557 238.359585,115 235.360189,115" id="Fill-129" fill="#9BAFBF"></path>
                            <path d="M171.015878,49.0859208 L171.015878,37.6696148 L173.346143,37.6696148 C174.635275,37.6696148 175.678746,36.6246332 175.678746,35.3348074 C175.678746,34.0449815 174.635275,33 173.346143,33 L164.538633,33 L155.729954,33 C154.441992,33 153.39735,34.0449815 153.39735,35.3348074 C153.39735,36.6246332 154.441992,37.6696148 155.729954,37.6696148 L158.061388,37.6696148 L158.061388,49.0859208 L144.759463,75.1647704 C142.429199,79.7312929 145.743275,85.1506702 150.862369,85.1506702 L164.538633,85.1506702 L178.214897,85.1506702 C183.335161,85.1506702 186.645727,79.7312929 184.317803,75.1647704 L171.015878,49.0859208 Z" id="Fill-130" fill="#F6BCA2"></path>
                            <path d="M177.165937,61 L151.90971,61 L144.758654,75.0193879 C142.430729,79.5859103 145.741295,85.0052876 150.861559,85.0052876 L178.214088,85.0052876 C183.334352,85.0052876 186.646088,79.5859103 184.316993,75.0193879 L177.165937,61 Z" id="Fill-131" fill="#F6763D"></path>
                            <path d="M176.379195,71.0877784 L167.151723,52.9974142 C166.686138,52.0836412 167.348251,51 168.373006,51 C168.887723,51 169.359157,51.2893615 169.594289,51.748591 L178.820591,69.8389551 C179.287346,70.7527282 178.624063,71.8363694 177.600478,71.8363694 C177.085761,71.8363694 176.613157,71.5470079 176.379195,71.0877784" id="Fill-132" fill="#FFFFFF"></path>
                            <path d="M166,48.0142797 L166,46.3730026 C166,45.6150396 166.612981,45 167.371019,45 C168.126717,45 168.742038,45.6150396 168.742038,46.3730026 L168.742038,48.0142797 C168.742038,48.7722427 168.126717,49.3872823 167.371019,49.3872823 C166.612981,49.3872823 166,48.7722427 166,48.0142797" id="Fill-133" fill="#FFFFFF"></path>
                            <path d="M174.114226,126.801805 L170,126.801805 L170,101.851113 C170,97.6875884 173.384264,94.3007704 177.541774,94.3007704 L186.722453,94.3007704 C188.612868,94.3007704 190.15,92.7602427 190.15,90.8682639 L190.15,84.5515145 C190.15,82.6595356 188.612868,81.1190079 186.722453,81.1190079 L181.205623,81.1190079 L181.205623,77 L186.722453,77 C190.879962,77 194.263057,80.3879894 194.263057,84.5515145 L194.263057,90.8682639 C194.263057,95.0317889 190.879962,98.4186069 186.722453,98.4186069 L177.541774,98.4186069 C175.650189,98.4186069 174.114226,99.9591346 174.114226,101.851113 L174.114226,126.801805 Z" id="Fill-134" fill="#F6763D"></path>
                            <path d="M225.061051,49.0859208 L225.061051,37.6696148 L222.729617,37.6696148 C221.441655,37.6696148 220.397013,36.6246332 220.397013,35.3348074 C220.397013,34.0449815 221.441655,33 222.729617,33 L231.538296,33 L240.345806,33 C241.634938,33 242.67841,34.0449815 242.67841,35.3348074 C242.67841,36.6246332 241.634938,37.6696148 240.345806,37.6696148 L238.015542,37.6696148 L238.015542,49.0859208 L251.317466,75.1647704 C253.64656,79.7312929 250.333655,85.1506702 245.213391,85.1506702 L231.538296,85.1506702 L217.862032,85.1506702 C212.741768,85.1506702 209.430032,79.7312929 211.759126,75.1647704 L225.061051,49.0859208 Z" id="Fill-135" fill="#FEE798"></path>
                            <path d="M218.910183,61 L244.16641,61 L251.317466,75.0193879 C253.645391,79.5859103 250.333655,85.0052876 245.213391,85.0052876 L217.862032,85.0052876 C212.741768,85.0052876 209.430032,79.5859103 211.759126,75.0193879 L218.910183,61 Z" id="Fill-136" fill="#FECC19"></path>
                            <path d="M243.380351,71.0877784 L234.15171,52.9974142 C233.686125,52.0836412 234.348238,51 235.374163,51 C235.88888,51 236.359144,51.2893615 236.594276,51.748591 L245.820578,69.8389551 C246.287333,70.7527282 245.624049,71.8363694 244.600465,71.8363694 C244.085748,71.8363694 243.613144,71.5470079 243.380351,71.0877784" id="Fill-137" fill="#FFFFFF"></path>
                            <path d="M233,48.0142797 L233,46.3730026 C233,45.6150396 233.612981,45 234.371019,45 C235.127887,45 235.743208,45.6150396 235.743208,46.3730026 L235.743208,48.0142797 C235.743208,48.7722427 235.127887,49.3872823 234.371019,49.3872823 C233.612981,49.3872823 233,48.7722427 233,48.0142797" id="Fill-138" fill="#FFFFFF"></path>
                            <path d="M223.14883,126.801805 L227.263057,126.801805 L227.263057,101.851113 C227.263057,97.6875884 223.879962,94.3007704 219.721283,94.3007704 L210.541774,94.3007704 C208.651358,94.3007704 207.114226,92.7602427 207.114226,90.8682639 L207.114226,84.5515145 C207.114226,82.6595356 208.651358,81.1190079 210.541774,81.1190079 L216.058604,81.1190079 L216.058604,77 L210.541774,77 C206.383094,77 203,80.3879894 203,84.5515145 L203,90.8682639 C203,95.0317889 206.383094,98.4186069 210.541774,98.4186069 L219.721283,98.4186069 C221.612868,98.4186069 223.14883,99.9591346 223.14883,101.851113 L223.14883,126.801805 Z" id="Fill-139" fill="#FECC19"></path>
                            <path d="M192.060578,24.0859208 L192.060578,12.6696148 L189.729144,12.6696148 C188.441182,12.6696148 187.39771,11.6246332 187.39771,10.3348074 C187.39771,9.04498153 188.441182,8 189.729144,8 L198.537823,8 L207.345333,8 C208.634465,8 209.679106,9.04498153 209.679106,10.3348074 C209.679106,11.6246332 208.634465,12.6696148 207.345333,12.6696148 L205.015069,12.6696148 L205.015069,24.0859208 L218.316993,50.1647704 C220.646088,54.7312929 217.333182,60.1506702 212.212918,60.1506702 L198.537823,60.1506702 L184.861559,60.1506702 C179.741295,60.1506702 176.430729,54.7312929 178.758654,50.1647704 L192.060578,24.0859208 Z" id="Fill-140" fill="#C4DEAF"></path>
                            <path d="M185.910183,36 L211.16641,36 L218.317466,50.0193879 C220.645391,54.5859103 217.334825,60.0052876 212.21456,60.0052876 L184.862032,60.0052876 C179.741768,60.0052876 176.430032,54.5859103 178.759126,50.0193879 L185.910183,36 Z" id="Fill-141" fill="#7CC143"></path>
                            <path d="M210.379879,46.0866069 L201.151237,27.9962427 C200.686822,27.0824697 201.347765,26 202.37369,26 C202.888407,26 203.359841,26.28819 203.593803,26.7474195 L212.821275,44.8377836 C213.28803,45.7515567 212.624747,46.8351979 211.601162,46.8351979 C211.086445,46.8351979 210.612671,46.5458364 210.379879,46.0866069" id="Fill-142" fill="#FFFFFF"></path>
                            <path d="M199,22.0142797 L199,20.3730026 C199,19.6150396 199.614151,19 200.372189,19 C201.127887,19 201.743208,19.6150396 201.743208,20.3730026 L201.743208,22.0142797 C201.743208,22.7722427 201.127887,23.3872823 200.372189,23.3872823 C199.614151,23.3872823 199,22.7722427 199,22.0142797" id="Fill-143" fill="#FFFFFF"></path>
                            <polygon id="Fill-144" fill="#7CC143" points="196 126.454955 200.113057 126.454955 200.113057 57 196 57"></polygon>
                            <path d="M101.696717,121.202153 L27.1118868,121.202153 C24.841283,121.202153 23,119.358206 23,117.083145 L23,58.1190079 C23,55.8439472 24.841283,54 27.1118868,54 L101.696717,54 C103.967321,54 105.809774,55.8439472 105.809774,58.1190079 L105.809774,117.083145 C105.809774,119.358206 103.967321,121.202153 101.696717,121.202153" id="Fill-145" fill="#01BCDC"></path>
                            <path d="M106.120075,117 C106.120075,119.277404 104.272943,121.126037 102,121.126037 L106.120075,117 Z" id="Fill-146" fill="#01BCDC"></path>
                            <polygon id="Fill-147" fill="#002C3F" points="301 328.816538 351.285509 328.816538 351.285509 106 301 106"></polygon>
                            <path d="M343.065887,329.244528 L310,329.244528 L310,159.555694 C310,150.413277 317.402566,143 326.532943,143 C335.664491,143 343.065887,150.413277 343.065887,159.555694 L343.065887,329.244528 Z" id="Fill-148" fill="#01BCDC"></path>
                            <path d="M314,325.006512 L314,159.436686 C314,152.578702 319.572981,147 326.419887,147 C333.269132,147 338.839774,152.578702 338.839774,159.436686 L338.839774,325.006512 L314,325.006512 Z" id="Fill-149" fill="#002C3F"></path>
                            <path d="M353.716906,119.788602 L298.88434,119.788602 C295.082453,119.788602 292,116.701689 292,112.894301 C292,109.086913 295.082453,106 298.88434,106 L353.716906,106 C357.518792,106 360.602415,109.086913 360.602415,112.894301 C360.602415,116.701689 357.518792,119.788602 353.716906,119.788602" id="Fill-151" fill="#01BCDC"></path>
                            <g id="Group" transform="translate(326.663691, 59.262324) rotate(-45.000000) translate(-326.663691, -59.262324) translate(285.663691, 17.762324)">
                                <path d="M21.9314119,76.9365894 L6.81452694,61.7683397 C6.18961127,61.1412925 5.26176633,61.0522549 4.74305455,61.572736 L4.1185359,62.1993849 C3.59962561,62.7200652 3.68796344,63.6514734 4.31307763,64.2787199 L19.4295655,79.4469696 C20.0552753,80.0744153 20.9827232,80.1626561 21.5016335,79.6417766 L22.1261521,79.0151277 C22.6448639,78.4944474 22.5565261,77.5640351 21.9314119,76.9365894" id="Fill-63" fill="#033757"></path>
                                <path d="M19.1026163,79.7748349 L3.9859299,64.6067844 C3.36101423,63.9797371 2.43217672,63.8914963 1.91326644,64.4123758 L1.28854927,65.0388255 C0.770631547,65.5587091 0.859167885,66.4899181 1.48408356,67.1169654 L16.60077,82.2854143 C17.2262812,82.9128599 18.1537291,83.0011007 18.6720439,82.4814163 L19.296364,81.8545682 C19.8152743,81.3336888 19.727929,80.4022805 19.1026163,79.7748349" id="Fill-64" fill="#033757"></path>
                                <path d="M43.6146757,17.3993668 C43.6146757,17.3993668 52.7746135,17.4326314 59.4666504,23.1778425 C59.4666504,23.1778425 71.0412878,32.5761816 65.4954589,49.1929345 C65.4954589,49.1929345 58.8284345,58.0419101 53.9452385,60.7821545 C53.9452385,60.7821545 40.1887561,65.3310359 39.3355517,66.3100503 L28.1557546,71.7911367 C28.1557546,71.7911367 23.9330081,75.2807305 22.3187087,73.6607256 L10.7686868,62.0713063 C10.7686868,62.0713063 8.62594866,59.984203 11.7624378,56.8372144 C11.7624378,56.8372144 17.6852409,46.2718264 18.4689661,42.6308489 C18.4689661,42.6308489 23.5605996,28.5489765 26.5412568,25.5583514 C26.5412568,25.5583514 30.2609741,18.0877643 43.6146757,17.3993668" id="Fill-67" fill="#01BCDC"></path>
                                <path d="M11.9456643,61.4105961 C14.1854749,60.6863446 16.3303967,59.6083332 18.4294622,58.5542245 C21.5824278,56.9708703 24.6603559,55.2184047 27.5915836,53.2506156 C30.1301547,51.5465528 32.780885,49.6132235 34.5730511,47.0890992 C35.1594554,46.2630621 35.6777702,45.2880314 35.7170755,44.2536424 C35.757175,43.2023224 35.2549397,41.726132 34.1799974,41.3661973 C32.9200419,40.9443148 31.6616745,42.0892537 31.0167091,43.0232514 C30.1222142,44.3185781 29.5981426,46.0114862 29.8714936,47.5818931 C30.1337279,49.0883602 31.4055941,50.491249 32.5045563,51.4571169 C33.709524,52.5162054 35.3160814,53.3137585 36.9532096,53.137277 C38.6469137,52.9548198 40.0724281,51.8961297 40.7922325,50.3508207 C41.2869244,49.2889436 41.190249,47.7384557 40.0674653,47.1237581 C38.9546072,46.5144387 37.5747505,47.2239503 36.761447,48.0059667 C35.335734,49.376786 34.539304,51.7899619 34.6274433,53.7368362 C34.6919597,55.1656195 35.4580174,56.43545 36.7584693,57.0328181 C38.2810561,57.7319719 40.1613615,57.122254 41.5654366,56.4416249 C42.5647459,55.9569978 45.1527464,54.5254258 44.8128939,53.0583981 C44.5478805,51.9144551 42.2985413,52.435733 41.6166527,52.6241659 C39.5713839,53.1894645 37.7684982,54.6676468 36.1341492,55.960384 C34.232603,57.4646601 32.4948293,59.1703163 30.8495621,60.9492742 C27.4833946,64.5888573 24.5341023,68.5915622 21.1318057,72.2004703 C20.8322511,72.5183761 22.0062509,72.3978667 22.2291798,72.16123 C25.9236861,68.2423838 29.1046419,63.8729717 32.8235651,59.9766338 C34.7862529,57.9206039 36.9301822,56.0557956 39.2678591,54.4409696 C40.2927764,53.7326532 41.4113914,52.9872876 42.6953668,52.9343033 C43.6639067,52.8942663 43.8112025,53.6314651 43.3218705,54.3144845 C41.9993838,56.1603699 38.7686015,57.6921341 36.8605045,55.9273187 C35.3238233,54.5059053 35.7309714,51.9773989 36.4591133,50.2779175 C36.8882962,49.2757971 37.4197127,48.1067563 38.4098904,47.5416569 C38.9796197,47.2167795 39.5678107,48.0597477 39.7375384,48.4832237 C40.4011639,50.140477 38.8287506,52.5046524 37.1024906,52.5909013 C35.259704,52.6827275 33.4969177,51.079056 32.4029182,49.7652048 C31.2864869,48.4248613 30.7562614,46.9667971 31.1475285,45.2366406 C31.3422688,44.3763429 31.7279775,43.5433341 32.2270366,42.8204769 C32.4442087,42.5061565 32.7042594,42.2221128 33.005005,41.9876673 C33.327587,41.7364898 33.6394493,42.1181361 33.8423285,42.3633379 C34.5984606,43.2778151 34.6534484,44.5827028 34.2738935,45.6469702 C33.3277855,48.299173 30.5635063,50.319548 28.3999244,51.9180405 C25.4871583,54.0698803 22.3345897,55.8972411 19.1339812,57.5797914 C16.7980909,58.807593 14.2950535,60.1371802 11.8192122,60.9377212 C11.1305742,61.1604146 11.2443215,61.6374725 11.9456643,61.4105961" id="Fill-68" fill="#033757"></path>
                                <path d="M49.2744504,60.9903071 C37.9884495,64.2287235 32.3852507,67.2719345 27.0018046,71.13202 C26.4017029,71.5614717 24.5759883,72.8699448 23.6132053,72.8974329 C23.2824843,72.906994 22.7921598,72.7637771 21.6636192,71.631387 L12.1001066,62.0354523 C10.9719631,60.9030623 10.828836,60.4114636 10.838166,60.0800129 C10.8655607,59.1131491 12.1693873,57.2816053 12.5977761,56.6800543 C16.443747,51.2792411 19.4764144,45.6569296 22.7048145,34.3334279 C23.8049678,30.4902734 25.6975809,27.2018606 28.3302467,24.5606132 C36.7890402,16.0727674 50.552272,16.0729666 59.010867,24.5602148 C67.470256,33.048459 67.4714471,46.8596334 59.0124551,55.34728 C56.3766131,57.9921128 53.0997761,59.8907833 49.2744504,60.9903071 Z M60.5302776,23.0358207 C51.2200662,13.6942504 36.1230325,13.6926569 26.8108361,23.036219 C23.7458113,26.1116987 21.7571184,29.8363356 20.6400915,33.73845 C17.3215669,45.3774673 14.229346,50.6806778 10.8496797,55.4267565 C8.01770799,59.4045627 8.01413477,60.9843314 10.5808945,63.5600457 C11.6725118,64.6553865 13.4605091,66.4492835 15.3624523,68.3577142 C17.2647925,70.2665434 19.0531868,72.0610379 20.1444071,73.1559804 C22.712755,75.7330889 24.2877489,75.7261173 28.2500478,72.8862784 C32.9799925,69.4952832 38.2659692,66.3917179 49.8652221,63.0628697 C53.75427,61.9450205 57.4666424,59.9475522 60.5316672,56.8718734 C69.8434666,47.528112 69.8414815,32.3787853 60.5302776,23.0358207 L60.5302776,23.0358207 Z" id="Fill-70" fill="#FFFFFF"></path>
                                <path d="M39.3107377,26.3481362 C38.1268123,26.2322081 32.1303613,26.0834138 30.2605771,34.574845 C30.127177,35.1767945 29.5354128,35.5560505 28.9357082,35.4221955 C28.7209182,35.3759836 28.5353095,35.2698158 28.3903958,35.1244078 C28.1309407,34.8642668 28.0058781,34.480031 28.0904442,34.0936042 C30.3647958,23.7644544 38.0158441,23.9803754 39.5271158,24.1297672 C40.1373415,24.188528 40.584192,24.7347045 40.5232488,25.3470118 C40.4632982,25.9597174 39.9213605,26.4096856 39.3107377,26.3481362" id="Fill-72" fill="#FFFFFF"></path>
                                <path d="M70.2258006,63.7779585 L70.9275404,63.0736259 L65.414069,57.5413479 C65.2358053,57.3622769 65.0253826,57.2248364 64.8022551,57.1342054 C64.5789292,57.0433752 64.343097,56.9983584 64.1076618,56.9983584 C63.871631,56.9983584 63.6352033,57.0435744 63.4116788,57.1346038 C63.1881543,57.225434 62.9777316,57.3630737 62.7990709,57.542543 C62.6206086,57.721614 62.4834368,57.9327545 62.3929154,58.1568422 C62.3023939,58.3811291 62.2573317,58.6181642 62.2573317,58.8551992 C62.2573317,59.0914375 62.3019969,59.3280741 62.3925184,59.5521618 C62.4828413,59.7760504 62.6200131,59.9871908 62.7986738,60.1660626 L68.3121453,65.6983406 C68.490409,65.8774116 68.7006332,66.0150513 68.9237606,66.1054831 C69.1470866,66.1963134 69.3831173,66.2413301 69.6185525,66.2413301 C69.8545833,66.2413301 70.091011,66.1961142 70.3145355,66.1050847 C70.5378614,66.0144537 70.7482841,65.876814 70.9267464,65.6975439 C71.1056057,65.5182737 71.2427774,65.3071332 71.3331004,65.0830455 C71.4238204,64.8587586 71.4688826,64.6215244 71.4688826,64.3846885 C71.4688826,64.1484502 71.4240189,63.9116144 71.3334974,63.6875267 C71.2431745,63.4636381 71.1062012,63.2526969 70.9275404,63.0736259 L69.5240608,64.4822912 L69.6217287,64.3840909 L69.493887,64.4360793 L69.5240608,64.4822912 L69.6217287,64.3840909 L69.493887,64.4360793 L69.6201406,64.3846885 L69.4837629,64.3846885 L69.493887,64.4360793 L69.6201406,64.3846885 L69.4837629,64.3846885 L69.618354,64.3846885 L69.4936885,64.3338953 L69.4837629,64.3846885 L69.618354,64.3846885 L69.4936885,64.3338953 L69.618354,64.3846885 L69.5230683,64.2890777 L69.4936885,64.3338953 L69.618354,64.3846885 L69.5230683,64.2890777 L69.6185525,64.3844893 L69.567932,64.2593986 L69.5232668,64.2888786 L69.6185525,64.3844893 L69.567932,64.2593986 L69.6185525,64.3846885 L69.6185525,64.2494391 L69.567932,64.2593986 L69.6185525,64.3846885 L69.6185525,64.2494391 L69.6185525,64.3864812 L69.6697686,64.2595978 L69.6185525,64.2494391 L69.6185525,64.3864812 L69.6697686,64.2595978 L69.6177585,64.3882739 L69.7158234,64.2898745 L69.6697686,64.2595978 L69.6177585,64.3882739 L69.7158234,64.2898745 L64.2021535,58.7573973 L64.1032945,58.8559959 L64.2321288,58.8036092 L64.2019549,58.7571982 L64.1032945,58.8559959 L64.2321288,58.8036092 L64.1056766,58.8551992 L64.2424514,58.8551992 L64.2321288,58.8036092 L64.1056766,58.8551992 L64.2424514,58.8551992 L64.1076618,58.8551992 L64.2323273,58.9059924 L64.2424514,58.8551992 L64.1076618,58.8551992 L64.2323273,58.9059924 L64.1074632,58.8551992 L64.2029475,58.9510091 L64.2323273,58.9059924 L64.1074632,58.8551992 L64.2029475,58.9510091 L64.1074632,58.8546016 L64.1582823,58.9802899 L64.203146,58.95081 L64.1074632,58.8546016 L64.1582823,58.9802899 L64.1076618,58.8551992 L64.1076618,58.9902494 L64.1582823,58.9802899 L64.1076618,58.8551992 L64.1076618,58.9902494 L64.1076618,58.8536057 L64.0566442,58.9800908 L64.1076618,58.9902494 L64.1076618,58.8536057 L64.0566442,58.9800908 L64.1088528,58.8510162 L64.0101924,58.949814 L64.0566442,58.9800908 L64.1088528,58.8510162 L64.0101924,58.949814 L69.5238623,64.4822912 L70.2258006,63.7779585" id="Fill-74" fill="#FECC19"></path>
                                <path d="M70.9342899,48.4352192 L70.23255,49.1393526 C70.455082,49.3632412 70.7413362,49.5341454 71.0655063,49.6203943 L71.0637197,49.6197967 L78.6083655,51.6202528 C78.7649915,51.6618833 78.9241981,51.6820014 79.080824,51.6820014 C79.4929349,51.6818022 79.8834079,51.5441626 80.1990419,51.3037413 C80.5148745,51.064316 80.7600368,50.7137432 80.8686228,50.3012226 L80.8686228,50.3008242 C80.9103103,50.1432657 80.9305585,49.9827192 80.9305585,49.8249615 C80.93036,49.4120425 80.7935853,49.0202375 80.5539813,48.7035269 C80.31537,48.3868162 79.9657904,48.1408177 79.5542751,48.0324588 L79.5507019,48.0314629 L72.0134009,46.0329986 L72.0128054,46.0327995 C71.856775,45.9915673 71.6975684,45.97125 71.5407439,45.97125 C71.1290301,45.9714492 70.7387556,46.1088897 70.422923,46.3491117 C70.106892,46.588537 69.8615312,46.9391098 69.7529451,47.3518297 L69.759099,47.3283253 L69.7527466,47.3520288 C69.7110591,47.5095874 69.6908109,47.6701338 69.6908109,47.8280908 C69.6914064,48.3282546 69.8905139,48.7959506 70.2327486,49.1395518 L71.6360297,47.7306873 L71.5391558,47.8280908 L71.6759306,47.8280908 C71.675335,47.7884522 71.6620347,47.7573787 71.6360297,47.7306873 L71.5391558,47.8280908 L71.6759306,47.8280908 L71.541538,47.8280908 L71.6715633,47.8625505 L71.6759306,47.8280908 L71.541538,47.8280908 L71.6715633,47.8625505 L71.6775187,47.8402413 L71.6715633,47.8629489 L71.5403469,47.8280908 L71.6221338,47.9362505 C71.6441687,47.9207137 71.6648139,47.8900386 71.6715633,47.8629489 L71.5403469,47.8280908 L71.6221338,47.9362505 L71.5407439,47.8286884 L71.5407439,47.963141 C71.5732999,47.9629418 71.6002975,47.9529824 71.6221338,47.9362505 L71.5407439,47.8286884 L71.5407439,47.963141 L71.5407439,47.8290867 L71.5067984,47.958958 L71.5407439,47.963141 L71.5407439,47.8290867 L71.5067984,47.958958 L71.5022326,47.9577629 L79.0514442,49.9594141 L79.0482681,49.9586174 L79.0840002,49.8229696 L78.972635,49.907625 C78.9887145,49.9301333 79.0200794,49.9516457 79.0482681,49.9586174 L79.0840002,49.8229696 L78.972635,49.907625 L79.0814196,49.8249615 L78.9454389,49.8249615 C78.9456374,49.8576285 78.9557615,49.8851166 78.972635,49.907625 L79.0814196,49.8249615 L78.9454389,49.8249615 L79.0790374,49.8249615 L78.9498061,49.7905018 L78.9454389,49.8249615 L79.0790374,49.8249615 L78.9498061,49.7905018 L78.9434537,49.8146037 L78.9498061,49.7903026 L79.0806255,49.8249615 L78.9990371,49.717001 C78.9772008,49.7327369 78.9565555,49.7630137 78.9498061,49.7903026 L79.0806255,49.8249615 L78.9990371,49.717001 L79.080824,49.8253599 L79.080824,49.6901105 C79.0480695,49.6903097 79.0208734,49.7004683 78.9990371,49.717001 L79.080824,49.8253599 L79.080824,49.6901105 L79.080824,49.8253599 L79.1153651,49.6944926 L79.080824,49.6901105 L79.080824,49.8253599 L79.1153651,49.6944926 L71.5772701,47.6958292 L71.5750865,47.6952317 L71.5401484,47.8270948 L71.6362282,47.7308865 C71.6197517,47.7141546 71.5963273,47.7006098 71.5750865,47.6952317 L71.5401484,47.8270948 L71.6362282,47.7308865 L70.9342899,48.4352192" id="Fill-76" fill="#FECC19"></path>
                                <path d="M71.5941436,32.6449019 L70.6361249,32.9056404 C70.7222791,33.2255381 70.8912128,33.5089842 71.111561,33.7296857 C71.4543912,34.0730877 71.9204973,34.2728744 72.4189609,34.2734719 C72.5809466,34.2734719 72.7459101,34.2517603 72.9071018,34.2075403 L80.4356682,32.1433437 C80.8438088,32.031997 81.1898152,31.7854009 81.4260444,31.469487 C81.6630677,31.1533739 81.7984529,30.7637601 81.7986514,30.3530321 C81.7988499,30.1910914 81.7774106,30.0269596 81.733738,29.866214 L81.733738,29.8654172 C81.6231668,29.4562828 81.3780045,29.1090962 81.0631645,28.8720612 C80.7483246,28.6340302 80.3600351,28.4983825 79.950902,28.4981833 C79.7889162,28.4981833 79.6243498,28.5196957 79.462761,28.5641149 L71.9339961,30.6281123 L71.9334006,30.6283115 C71.525657,30.7398574 71.1798492,30.9862543 70.9438184,31.3021682 C70.7067951,31.6182813 70.57141,32.0078952 70.5712115,32.4186231 C70.5712115,32.5803646 70.5924522,32.7452932 70.6365219,32.9068355 L70.6361249,32.9056404 L71.5941436,32.6449019 L72.5515669,32.382769 L72.4207475,32.4186231 L72.5563311,32.4186231 L72.5515669,32.382769 L72.4207475,32.4186231 L72.5563311,32.4186231 L72.42174,32.4186231 L72.5297305,32.5000914 C72.5460085,32.4783798 72.5561326,32.4510909 72.5563311,32.4186231 L72.42174,32.4186231 L72.5297305,32.5000914 L72.4223356,32.4190214 L72.4578692,32.5494903 C72.4844698,32.5425187 72.5142466,32.5220022 72.5297305,32.5000914 L72.4223356,32.4190214 L72.4578692,32.5494903 L79.9862371,30.4854929 L79.950902,30.3548248 L79.950902,30.4900742 L79.9864356,30.4852937 L79.950902,30.3548248 L79.950902,30.4900742 L79.950902,30.3530321 L79.8685195,30.4629845 C79.8907529,30.4797164 79.9185445,30.489875 79.950902,30.4900742 L79.950902,30.3530321 L79.8685195,30.4629845 L79.951299,30.3526338 L79.818296,30.3890854 C79.8252439,30.4161751 79.8460877,30.4468502 79.8685195,30.4629845 L79.951299,30.3526338 L79.818296,30.3890854 L79.8180975,30.3882886 L79.9481228,30.3530321 L79.8135317,30.3530321 L79.8180975,30.3882886 L79.9481228,30.3530321 L79.8135317,30.3530321 L79.9483213,30.3530321 L79.8401323,30.2713646 C79.8238543,30.2930762 79.8139287,30.3201659 79.8135317,30.3530321 L79.9483213,30.3530321 L79.8401323,30.2713646 L79.9483213,30.3530321 L79.9125892,30.2217665 C79.8855915,30.2287381 79.8556162,30.2494538 79.8401323,30.2713646 L79.9483213,30.3530321 L79.9125892,30.2217665 L72.3836257,32.2861623 L72.4187624,32.4158344 L72.4189609,32.281581 L72.3836257,32.2861623 L72.4187624,32.4158344 L72.4189609,32.281581 L72.4189609,32.4178263 L72.5152392,32.3212196 C72.4894326,32.2959226 72.4584647,32.2821785 72.4189609,32.281581 L72.4189609,32.4178263 L72.5152392,32.3212196 L72.4159832,32.4210133 L72.5519639,32.3839642 C72.5464055,32.3624517 72.5323112,32.3377523 72.5154377,32.3212196 L72.4159832,32.4210133 L72.5519639,32.3839642 L72.5499788,32.3765942 L72.5515669,32.382769 L71.5941436,32.6449019" id="Fill-78" fill="#FECC19"></path>
                                <path d="M36.0799554,10.113428 L37.0395623,9.85906354 L35.0451125,2.28589407 L35.0465021,2.29107299 C34.9383131,1.87934913 34.6939448,1.52897551 34.3785093,1.28955021 C34.0630738,1.04892978 33.6724023,0.911290118 33.2608869,0.911090929 C33.1030699,0.911090929 32.9426723,0.931607406 32.7854508,0.973636305 L32.7858478,0.973437116 C32.3743325,1.08239355 32.0249514,1.32879046 31.7865386,1.64570032 C31.5469346,1.96241098 31.4101599,2.35421594 31.4097628,2.76733412 C31.4097628,2.92449432 31.4300111,3.08444316 31.4713015,3.24140417 L33.4641632,10.8087971 L33.4641632,10.8083988 C33.5495233,11.1344713 33.7208392,11.4226979 33.9429741,11.6451922 L33.9453562,11.6477816 L33.9439666,11.6461881 C34.2858042,11.9885942 34.7519103,12.1887792 35.2499769,12.1893768 C35.4077939,12.1893768 35.5681916,12.1688603 35.7252145,12.1270306 C36.1363328,12.017875 36.4855154,11.7720756 36.7241268,11.455365 C36.9637307,11.1386543 37.1009025,10.7468493 37.101101,10.3333328 C37.101101,10.1759734 37.0810513,10.0160245 37.0395623,9.85926272 L37.052267,9.9072673 L37.0395623,9.85906354 L35.1203486,10.3677925 L35.2505724,10.3333328 L35.1159813,10.3333328 L35.1203486,10.3677925 L35.2505724,10.3333328 L35.1159813,10.3333328 L35.2509694,10.3333328 L35.1429789,10.2510677 C35.1265024,10.2729785 35.1161798,10.3004666 35.1159813,10.3333328 L35.2509694,10.3333328 L35.1429789,10.2510677 L35.2503739,10.3329344 L35.2156343,10.201868 C35.1888352,10.2084412 35.1586614,10.2291569 35.1429789,10.2510677 L35.2503739,10.3329344 L35.2156343,10.201868 L35.2499769,10.3315401 L35.2499769,10.1974858 L35.2156343,10.201868 L35.2499769,10.3315401 L35.2499769,10.1974858 L35.2499769,10.3345279 L35.3470492,10.2371244 C35.3216397,10.2122258 35.2898778,10.1980834 35.2499769,10.1974858 L35.2499769,10.3345279 L35.3470492,10.2371244 L35.3478433,10.2381204 L35.2505724,10.3355239 L35.3835754,10.3004666 C35.3780171,10.2781574 35.3633272,10.2528604 35.3478433,10.2381204 L35.2505724,10.3355239 L35.3835754,10.3004666 L33.411756,2.81294842 L33.3905153,2.73267522 L33.2596959,2.76733412 L33.395081,2.76733412 L33.3905153,2.73267522 L33.2596959,2.76733412 L33.395081,2.76733412 L33.2606884,2.76733412 L33.3682819,2.84920084 C33.3847584,2.82729004 33.394684,2.80020032 33.395081,2.76733412 L33.2606884,2.76733412 L33.3682819,2.84920084 L33.2596959,2.76673655 L33.294634,2.89879893 C33.3220286,2.8920265 33.3525995,2.87111164 33.3682819,2.84920084 L33.2596959,2.76673655 L33.294634,2.89879893 L33.295031,2.89879893 L33.2608869,2.76912682 L33.2608869,2.9029819 L33.295031,2.89879893 L33.2608869,2.76912682 L33.2608869,2.9029819 L33.2608869,2.76534223 L33.1775119,2.8754938 C33.1997453,2.89242487 33.2281325,2.9029819 33.2608869,2.9029819 L33.2608869,2.76534223 L33.1775119,2.8754938 L33.2600929,2.76633818 L33.1276854,2.80159465 C33.1342363,2.82848517 33.1548816,2.8591603 33.1775119,2.8754938 L33.2600929,2.76633818 L33.1276854,2.80159465 L33.1292735,2.80737113 L35.1082393,10.3221782 L35.1203486,10.3677925 L36.0799554,10.113428" id="Fill-80" fill="#FECC19"></path>
                                <path d="M56.4548269,73.1412404 L57.4144337,72.8866767 L55.4193884,65.3121129 L55.421175,65.3186862 C55.3127875,64.9063648 55.0680222,64.5561903 54.7525867,64.316765 C54.4373497,64.076543 54.0470752,63.9389033 53.6349643,63.9387041 C53.4775443,63.9387041 53.3171467,63.9590214 53.1597267,64.0010503 L53.1605207,64.0008511 C52.7492039,64.1100068 52.3996244,64.3562045 52.161013,64.6731143 C51.9216075,64.9902234 51.7848328,65.3820283 51.7846343,65.7951465 C51.7844358,65.9521075 51.8044855,66.111658 51.845776,66.268619 L53.8394317,73.8388006 L53.8394317,73.8386014 C53.9243948,74.1608894 54.0951151,74.450112 54.318441,74.6734029 C54.6600801,75.015809 55.1261862,75.2163924 55.6248483,75.21699 C55.7826653,75.21699 55.943063,75.1964735 56.100086,75.1546438 C56.5112043,75.0456874 56.8605853,74.7994896 57.0991967,74.4825798 C57.3386021,74.1656699 57.4755754,73.773865 57.4757739,73.3607468 C57.4757739,73.2035866 57.4557242,73.0440361 57.4146322,72.8874735 L57.4132426,72.8820954 L57.4144337,72.8866767 L56.4548269,73.1412404 L55.4950215,73.3948081 L55.6242528,73.3607468 L55.4906542,73.3607468 L55.4950215,73.3948081 L55.6242528,73.3607468 L55.4906542,73.3607468 L55.6250468,73.3607468 L55.5174533,73.2788801 C55.5009768,73.3007909 55.4908527,73.3280798 55.4906542,73.3607468 L55.6250468,73.3607468 L55.5174533,73.2788801 L55.6254439,73.3611452 L55.5907043,73.229282 C55.5635081,73.2360544 55.5331358,73.2567701 55.5174533,73.2788801 L55.6254439,73.3611452 L55.5907043,73.229282 L55.6248483,73.3595516 L55.6248483,73.225099 L55.5905057,73.2294812 L55.6248483,73.3595516 L55.6248483,73.225099 L55.6248483,73.3623403 L55.7221192,73.2649368 C55.6967096,73.239839 55.6649477,73.2256966 55.6248483,73.225099 L55.6248483,73.3623403 L55.7221192,73.2649368 L55.6266349,73.3605476 L55.7574543,73.3256895 C55.753087,73.3069657 55.7380001,73.279876 55.7221192,73.2649368 L55.6266349,73.3605476 L55.7574543,73.3256895 L53.7651882,65.7602884 L53.7653867,65.7606868 L53.6355599,65.7951465 L53.769754,65.7951465 L53.7653867,65.7606868 L53.6355599,65.7951465 L53.769754,65.7951465 L53.6357584,65.7951465 L53.7429549,65.8766148 C53.7594313,65.854704 53.7693569,65.8276143 53.769754,65.7951465 L53.6357584,65.7951465 L53.7429549,65.8766148 L53.6347658,65.7943498 L53.6695054,65.9262129 C53.6967016,65.9194405 53.7272724,65.8987248 53.7429549,65.8766148 L53.6347658,65.7943498 L53.6695054,65.9262129 L53.6702995,65.9260137 L53.6349643,65.7927562 L53.6349643,65.9305951 L53.6702995,65.9260137 L53.6349643,65.7927562 L53.6349643,65.9305951 L53.6349643,65.793553 L53.5519863,65.903107 C53.5740212,65.9200381 53.6018128,65.9303959 53.6349643,65.9305951 L53.6349643,65.793553 L53.5519863,65.903107 L53.6349643,65.793553 L53.5023583,65.8288095 C53.5091078,65.8566959 53.5299515,65.8871719 53.5519863,65.903107 L53.6349643,65.793553 L53.5023583,65.8288095 L53.5003732,65.8216387 L55.4936319,73.3902268 L55.4950215,73.3948081 L56.4548269,73.1412404" id="Fill-82" fill="#FECC19"></path>
                                <path d="M16.4880152,28.5515659 L16.741515,27.5886859 L9.19508247,25.587433 L9.19984676,25.5886281 C9.04361784,25.5471968 8.88421273,25.5270787 8.72758679,25.5270787 C8.31587296,25.5272779 7.92539992,25.6647184 7.60956738,25.9049404 C7.29353633,26.1443657 7.04817553,26.4951377 6.939788,26.9080567 L6.94018502,26.9068616 C6.89810048,27.0648185 6.87765375,27.2259625 6.87765375,27.384517 C6.87824929,27.8846809 7.07775382,28.3521777 7.41939291,28.6953805 L7.42117952,28.6973724 L7.41998845,28.6961772 C7.64271888,28.9198666 7.92976718,29.0901733 8.25115806,29.1758246 L8.25234913,29.176223 L15.7952084,31.1760815 L15.7954069,31.1762807 C15.9516358,31.217712 16.1108424,31.2378301 16.2676669,31.2378301 C16.6795792,31.2376309 17.0700523,31.1001904 17.3856863,30.8597692 C17.7015188,30.6203439 17.9468796,30.2695719 18.0554657,29.8566529 L18.0540761,29.8612343 L18.0550687,29.8576489 C18.0969547,29.6996919 18.1174014,29.5387471 18.1174014,29.3803918 C18.1172029,28.967672 17.9802296,28.5760662 17.7408242,28.2593555 C17.5020143,27.9426449 17.1526332,27.6970447 16.7413165,27.5886859 L16.2345154,29.514446 L16.2698505,29.3799934 L16.1596764,29.4640512 C16.1759544,29.4865596 16.2069222,29.5076736 16.2345154,29.514446 L16.2698505,29.3799934 L16.1596764,29.4640512 L16.269255,29.3803918 L16.1322817,29.3803918 C16.1324802,29.4134572 16.1428029,29.4415428 16.1596764,29.4640512 L16.269255,29.3803918 L16.1322817,29.3803918 L16.2674684,29.3803918 L16.136649,29.3455337 L16.1322817,29.3803918 L16.2674684,29.3803918 L16.136649,29.3455337 L16.1364505,29.3465296 L16.2680639,29.3815869 L16.18588,29.2728297 C16.1638451,29.2885656 16.1431999,29.3192407 16.1364505,29.3465296 L16.2680639,29.3815869 L16.18588,29.2728297 L16.2676669,29.3809893 L16.2676669,29.2459391 C16.2349124,29.2461383 16.2077163,29.256297 16.18588,29.2728297 L16.2676669,29.3809893 L16.2676669,29.2459391 L16.2676669,29.380591 L16.3020095,29.2503213 L16.2676669,29.2459391 L16.2676669,29.380591 L16.3020095,29.2503213 L16.2986348,29.2493254 L8.76212787,27.2510603 L8.76272341,27.2512595 L8.72818232,27.3809316 L8.82247551,27.2863168 C8.80659455,27.2699833 8.78178055,27.2560401 8.76272341,27.2512595 L8.72818232,27.3809316 L8.82247551,27.2863168 L8.82307104,27.2869144 L8.72580018,27.384517 L8.86277344,27.384517 C8.8621779,27.3442808 8.84828206,27.312809 8.82307104,27.2869144 L8.72580018,27.384517 L8.86277344,27.384517 L8.7277853,27.384517 L8.85840617,27.4193751 L8.86277344,27.384517 L8.7277853,27.384517 L8.85840617,27.4193751 L8.85939873,27.4157897 L8.8588032,27.4179808 L8.72659423,27.3829235 L8.80917521,27.4920791 C8.83121003,27.476144 8.85205379,27.4454689 8.8588032,27.4179808 L8.72659423,27.3829235 L8.80917521,27.4920791 L8.72758679,27.3841186 L8.72758679,27.5189697 C8.75994424,27.5187705 8.78714038,27.5086118 8.80917521,27.4920791 L8.72758679,27.3841186 L8.72758679,27.5189697 L8.72758679,27.3851146 L8.69344273,27.5145875 L8.72758679,27.5189697 L8.72758679,27.3851146 L8.69344273,27.5145875 L8.69602338,27.5153843 L16.2343169,29.514446 L16.4880152,28.5515659" id="Fill-84" fill="#FECC19"></path>
                                <path d="M49.781847,9.22504464 L48.8240268,8.96370855 C48.7801556,9.12505171 48.7589149,9.28958191 48.7589149,9.45152264 C48.7595104,9.95088971 48.9580224,10.4193825 49.3008525,10.7637804 L49.301051,10.7637804 C49.5208038,10.9848803 49.8040804,11.154191 50.1216995,11.2406391 C50.2822957,11.2846599 50.4464651,11.3061723 50.6080538,11.3061723 C51.0173855,11.3059731 51.4058734,11.169927 51.7207134,10.9320952 C52.0355534,10.694861 52.2807157,10.3478736 52.3918824,9.93873917 L54.4492604,2.38389511 L54.4492604,2.38369592 C54.4933301,2.22195437 54.5149679,2.0570258 54.5149679,1.8944875 C54.5145709,1.48415796 54.3793842,1.09454409 54.1423609,0.778630179 C53.9063302,0.462716272 53.5601253,0.216518548 53.1517862,0.10576941 L53.1533743,0.106167789 L53.1531758,0.105968599 C52.9919841,0.0619478091 52.8276162,0.0404353867 52.6658289,0.0404353867 C52.2562987,0.0406345757 51.8678108,0.176680729 51.5529708,0.4147117 C51.2381308,0.652145103 50.9929685,0.999331699 50.8821989,1.4084661 L48.8244238,8.96231422 L48.8240268,8.96370855 L49.781847,9.22504464 L50.7392703,9.48757587 L52.7972438,1.93332937 L52.7972438,1.932931 L52.6668215,1.89707696 L52.7480129,2.00523664 C52.7700477,1.9895007 52.7904944,1.95942315 52.7972438,1.932931 L52.6668215,1.89707696 L52.7480129,2.00523664 L52.6658289,1.89568263 L52.6658289,2.03232635 C52.6985834,2.03212717 52.725978,2.02176933 52.7480129,2.00523664 L52.6658289,1.89568263 L52.6658289,2.03232635 L52.6658289,1.89687777 L52.6302953,2.02754582 L52.6658289,2.03232635 L52.6658289,1.89687777 L52.6302953,2.02754582 L52.6295012,2.02734663 L52.6316849,2.02794419 L52.6682111,1.8926948 L52.5566473,1.97695179 C52.5725283,1.99946015 52.6032976,2.02077339 52.6316849,2.02794419 L52.6682111,1.8926948 L52.5566473,1.97695179 L52.6656304,1.8944875 L52.5296497,1.8944875 C52.5300467,1.92715451 52.5399723,1.95464261 52.5566473,1.97695179 L52.6656304,1.8944875 L52.5296497,1.8944875 L52.6644393,1.8944875 L52.534414,1.85903184 L52.5296497,1.8944875 L52.6644393,1.8944875 L52.534414,1.85903184 L50.4770359,9.41347753 L50.4770359,9.41327834 L50.6072598,9.44893318 L50.5262669,9.34097269 C50.5042321,9.35670863 50.4837853,9.38678619 50.4770359,9.41327834 L50.6072598,9.44893318 L50.5262669,9.34097269 L50.6080538,9.45012832 L50.6080538,9.31428136 C50.5754979,9.31448054 50.5481032,9.32463919 50.5262669,9.34097269 L50.6080538,9.45012832 L50.6080538,9.31428136 L50.6080538,9.44953075 L50.6435875,9.3188627 L50.6080538,9.31428136 L50.6080538,9.44953075 L50.6435875,9.3188627 L50.6072598,9.45192102 L50.7041336,9.35471674 C50.6882527,9.33818405 50.6628431,9.32384243 50.643389,9.3188627 L50.6072598,9.45192102 L50.7041336,9.35471674 L50.6078553,9.45152264 L50.7440345,9.45152264 C50.743439,9.41268077 50.7301387,9.38140808 50.7041336,9.35471674 L50.6078553,9.45152264 L50.7440345,9.45152264 L50.6126196,9.45152264 L50.7396673,9.48618155 L50.7440345,9.45152264 L50.6126196,9.45152264 L50.7396673,9.48618155 L50.7412554,9.47960831 L50.7392703,9.48757587 L49.781847,9.22504464" id="Fill-86" fill="#FECC19"></path>
                                <path d="M63.6620024,19.2257316 L62.9602626,19.9300643 C63.1387248,20.1091353 63.348949,20.2465757 63.5720765,20.3372068 C63.7954024,20.4278378 64.0312347,20.4728546 64.2666698,20.4728546 C64.5027006,20.4728546 64.7389298,20.4276386 64.9624543,20.3368084 C65.1857803,20.2459782 65.3962029,20.1085377 65.5746652,19.9292675 L71.0811887,14.4039612 L71.0962756,14.389022 C71.2747379,14.209951 71.4117111,13.9988105 71.5020341,13.7747228 C71.5927541,13.5506351 71.6376178,13.3136 71.6376178,13.0769634 C71.6376178,12.8407251 71.5929526,12.6040885 71.5024311,12.3800007 C71.4121082,12.1563114 71.2753334,11.9451709 71.0966726,11.7662991 L71.0966726,11.7660999 C70.9182104,11.5870289 70.7079862,11.4493893 70.4846602,11.3587582 C70.2613343,11.2677288 70.025105,11.2227121 69.7894713,11.2227121 C69.5534406,11.2227121 69.3172114,11.267928 69.0938854,11.3589574 C68.8705594,11.4495885 68.6603352,11.5870289 68.481873,11.7662991 L62.9610566,17.3063455 L62.9612551,17.3059471 C62.7823959,17.4850181 62.6452241,17.6963577 62.5547026,17.9204455 C62.4639827,18.1447324 62.419119,18.3817674 62.419119,18.6186033 C62.419119,18.8548415 62.4637841,19.0916774 62.5543056,19.3157651 C62.6446286,19.5396536 62.7816018,19.7505949 62.9598656,19.9296659 L62.9602626,19.9300643 L63.6620024,19.2257316 L64.3641392,18.5217974 L64.2670669,18.6192008 L64.3941145,18.5676108 L64.3641392,18.5217974 L64.2670669,18.6192008 L64.3941145,18.5676108 L64.2684565,18.6186033 L64.4042386,18.6186033 L64.3941145,18.5676108 L64.2684565,18.6186033 L64.4042386,18.6186033 L64.269052,18.6186033 L64.3941145,18.6695957 L64.4042386,18.6186033 L64.269052,18.6186033 L64.3941145,18.6695957 L64.2682579,18.6184041 L64.3645362,18.7150108 L64.3941145,18.6695957 L64.2682579,18.6184041 L64.3645362,18.7150108 L64.343891,18.7357264 L69.8853526,13.1749644 L69.8849556,13.1751636 L69.7894713,13.0793537 L69.8402904,13.2046436 L69.8849556,13.1751636 L69.7894713,13.0793537 L69.8402904,13.2046436 L69.7894713,13.0791545 L69.7894713,13.2146031 L69.8402904,13.2046436 L69.7894713,13.0791545 L69.7894713,13.2146031 L69.7894713,13.0783577 L69.7384538,13.2044444 L69.7894713,13.2146031 L69.7894713,13.0783577 L69.7384538,13.2044444 L69.7898684,13.077561 L69.6929945,13.1747652 L69.7384538,13.2044444 L69.7898684,13.077561 L69.6929945,13.1747652 L69.6929945,13.1745661 L69.7912579,13.0759674 L69.6626222,13.128155 L69.6929945,13.1745661 L69.7912579,13.0759674 L69.6626222,13.128155 L69.7888758,13.0769634 L69.6524981,13.0769634 L69.6626222,13.128155 L69.7888758,13.0769634 L69.6524981,13.0769634 L69.7868907,13.0769634 L69.6624237,13.0261702 L69.6524981,13.0769634 L69.7868907,13.0769634 L69.6624237,13.0261702 L69.7876847,13.0771626 L69.6918034,12.9811534 L69.6624237,13.0261702 L69.7876847,13.0771626 L69.6918034,12.9811534 L69.7064933,12.9664134 L64.1711856,18.5206022 L64.2668684,18.6166114 L64.2160493,18.490923 L64.1711856,18.5206022 L64.2668684,18.6166114 L64.2160493,18.490923 L64.2666698,18.6160138 L64.2666698,18.4809636 L64.2160493,18.490923 L64.2666698,18.6160138 L64.2666698,18.4809636 L64.2666698,18.6176073 L64.3176874,18.4911222 L64.2666698,18.4809636 L64.2666698,18.6176073 L64.3176874,18.4911222 L64.2658758,18.6197984 L64.3639407,18.521399 L64.3176874,18.4911222 L64.2658758,18.6197984 L64.3639407,18.521399 L64.3575883,18.5150249 L64.3641392,18.5217974 L63.6620024,19.2257316" id="Fill-88" fill="#FECC19"></path>
                                <path d="M25.4415005,20.0569477 L26.1434388,20.7610812 C26.3220996,20.5820102 26.4592714,20.3706706 26.5497928,20.1465828 C26.6403143,19.9222959 26.6853765,19.6852609 26.6853765,19.4486242 C26.6853765,19.212386 26.6405128,18.9755501 26.5499913,18.7514624 C26.4596684,18.5275738 26.3226951,18.3164334 26.1440344,18.1373624 L20.6502156,12.6248041 L20.6301659,12.6044869 C20.4517037,12.4254159 20.241281,12.2879754 20.0181535,12.1975435 C19.7948276,12.1067133 19.5589953,12.0616966 19.3235601,12.0616966 C19.0875294,12.0616966 18.8513002,12.1069125 18.6277757,12.1977427 C18.4044497,12.2885729 18.194027,12.4260134 18.0155648,12.6052836 L18.0104035,12.6104625 L18.0149692,12.6058812 C17.8363085,12.7849522 17.6993352,12.9962918 17.6090123,13.2201804 C17.5184908,13.4444673 17.4734286,13.6815023 17.4734286,13.9181389 C17.4734286,14.1545764 17.5182923,14.3912131 17.6088138,14.6155 C17.6991367,14.8393885 17.8363085,15.050529 18.0149692,15.2296 L23.5286392,20.7620771 L23.5282421,20.7614796 C23.7065059,20.9409489 23.9169286,21.0785886 24.1402545,21.1692196 C24.3635805,21.2600499 24.5996112,21.3050666 24.8350464,21.3050666 C25.0710772,21.3050666 25.3073064,21.2598507 25.5308309,21.1690205 C25.7541569,21.0781902 25.9645795,20.9405506 26.1432403,20.7612804 L26.1279549,20.7766179 L26.1434388,20.7610812 L25.4415005,20.0569477 L24.7399592,19.3526151 L24.8352449,19.4482258 L24.7846244,19.3231351 L24.7399592,19.3526151 L24.8352449,19.4482258 L24.7846244,19.3231351 L24.8350464,19.4478275 L24.8350464,19.3131756 L24.7846244,19.3231351 L24.8350464,19.4478275 L24.8350464,19.3131756 L24.8350464,19.4500185 L24.8862625,19.3233343 L24.8350464,19.3131756 L24.8350464,19.4500185 L24.8862625,19.3233343 L24.8336569,19.4536039 L24.9329128,19.3540094 L24.8862625,19.3233343 L24.8336569,19.4536039 L24.9329128,19.3540094 L19.4109054,13.8131663 L19.4180518,13.8205363 L19.3195899,13.9193341 L19.4484242,13.8669474 L19.4180518,13.8205363 L19.3195899,13.9193341 L19.4484242,13.8669474 L19.3225676,13.9181389 L19.4585483,13.9181389 L19.4484242,13.8669474 L19.3225676,13.9181389 L19.4585483,13.9181389 L19.3245527,13.9181389 L19.4486227,13.968733 L19.4585483,13.9181389 L19.3245527,13.9181389 L19.4486227,13.968733 L19.3237587,13.9179398 L19.4192429,14.0137497 L19.4486227,13.968733 L19.3237587,13.9179398 L19.4192429,14.0137497 L19.4188459,14.0141481 L19.3233616,13.9181389 L19.3739822,14.0436281 L19.4188459,14.0141481 L19.3233616,13.9181389 L19.3739822,14.0436281 L19.3235601,13.9189357 L19.3235601,14.0535875 L19.3739822,14.0436281 L19.3235601,13.9189357 L19.3235601,14.0535875 L19.3235601,13.9177406 L19.2727411,14.0436281 L19.3235601,14.0535875 L19.3235601,13.9177406 L19.2727411,14.0436281 L19.3247512,13.9147527 L19.2266863,14.0133513 L19.2727411,14.0436281 L19.3247512,13.9147527 L19.2266863,14.0133513 L19.205644,13.9922373 L24.7405547,19.5460277 L24.8388182,19.4474291 L24.7101824,19.4996166 L24.7405547,19.5460277 L24.8388182,19.4474291 L24.7101824,19.4996166 L24.8358405,19.4486242 L24.7002568,19.4486242 L24.7101824,19.4996166 L24.8358405,19.4486242 L24.7002568,19.4486242 L24.8346494,19.4486242 L24.7101824,19.3980302 L24.7002568,19.4486242 L24.8346494,19.4486242 L24.7101824,19.3980302 L24.8358405,19.4490226 L24.7397607,19.3526151 L24.7101824,19.3980302 L24.8358405,19.4490226 L24.7397607,19.3526151 L24.7399592,19.3526151 L25.4415005,20.0569477" id="Fill-90" fill="#FECC19"></path>
                            </g>
                            <path d="M337.958491,137.229573 L315.106226,137.229573 C312.286981,137.229573 310,134.939282 310,132.114786 C310,129.29029 312.286981,127 315.106226,127 L337.958491,127 C340.777736,127 343.064717,129.29029 343.064717,132.114786 C343.064717,134.939282 340.777736,137.229573 337.958491,137.229573" id="Fill-153" fill="#FFFFFF"></path>
                            <path d="M341.642377,131.827303 C341.642377,133.940697 339.932113,135.654607 337.820604,135.654607 C335.710264,135.654607 334,133.940697 334,131.827303 C334,129.71391 335.710264,128 337.820604,128 C339.932113,128 341.642377,129.71391 341.642377,131.827303" id="Fill-154" fill="#01BCDC"></path>
                            <path d="M323.807132,203.989657 L318.169811,203.989657 C317.522906,203.989657 317,203.464823 317,202.818153 L317,197.171504 C317,196.524834 317.522906,196 318.169811,196 L323.807132,196 C324.452868,196 324.976943,196.524834 324.976943,197.171504 L324.976943,202.818153 C324.976943,203.464823 324.452868,203.989657 323.807132,203.989657" id="Fill-155" fill="#01BCDC"></path>
                            <path d="M334.808302,203.989657 L329.169811,203.989657 C328.524075,203.989657 328,203.464823 328,202.818153 L328,197.171504 C328,196.524834 328.524075,196 329.169811,196 L334.808302,196 C335.454038,196 335.978113,196.524834 335.978113,197.171504 L335.978113,202.818153 C335.978113,203.464823 335.454038,203.989657 334.808302,203.989657" id="Fill-156" fill="#01BCDC"></path>
                            <path d="M323.807132,214.989657 L318.169811,214.989657 C317.522906,214.989657 317,214.464823 317,213.818153 L317,208.171504 C317,207.524834 317.522906,207 318.169811,207 L323.807132,207 C324.452868,207 324.976943,207.524834 324.976943,208.171504 L324.976943,213.818153 C324.976943,214.464823 324.452868,214.989657 323.807132,214.989657" id="Fill-157" fill="#01BCDC"></path>
                            <path d="M334.808302,214.989657 L329.169811,214.989657 C328.524075,214.989657 328,214.464823 328,213.818153 L328,208.171504 C328,207.524834 328.524075,207 329.169811,207 L334.808302,207 C335.454038,207 335.978113,207.524834 335.978113,208.171504 L335.978113,213.818153 C335.978113,214.464823 335.454038,214.989657 334.808302,214.989657" id="Fill-158" fill="#01BCDC"></path>
                            <path d="M323.807132,224.989657 L318.169811,224.989657 C317.522906,224.989657 317,224.464823 317,223.818153 L317,218.171504 C317,217.524834 317.522906,217 318.169811,217 L323.807132,217 C324.452868,217 324.976943,217.524834 324.976943,218.171504 L324.976943,223.818153 C324.976943,224.464823 324.452868,224.989657 323.807132,224.989657" id="Fill-159" fill="#01BCDC"></path>
                            <path d="M334.808302,224.989657 L329.169811,224.989657 C328.524075,224.989657 328,224.464823 328,223.818153 L328,218.171504 C328,217.524834 328.524075,217 329.169811,217 L334.808302,217 C335.454038,217 335.978113,217.524834 335.978113,218.171504 L335.978113,223.818153 C335.978113,224.464823 335.454038,224.989657 334.808302,224.989657" id="Fill-160" fill="#01BCDC"></path>
                            <path d="M323.807132,235.989657 L318.169811,235.989657 C317.522906,235.989657 317,235.464823 317,234.818153 L317,229.171504 C317,228.524834 317.522906,228 318.169811,228 L323.807132,228 C324.452868,228 324.976943,228.524834 324.976943,229.171504 L324.976943,234.818153 C324.976943,235.464823 324.452868,235.989657 323.807132,235.989657" id="Fill-161" fill="#01BCDC"></path>
                            <path d="M334.808302,235.989657 L329.169811,235.989657 C328.524075,235.989657 328,235.464823 328,234.818153 L328,229.171504 C328,228.524834 328.524075,228 329.169811,228 L334.808302,228 C335.454038,228 335.978113,228.524834 335.978113,229.171504 L335.978113,234.818153 C335.978113,235.464823 335.454038,235.989657 334.808302,235.989657" id="Fill-162" fill="#01BCDC"></path>
                            <mask id="mask-3" fill="white">
                                <use xlink:href="#path-2"></use>
                            </mask>
                            <g id="Clip-260"></g>
                            <path d="M101.334755,120.729699 L82.7546415,138.884496 L7,138.884496 L7,88.7745858 C7,86.6893087 8.68803774,85 10.7691321,85 L22.6415472,85 L22.6415472,116.603662 C22.6415472,118.879894 24.4886792,120.729699 26.7499245,120.729699 L101.334755,120.729699 Z" id="Fill-259" fill="#053F5A" mask="url(#mask-3)"></path>
                        </g>
                        <g id="Group" transform="translate(101.000000, 83.000000)">
                            <path d="M403.090645,137.438943 C403.090645,137.438943 399.927482,134.763172 398.187473,133.025427 C396.446926,131.287145 395.975415,129.109718 395.975415,129.109718 L394.598604,114.320863 L356.240274,114.320863 L354.856996,129.115637 C354.856996,129.115637 354.381714,131.393164 352.641166,133.13037 C350.900618,134.870267 347.735839,137.509443 347.735839,137.509443 C347.735839,137.509443 344.888993,139.475908 349.161148,140.107718 C351.608154,140.470443 362.519178,140.691092 371.28712,140.691092 L379.564691,140.691092 C388.510998,140.691092 399.235035,140.445687 401.681502,140.0835 C405.953657,139.452229 403.090645,137.438943 403.090645,137.438943" id="Fill-35" fill="#002C3F"></path>
                            <path d="M291.0053,103.557504 L459.132509,103.557504 L459.132509,8.30177863 L291.0053,8.30177863 L291.0053,103.557504 Z M462.150177,0.229259542 L288.549134,0.229259542 C286.061714,0.229259542 284,2.61172901 284,5.12012977 L284,106.939351 C284,109.447752 286.061714,111.630023 288.549134,111.630023 L462.150177,111.630023 C464.638136,111.630023 466.676678,109.447752 466.676678,106.939351 L466.676678,5.12012977 C466.676678,2.61172901 464.638136,0.229259542 462.150177,0.229259542 L462.150177,0.229259542 Z" id="Fill-36" fill="#002C3F"></path>
                            <polygon id="Fill-37" fill="#C1CFD9" points="396.084806 23.9086489 440.810954 23.9086489 440.810954 14.221626 396.084806 14.221626"></polygon>
                            <polygon id="Fill-38" fill="#01BCDC" points="308.787986 23.9086489 392.85159 23.9086489 392.85159 14.221626 308.787986 14.221626"></polygon>
                            <polygon id="Fill-39" fill="#99A9B5" points="308.787986 56.7368931 440.810954 56.7368931 440.810954 28.2139924 308.787986 28.2139924"></polygon>
                            <polygon id="Fill-40" fill="#FCB414" points="308.787986 86.3361298 350.280919 86.3361298 350.280919 60.5040687 308.787986 60.5040687"></polygon>
                            <polygon id="Fill-41" fill="#F5841F" points="354.053004 86.3361298 395.545936 86.3361298 395.545936 60.5040687 354.053004 60.5040687"></polygon>
                            <polygon id="Fill-42" fill="#F05B22" points="398.779152 86.3361298 440.810954 86.3361298 440.810954 60.5040687 398.779152 60.5040687"></polygon>
                            <polygon id="Fill-43" fill="#5F5F5C" points="308.787986 90.6414733 350.280919 90.6414733 350.280919 89.0269695 308.787986 89.0269695"></polygon>
                            <polygon id="Fill-44" fill="#91928E" points="308.787986 94.4086489 337.348057 94.4086489 337.348057 92.794145 308.787986 92.794145"></polygon>
                            <polygon id="Fill-45" fill="#91928E" points="308.787986 97.6376565 342.19788 97.6376565 342.19788 96.0231527 308.787986 96.0231527"></polygon>
                            <polygon id="Fill-46" fill="#91928E" points="354.053004 94.4086489 389.618375 94.4086489 389.618375 92.794145 354.053004 92.794145"></polygon>
                            <polygon id="Fill-47" fill="#91928E" points="354.053004 97.6376565 382.613074 97.6376565 382.613074 96.0231527 354.053004 96.0231527"></polygon>
                            <polygon id="Fill-48" fill="#5F5F5C" points="354.053004 90.6414733 395.545936 90.6414733 395.545936 89.0269695 354.053004 89.0269695"></polygon>
                            <polygon id="Fill-49" fill="#91928E" points="398.779152 94.4086489 427.339223 94.4086489 427.339223 92.794145 398.779152 92.794145"></polygon>
                            <polygon id="Fill-50" fill="#91928E" points="398.779152 97.6376565 432.189046 97.6376565 432.189046 96.0231527 398.779152 96.0231527"></polygon>
                            <polygon id="Fill-51" fill="#5F5F5C" points="398.779152 90.6414733 440.810954 90.6414733 440.810954 89.0269695 398.779152 89.0269695"></polygon>
                            <polygon id="Fill-65" fill="#FFFFFF" points="445.121908 122.393382 560.439929 122.393382 560.439929 49.202542 445.121908 49.202542"></polygon>
                            <path d="M445.121908,121.855214 L559.90106,121.855214 L559.90106,50.2788779 L445.121908,50.2788779 L445.121908,121.855214 Z M567.44523,126.698725 L567.44523,46.6284847 C567.44523,44.1647519 565.322624,42.2063588 562.855141,42.2063588 L443.060194,42.2063588 C440.591095,42.2063588 438.655477,44.1647519 438.655477,46.6284847 L438.655477,126.698725 L567.44523,126.698725 L567.44523,126.698725 Z" id="Fill-66" fill="#002C3F"></path>
                            <g id="Group-4" transform="translate(592.000000, 34.000000)">
                                <polygon id="Fill-162" fill="#FFFFFF" points="4 96 54 96 54 10 4 10"></polygon>
                                <polygon id="Fill-163" fill="#01BCDC" points="7 25 50 25 50 22 7 22"></polygon>
                                <polygon id="Fill-164" fill="#99A9B5" points="7 40 50 40 50 29 7 29"></polygon>
                                <polygon id="Fill-165" fill="#FCB414" points="7 54 29 54 29 42 7 42"></polygon>
                                <polygon id="Fill-166" fill="#F5841F" points="30 54 50 54 50 42 30 42"></polygon>
                                <polygon id="Fill-167" fill="#F05B22" points="7 68 29 68 29 55 7 55"></polygon>
                                <polygon id="Fill-168" fill="#5F5F5C" points="30 61 51 61 51 59 30 59"></polygon>
                                <path d="M30,61 L44.377,61" id="Fill-169" fill="#91928E"></path>
                                <polygon id="Fill-170" fill="#91928E" points="30 63 48 63 48 62 30 62"></polygon>
                                <polygon id="Fill-171" fill="#91928E" points="30 65 45 65 45 64 30 64"></polygon>
                                <polygon id="Fill-172" fill="#91928E" points="30 66 50 66 50 65 30 65"></polygon>
                                <path d="M30,68 L44.377,68" id="Fill-173" fill="#91928E"></path>
                                <polygon id="Fill-174" fill="#91928E" points="30 69 50 69 50 68 30 68"></polygon>
                                <polygon id="Fill-175" fill="#91928E" points="30 70 45 70 45 69 30 69"></polygon>
                                <polygon id="Fill-176" fill="#91928E" points="30 71 50 71 50 70 30 70"></polygon>
                                <path d="M30,74 L44.377,74" id="Fill-177" fill="#91928E"></path>
                                <path d="M30,74 L50,74" id="Fill-178" fill="#91928E"></path>
                                <path d="M30,76 L45,76" id="Fill-179" fill="#91928E"></path>
                                <polygon id="Fill-180" fill="#91928E" points="30 78 50 78 50 77 30 77"></polygon>
                                <polygon id="Fill-181" fill="#91928E" points="30 79 45 79 45 78 30 78"></polygon>
                                <path d="M7,74 L21,74" id="Fill-182" fill="#91928E"></path>
                                <polygon id="Fill-183" fill="#91928E" points="7 76 29 76 29 75 7 75"></polygon>
                                <polygon id="Fill-184" fill="#91928E" points="7 77 21 77 21 76 7 76"></polygon>
                                <path d="M7,78 L29,78" id="Fill-185" fill="#91928E"></path>
                                <path d="M7,81 L21.377,81" id="Fill-186" fill="#91928E"></path>
                                <polygon id="Fill-187" fill="#91928E" points="7 82 29 82 29 81 7 81"></polygon>
                                <polygon id="Fill-188" fill="#91928E" points="7 84 21 84 21 83 7 83"></polygon>
                                <path d="M7,85 L28.659,85" id="Fill-189" fill="#91928E"></path>
                                <polygon id="Fill-190" fill="#91928E" points="7 86 21 86 21 85 7 85"></polygon>
                                <path d="M7,87 L21,87" id="Fill-191" fill="#91928E"></path>
                                <polygon id="Fill-192" fill="#91928E" points="7 89 29 89 29 88 7 88"></polygon>
                                <path d="M7,89 L21.232,89" id="Fill-193" fill="#91928E"></path>
                                <polygon id="Fill-194" fill="#91928E" points="7 91 29 91 29 90 7 90"></polygon>
                                <path d="M7,94 L21.377,94" id="Fill-195" fill="#91928E"></path>
                                <path d="M7,94 L28.659,94" id="Fill-196" fill="#91928E"></path>
                                <polygon id="Fill-197" fill="#91928E" points="30 80 50 80 50 79 30 79"></polygon>
                                <polygon id="Fill-198" fill="#91928E" points="30 89 45 89 45 88 30 88"></polygon>
                                <path d="M31,89 L50.802,89" id="Fill-199" fill="#91928E"></path>
                                <path d="M30,91 L45,91" id="Fill-200" fill="#91928E"></path>
                                <polygon id="Fill-201" fill="#91928E" points="30 93 50 93 50 92 30 92"></polygon>
                                <path d="M30,94 L44.377,94" id="Fill-202" fill="#91928E"></path>
                                <path d="M31,94 L50.802,94" id="Fill-203" fill="#91928E"></path>
                                <polygon id="Fill-204" fill="#FCB414" points="30 87 50 87 50 81 30 81"></polygon>
                                <path d="M30,57 L49,57" id="Fill-205" fill="#91928E"></path>
                                <polygon id="Fill-206" fill="#91928E" points="30 59 45 59 45 58 30 58"></polygon>
                                <polygon id="Fill-207" fill="#5F5F5C" points="30 56 50 56 50 55 30 55"></polygon>
                                <path d="M7,72 L21,72" id="Fill-208" fill="#91928E"></path>
                                <polygon id="Fill-209" fill="#91928E" points="7 74 24 74 24 73 7 73"></polygon>
                                <g id="Group-213">
                                    <mask id="mask-5" fill="white">
                                        <use xlink:href="#path-4"></use>
                                    </mask>
                                    <g id="Clip-211"></g>
                                    <polygon id="Fill-210" fill="#5F5F5C" mask="url(#mask-5)" points="7 71.426 29 71.426 29 70.426 7 70.426"></polygon>
                                    <path d="M53.584,95.426 L4.854,95.426 L4.753,10.426 L53.685,10.426 L53.584,95.426 Z M23.984,101.426 L34.454,101.426 C34.454,101.426 34.01,101.76 34.018,101.759 C34.209,101.785 34,102.238 34,102.676 L34,104.099 C34,104.099 34.256,105.394 32.646,105.574 C32.636,105.584 33.233,105.426 33.233,105.426 L33.111,105.426 L32.917,105.426 L25.521,105.426 L25.327,105.426 L25.205,105.426 C25.205,105.426 25.582,105.584 25.571,105.574 C23.961,105.394 24,104.099 24,104.099 L24,102.676 C24,102.223 24.005,101.778 24.256,101.757 C24.295,101.759 23.984,101.426 23.984,101.426 Z M23.662,4.426 C23.662,4.034 23.979,3.426 24.373,3.426 L34.065,3.426 C34.458,3.426 34.777,4.034 34.777,4.426 C34.777,4.819 34.458,5.426 34.065,5.426 L24.373,5.426 C23.979,5.426 23.662,4.819 23.662,4.426 Z M49.453,0.922 C49.002,0.89 49,0.86 48,0.829 L48,0.823 C42,0.254 35.256,0.063 28.881,0.102 C24.31,0.071 19,0.158 15,0.416 L15,0.51 C13,0.63 10.721,0.77 8.553,0.922 C1.383,1.424 0.842,6.698 0.909,12.757 L1.03,93.955 C0.846,100.013 0.953,106.346 8.605,106.995 C10.773,107.178 13,107.342 15,107.483 L15,107.607 C19,107.895 24.254,107.997 28.737,107.966 C35.054,108.013 42,107.792 48,107.166 L48,107.098 C49,107.063 48.977,107.031 49.412,106.995 C57.066,106.346 57.474,100.013 57.291,93.955 L57.313,12.757 C57.381,6.698 56.623,1.424 49.453,0.922 L49.453,0.922 Z" id="Fill-212" fill="#002C3F" mask="url(#mask-5)"></path>
                                </g>
                            </g>
                            <path d="M417.162677,128.621599 C417.162677,128.621599 415.886095,139.076588 420.997809,140.152924 L582.99053,140.152924 C582.99053,140.152924 590.339629,140.449454 588.741882,128.325069 L417.162677,128.621599" id="Fill-67" fill="#002C3F"></path>
                            <polygon id="Fill-68" fill="#C1CFD9" points="517.869258 64.2712443 552.89576 64.2712443 552.89576 57.2750611 517.869258 57.2750611"></polygon>
                            <polygon id="Fill-69" fill="#01BCDC" points="452.127208 64.2712443 514.636042 64.2712443 514.636042 57.2750611 452.127208 57.2750611"></polygon>
                            <polygon id="Fill-70" fill="#99A9B5" points="452.127208 89.5651374 552.89576 89.5651374 552.89576 68.0384198 452.127208 68.0384198"></polygon>
                            <polygon id="Fill-71" fill="#FCB414" points="452.127208 111.630023 483.920495 111.630023 483.920495 92.2559771 452.127208 92.2559771"></polygon>
                            <polygon id="Fill-72" fill="#F5841F" points="486.614841 111.630023 518.408127 111.630023 518.408127 92.2559771 486.614841 92.2559771"></polygon>
                            <polygon id="Fill-73" fill="#F05B22" points="520.563604 111.630023 552.89576 111.630023 552.89576 92.2559771 520.563604 92.2559771"></polygon>
                            <polygon id="Fill-74" fill="#5F5F5C" points="452.127208 115.935366 483.920495 115.935366 483.920495 114.320863 452.127208 114.320863"></polygon>
                            <polygon id="Fill-75" fill="#91928E" points="452.127208 118.088038 473.681979 118.088038 473.681979 117.011702 452.127208 117.011702"></polygon>
                            <polygon id="Fill-76" fill="#91928E" points="486.614841 118.088038 513.558304 118.088038 513.558304 117.011702 486.614841 117.011702"></polygon>
                            <polygon id="Fill-77" fill="#5F5F5C" points="486.614841 115.935366 518.408127 115.935366 518.408127 114.320863 486.614841 114.320863"></polygon>
                            <polygon id="Fill-78" fill="#91928E" points="520.563604 118.088038 542.118375 118.088038 542.118375 117.011702 520.563604 117.011702"></polygon>
                            <polygon id="Fill-79" fill="#5F5F5C" points="520.563604 115.935366 552.89576 115.935366 552.89576 114.320863 520.563604 114.320863"></polygon>
                            <path d="M6.375,125 L6.375,104 L11.0273438,104 C13.2226672,104 14.7714799,104.449214 15.6738281,105.347656 C16.5761764,106.246098 17.0273438,107.796864 17.0273438,110 L17.0273438,118.25 C17.0273438,120.554699 16.568364,122.255854 15.6503906,123.353516 C14.7324173,124.451177 13.1836046,125 11.0039062,125 L6.375,125 Z M9.375,122.75 L11.0273438,122.75 C11.5195337,122.75 11.9414045,122.705079 12.2929688,122.615234 C12.644533,122.52539 12.9296864,122.361329 13.1484375,122.123047 C13.3671886,121.884764 13.5390619,121.658204 13.6640625,121.443359 C13.7890631,121.228515 13.8769529,120.894534 13.9277344,120.441406 C13.9785159,119.988279 14.0078125,119.615236 14.015625,119.322266 C14.0234375,119.029295 14.0273438,118.574222 14.0273438,117.957031 L14.0273438,110.75 C14.0273438,110.367186 14.0253906,110.062501 14.0214844,109.835938 C14.0175781,109.609374 14.0058595,109.341798 13.9863281,109.033203 C13.9667968,108.724608 13.9375002,108.48047 13.8984375,108.300781 C13.8593748,108.121093 13.8046879,107.919923 13.734375,107.697266 C13.6640621,107.474608 13.5761724,107.300782 13.4707031,107.175781 C13.3652338,107.050781 13.2363289,106.919923 13.0839844,106.783203 C12.9316399,106.646484 12.7558604,106.544922 12.5566406,106.478516 C12.3574209,106.412109 12.1250013,106.357422 11.859375,106.314453 C11.5937487,106.271484 11.2968766,106.25 10.96875,106.25 L9.375,106.25 L9.375,122.75 Z M19.6523438,125 L19.6523438,104 L27.9023438,104 L27.9023438,106.25 L22.6523438,106.25 L22.6523438,113 L26.4023438,113 L26.4023438,115.25 L22.6523438,115.25 L22.6523438,122.75 L27.9023438,122.75 L27.9023438,125 L19.6523438,125 Z M35.2148438,125.210938 C33.3242093,125.210938 31.8808644,124.656256 30.8847656,123.546875 C29.8886669,122.437494 29.3320318,120.921885 29.2148438,119 L32.2148438,118.25 C32.363282,121.250015 33.363272,122.75 35.2148438,122.75 C36.7148513,122.75 37.4648438,122.000008 37.4648438,120.5 C37.4648438,120.054685 37.4042975,119.64258 37.2832031,119.263672 C37.1621088,118.884764 36.9765637,118.537111 36.7265625,118.220703 C36.4765612,117.904295 36.250001,117.650392 36.046875,117.458984 C35.843749,117.267577 35.566408,117.031251 35.2148438,116.75 L31.4648438,113.75 C30.7773403,113.210935 30.2285177,112.525395 29.8183594,111.693359 C29.4082011,110.861324 29.203125,109.914068 29.203125,108.851562 C29.203125,107.30468 29.6835889,106.074223 30.6445312,105.160156 C31.6054736,104.246089 32.8788983,103.789062 34.4648438,103.789062 C36.1679773,103.789062 37.5214794,104.205074 38.5253906,105.037109 C39.5293019,105.869145 40.1484363,107.046867 40.3828125,108.570312 C40.4062501,108.734376 40.4335936,108.960936 40.4648438,109.25 L37.4648438,110 C37.4570312,109.867187 37.4375002,109.66797 37.40625,109.402344 C37.2734368,108.449214 36.9746117,107.68555 36.5097656,107.111328 C36.0449196,106.537107 35.3632857,106.25 34.4648438,106.25 C33.7460902,106.25 33.1914082,106.45117 32.8007812,106.853516 C32.4101543,107.255861 32.2148438,107.816403 32.2148438,108.535156 C32.2148438,109.71485 32.7148387,110.703121 33.7148438,111.5 L37.4648438,114.5 C39.4648538,116.117196 40.4648438,118.05077 40.4648438,120.300781 C40.4648438,121.839851 39.9902391,123.042964 39.0410156,123.910156 C38.0917921,124.777348 36.8164143,125.210938 35.2148438,125.210938 Z M42.796875,125 L42.796875,104 L45.796875,104 L45.796875,125 L42.796875,125 Z M54.6328125,125.210938 C53.6718702,125.210938 52.8378942,125.07422 52.1308594,124.800781 C51.4238246,124.527342 50.8476585,124.156252 50.4023438,123.6875 C49.957029,123.218748 49.6015638,122.621097 49.3359375,121.894531 C49.0703112,121.167965 48.8867193,120.402348 48.7851562,119.597656 C48.6835932,118.792965 48.6328125,117.867193 48.6328125,116.820312 L48.6328125,111.5 C48.6328125,106.359349 50.6718546,103.789062 54.75,103.789062 C55.7265674,103.789062 56.5742152,103.935545 57.2929688,104.228516 C58.0117223,104.521486 58.5937478,104.949216 59.0390625,105.511719 C59.4843772,106.074222 59.8203114,106.732418 60.046875,107.486328 C60.2734386,108.240238 60.4062498,109.113276 60.4453125,110.105469 C60.453125,110.246094 60.4570312,110.460936 60.4570312,110.75 L57.4570312,110.75 L57.4570312,110.117188 C57.4492187,109.624998 57.4238283,109.201174 57.3808594,108.845703 C57.3378904,108.490233 57.2597662,108.140627 57.1464844,107.796875 C57.0332026,107.453123 56.8789072,107.173829 56.6835938,106.958984 C56.4882803,106.74414 56.2285172,106.572266 55.9042969,106.443359 C55.5800765,106.314452 55.1953147,106.25 54.75,106.25 C54.140622,106.25 53.6269552,106.361327 53.2089844,106.583984 C52.7910135,106.806642 52.4707042,107.130857 52.2480469,107.556641 C52.0253895,107.982424 51.867188,108.451169 51.7734375,108.962891 C51.679687,109.474612 51.6328125,110.070309 51.6328125,110.75 L51.6328125,117.5 C51.6328125,118.000002 51.6484373,118.45117 51.6796875,118.853516 C51.7109377,119.255861 51.7636715,119.666014 51.8378906,120.083984 C51.9121097,120.501955 52.0214837,120.86328 52.1660156,121.167969 C52.3105476,121.472658 52.4902333,121.748046 52.7050781,121.994141 C52.9199229,122.240236 53.1894515,122.427734 53.5136719,122.556641 C53.8378922,122.685548 54.2109354,122.75 54.6328125,122.75 C55.132815,122.75 55.5664044,122.652345 55.9335938,122.457031 C56.3007831,122.261718 56.5917958,122.009767 56.8066406,121.701172 C57.0214854,121.392577 57.1914056,121.000002 57.3164062,120.523438 C57.4414069,120.046873 57.5253904,119.574221 57.5683594,119.105469 C57.6113283,118.636716 57.6328125,118.101566 57.6328125,117.5 L57.6328125,116.75 L54.6328125,116.75 L54.6328125,114.523438 L60.6328125,114.523438 L60.6328125,125 L58.3828125,125 L57.6328125,122.75 C57.0468721,124.390633 56.0468821,125.210938 54.6328125,125.210938 Z M63.0585938,125 L63.0585938,104 L65.3085938,104 L70.5585938,116.984375 L70.5585938,104 L73.5585938,104 L73.5585938,125 L71.4257812,125 L66.0585938,111.03125 L66.0585938,125 L63.0585938,125 Z" id="Design" fill="#FFFFFF"></path>
                        </g>
                        <path d="M51.2421875,67.0625 C51.2421875,68.2187558 50.8476602,69.1080698 50.0585938,69.7304688 C49.2695273,70.3528677 48.1406323,70.6640625 46.671875,70.6640625 L45.328125,70.6640625 L45.328125,75.15625 L44,75.15625 L44,63.734375 L46.9609375,63.734375 C49.8151184,63.734375 51.2421875,64.8437389 51.2421875,67.0625 Z M45.328125,69.5234375 L46.5234375,69.5234375 C47.7005267,69.5234375 48.5520807,69.3333352 49.078125,68.953125 C49.6041693,68.5729148 49.8671875,67.9635459 49.8671875,67.125 C49.8671875,66.3697879 49.6197941,65.8072935 49.125,65.4375 C48.6302059,65.0677065 47.8593802,64.8828125 46.8125,64.8828125 L45.328125,64.8828125 L45.328125,69.5234375 Z M59.296875,75.15625 L59.296875,69.6171875 C59.296875,68.9192673 59.1380224,68.3984392 58.8203125,68.0546875 C58.5026026,67.7109358 58.0052117,67.5390625 57.328125,67.5390625 C56.4270788,67.5390625 55.7695333,67.7838517 55.3554688,68.2734375 C54.9414042,68.7630233 54.734375,69.5650986 54.734375,70.6796875 L54.734375,75.15625 L53.4375,75.15625 L53.4375,63 L54.734375,63 L54.734375,66.6796875 C54.734375,67.122398 54.7135419,67.4895819 54.671875,67.78125 L54.75,67.78125 C55.0052096,67.3697896 55.3684872,67.0455741 55.8398438,66.8085938 C56.3112003,66.5716134 56.8489553,66.453125 57.453125,66.453125 C58.5000052,66.453125 59.2851536,66.7018204 59.8085938,67.1992188 C60.3320339,67.6966171 60.59375,68.4869738 60.59375,69.5703125 L60.59375,75.15625 L59.296875,75.15625 Z M68.5234375,75.15625 L68.265625,73.9375 L68.203125,73.9375 C67.7760395,74.473961 67.3502625,74.8372386 66.9257812,75.0273438 C66.5013,75.2174489 65.9713573,75.3125 65.3359375,75.3125 C64.4869749,75.3125 63.821617,75.0937522 63.3398438,74.65625 C62.8580705,74.2187478 62.6171875,73.5963582 62.6171875,72.7890625 C62.6171875,71.0598872 63.9999862,70.1536462 66.765625,70.0703125 L68.21875,70.0234375 L68.21875,69.4921875 C68.21875,68.8203091 68.0742202,68.3242204 67.7851562,68.0039062 C67.4960923,67.6835921 67.0338573,67.5234375 66.3984375,67.5234375 C65.6848923,67.5234375 64.8776087,67.7421853 63.9765625,68.1796875 L63.578125,67.1875 C64.0000021,66.9583322 64.4622371,66.7786465 64.9648438,66.6484375 C65.4674504,66.5182285 65.9713516,66.453125 66.4765625,66.453125 C67.4974009,66.453125 68.2539038,66.6796852 68.7460938,67.1328125 C69.2382837,67.5859398 69.484375,68.312495 69.484375,69.3125 L69.484375,75.15625 L68.5234375,75.15625 Z M65.59375,74.2421875 C66.4010457,74.2421875 67.0351539,74.0208355 67.4960938,73.578125 C67.9570336,73.1354145 68.1875,72.515629 68.1875,71.71875 L68.1875,70.9453125 L66.890625,71 C65.8593698,71.0364585 65.1158877,71.1966132 64.6601562,71.4804688 C64.2044248,71.7643243 63.9765625,72.2057262 63.9765625,72.8046875 C63.9765625,73.2734398 64.1184882,73.6302071 64.4023438,73.875 C64.6861993,74.1197929 65.0833308,74.2421875 65.59375,74.2421875 Z M77.6796875,72.8203125 C77.6796875,73.6171915 77.3828155,74.2317687 76.7890625,74.6640625 C76.1953095,75.0963563 75.3619845,75.3125 74.2890625,75.3125 C73.1536402,75.3125 72.2682323,75.1328143 71.6328125,74.7734375 L71.6328125,73.5703125 C72.0442729,73.7786469 72.4856747,73.9427077 72.9570312,74.0625 C73.4283878,74.1822923 73.8828103,74.2421875 74.3203125,74.2421875 C74.9973992,74.2421875 75.5182273,74.1341157 75.8828125,73.9179688 C76.2473977,73.7018218 76.4296875,73.372398 76.4296875,72.9296875 C76.4296875,72.5963525 76.2851577,72.3111991 75.9960938,72.0742188 C75.7070298,71.8372384 75.1432334,71.5572933 74.3046875,71.234375 C73.5078085,70.9374985 72.9414079,70.6783865 72.6054688,70.4570312 C72.2695296,70.235676 72.0195321,69.9843764 71.8554688,69.703125 C71.6914054,69.4218736 71.609375,69.0859395 71.609375,68.6953125 C71.609375,67.9973923 71.8932263,67.4466166 72.4609375,67.0429688 C73.0286487,66.6393209 73.8072867,66.4375 74.796875,66.4375 C75.7187546,66.4375 76.6197873,66.6249981 77.5,67 L77.0390625,68.0546875 C76.1796832,67.7005191 75.4010452,67.5234375 74.703125,67.5234375 C74.0885386,67.5234375 73.6250016,67.6197907 73.3125,67.8125 C72.9999984,68.0052093 72.84375,68.2708316 72.84375,68.609375 C72.84375,68.8385428 72.9023432,69.0338534 73.0195312,69.1953125 C73.1367193,69.3567716 73.3255195,69.5104159 73.5859375,69.65625 C73.8463555,69.8020841 74.3463505,70.0130195 75.0859375,70.2890625 C76.1015676,70.658856 76.7877586,71.0312481 77.1445312,71.40625 C77.5013039,71.7812519 77.6796875,72.2526013 77.6796875,72.8203125 Z M83.40625,75.3125 C82.1406187,75.3125 81.1419307,74.9270872 80.4101562,74.15625 C79.6783818,73.3854128 79.3125,72.315111 79.3125,70.9453125 C79.3125,69.5650973 79.6523404,68.4687541 80.3320312,67.65625 C81.0117221,66.8437459 81.9244734,66.4375 83.0703125,66.4375 C84.1432345,66.4375 84.9921844,66.7903611 85.6171875,67.4960938 C86.2421906,68.2018264 86.5546875,69.1328067 86.5546875,70.2890625 L86.5546875,71.109375 L80.65625,71.109375 C80.6822918,72.1145884 80.9361955,72.8776016 81.4179688,73.3984375 C81.899742,73.9192734 82.5781206,74.1796875 83.453125,74.1796875 C84.3750046,74.1796875 85.2864538,73.9869811 86.1875,73.6015625 L86.1875,74.7578125 C85.7291644,74.9557302 85.295575,75.0976558 84.8867188,75.1835938 C84.4778625,75.2695317 83.9843779,75.3125 83.40625,75.3125 Z M83.0546875,67.5234375 C82.3671841,67.5234375 81.8190125,67.7473936 81.4101562,68.1953125 C81.0013,68.6432314 80.760417,69.2630169 80.6875,70.0546875 L85.1640625,70.0546875 C85.1640625,69.2369751 84.9817727,68.6106793 84.6171875,68.1757812 C84.2526023,67.7408832 83.7317742,67.5234375 83.0546875,67.5234375 Z" id="Phase" fill="#FFFFFF"></path>
                        <path d="M70.1601562,111.554688 L64.125,111.554688 L64.125,95.03125 L64.1835938,92.3164062 L64.28125,89.3476562 C63.2786408,90.3502654 62.5820332,91.0078109 62.1914062,91.3203125 L58.9101562,93.9570312 L56,90.3242188 L65.1992188,83 L70.1601562,83 L70.1601562,111.554688 Z" id="1" fill="#FFFFFF"></path>
                    </g>
                </g>
            </g>
        </g>
    </g>
</svg>