<?xml version="1.0" encoding="utf-8"?>
<!-- Generator: Adobe Illustrator 18.1.1, SVG Export Plug-In . SVG Version: 6.00 Build 0)  -->
<svg xmlns="http://www.w3.org/2000/svg" xmlns:xlink="http://www.w3.org/1999/xlink" version="1.1" x="0px" y="0px" width="295.8px" height="258.4px" viewBox="0 0 295.8 258.4" xml:space="preserve">
<g id="Layer_1">
</g>
<g id="Earth_Globe">
</g>
<g id="Language_HTML">
</g>
<g id="Php_Programmation_File_Black_Interface_Symbol">
	<g>
		<path fill="#414042" d="M175.3,86.1l-63.7,67.1c-11.2-5.2-24.8-3.2-34,6c-6.8,6.8-8.6,14.9-7.6,23.8l17.8-11.9l18,2.5l3.3,18.2    l-12.7,17.6c8.8,1,17-0.8,23.8-7.6c9.3-9.3,11.2-23.1,5.9-34.3l67.3-63.4C204.1,93.3,185.4,75.9,175.3,86.1z"/>
		<path fill="#58595B" d="M122.7,163.4l-6.8-6.8l63.4-67c3.1-3.1,7.5-0.3,9.4,1.6c1.5,1.5,2.4,3.2,2.6,4.9c0.2,1.5-0.3,2.9-1.5,4.2    L122.7,163.4z"/>
		<path fill="#BCBEC0" d="M104.8,173.4l1,0.1l3.3,18.2l-12.7,17.6c8.8,1,17-0.8,23.8-7.6c9.3-9.3,11.2-23.1,5.9-34.3l67.3-63.4    c5.6-5.6,3.2-13-1.8-17.4L104.8,173.4z"/>
		<polygon fill="#FFFFFF" points="186.3,173.9 184.4,175.8 129.9,121.3 125.3,125.8 179.8,180.3 177.8,182.3 180.6,188.7     192.9,192.9 197.3,188.6 191.7,176.2   "/>
		<polygon opacity="0.2" points="191.7,176.2 186.3,173.9 184.4,175.8 129.9,121.3 127.6,123.6 194.9,190.9 197.3,188.6   "/>
		<path fill="#F64400" d="M139.5,116.1c0.5,0.5,3,3-0.3,6.3l-12.7,12.7c-3.4,3.2-5.8,0.9-6.3,0.4l-11.3-11.3    c-0.5-0.5-1.2-2.4-0.5-3.1l16.7-16.7c0.7-0.7,2.6,0,3.1,0.5L139.5,116.1z"/>
		<path fill="#F64400" d="M125.8,101c0.7,0.7,0.7,1.9,0,2.7l-18,18c-0.7,0.7-1.9,0.7-2.7,0l-39-39c-2-2-0.8-9.2,5.1-15.1    c5.9-5.9,13.6-7.4,15.5-5.5L125.8,101z"/>
		<path fill="#FA8F66" d="M111,112.5c0.9,0.9,0.9,2.3,0,3.2l0,0c-0.9,0.9-2.3,0.9-3.2,0L70.8,78.8c-0.9-0.9-0.9-2.3,0-3.2l0,0    c0.9-0.9,2.3-0.9,3.2,0L111,112.5z"/>
		<path fill="#B93300" d="M120,103.5c0.9,0.9,0.9,2.3,0,3.2l0,0c-0.9,0.9-2.3,0.9-3.2,0L79.8,69.8c-0.9-0.9-0.9-2.3,0-3.2l0,0    c0.9-0.9,2.3-0.9,3.2,0L120,103.5z"/>
		<path fill="#18CACD" d="M123.7,236c-2.5-0.1-5-0.3-7.5-0.5l0.3-2.5c2.4,0.3,4.9,0.4,7.3,0.5L123.7,236z M131.2,236l-0.1-2.5    c2.4-0.1,4.9-0.3,7.3-0.5l0.3,2.5C136.2,235.7,133.7,235.9,131.2,236z M108.8,234.4c-2.4-0.4-4.9-1-7.3-1.6l0.6-2.4    c2.4,0.6,4.8,1.1,7.1,1.6L108.8,234.4z M146,234.4l-0.4-2.4c2.4-0.4,4.8-1,7.1-1.6l0.6,2.4C150.9,233.4,148.5,233.9,146,234.4z     M94.3,230.7c-2.4-0.8-4.7-1.7-7-2.7l1-2.3c2.2,0.9,4.5,1.8,6.8,2.6L94.3,230.7z M160.5,230.6l-0.8-2.3c2.3-0.8,4.6-1.7,6.8-2.6    l1,2.3C165.2,228.9,162.9,229.8,160.5,230.6z M80.5,224.8c-2.2-1.1-4.4-2.4-6.5-3.7l1.3-2.1c2.1,1.3,4.2,2.5,6.4,3.6L80.5,224.8z     M174.3,224.7l-1.1-2.2c2.2-1.1,4.3-2.3,6.4-3.6l1.3,2.1C178.7,222.3,176.5,223.6,174.3,224.7z M67.7,217c-2-1.4-4-3-5.9-4.6    l1.6-1.9c1.9,1.6,3.8,3.1,5.8,4.5L67.7,217z M187,216.9l-1.4-2c2-1.4,3.9-2.9,5.8-4.5l1.6,1.9C191,213.9,189.1,215.5,187,216.9z     M56.2,207.4c-1.8-1.7-3.5-3.5-5.2-5.4l1.8-1.6c1.6,1.8,3.3,3.6,5.1,5.3L56.2,207.4z M198.5,207.3l-1.7-1.8    c1.8-1.7,3.5-3.5,5.1-5.3l1.8,1.6C202.1,203.8,200.3,205.6,198.5,207.3z M46.2,196.3c-1.5-2-3-4-4.4-6.1l2.1-1.4    c1.3,2,2.8,4,4.3,5.9L46.2,196.3z M208.5,196.2l-2-1.5c1.5-1.9,2.9-3.9,4.3-5.9l2.1,1.4C211.5,192.2,210.1,194.2,208.5,196.2z     M37.9,183.8c-1.2-2.2-2.4-4.4-3.4-6.6l2.2-1.1c1,2.2,2.2,4.4,3.4,6.5L37.9,183.8z M216.8,183.7l-2.2-1.2c1.2-2.1,2.3-4.3,3.3-6.5    l2.2,1.1C219.2,179.3,218,181.5,216.8,183.7z M31.5,170.3c-0.9-2.3-1.7-4.7-2.4-7.1l2.4-0.7c0.7,2.3,1.5,4.7,2.4,6.9L31.5,170.3z     M223.2,170.1l-2.3-0.9c0.9-2.3,1.7-4.6,2.4-6.9l2.4,0.7C224.9,165.4,224.1,167.8,223.2,170.1z M27.2,156c-0.5-2.4-1-4.9-1.4-7.4    l2.4-0.4c0.4,2.4,0.8,4.8,1.3,7.2L27.2,156z M227.5,155.8l-2.4-0.5c0.5-2.4,1-4.8,1.3-7.2l2.4,0.4    C228.5,150.9,228,153.3,227.5,155.8z M25,141.1c-0.2-2.5-0.3-5-0.3-7.5l2.5,0c0,2.4,0.1,4.9,0.3,7.3L25,141.1z M229.6,140.9    l-2.5-0.2c0.2-2.4,0.3-4.9,0.3-7.3l0-0.4l2.5,0l0,0.4C229.9,135.9,229.8,138.5,229.6,140.9z M27.4,126.4l-2.5-0.2    c0.2-2.5,0.4-5,0.8-7.4l2.4,0.4C27.9,121.5,27.6,123.9,27.4,126.4z M227.2,125.7c-0.2-2.4-0.5-4.9-0.8-7.3l2.4-0.4    c0.4,2.5,0.7,5,0.8,7.4L227.2,125.7z M29.5,111.9l-2.4-0.5c0.5-2.4,1.2-4.9,1.9-7.3l2.4,0.7C30.6,107.1,30,109.5,29.5,111.9z     M225,111.3c-0.5-2.4-1.2-4.7-1.9-7.1l2.4-0.7c0.7,2.4,1.4,4.8,1.9,7.2L225,111.3z M33.7,97.9L31.4,97c0.9-2.3,1.9-4.6,2.9-6.9    l2.2,1C35.5,93.4,34.5,95.6,33.7,97.9z M220.7,97.3c-0.9-2.3-1.8-4.5-2.9-6.7l2.2-1.1c1.1,2.3,2.1,4.6,3,6.9L220.7,97.3z     M39.9,84.6l-2.2-1.2c1.2-2.2,2.5-4.3,3.9-6.4l2.1,1.4C42.3,80.4,41,82.5,39.9,84.6z M214.5,84.1c-1.2-2.1-2.5-4.2-3.8-6.2    l2.1-1.4c1.4,2.1,2.7,4.2,3.9,6.4L214.5,84.1z M206.4,72c-1.5-1.9-3.1-3.8-4.7-5.6l1.8-1.7c1.7,1.8,3.3,3.8,4.8,5.7L206.4,72z     M196.6,61.1c-1.8-1.7-3.6-3.3-5.5-4.9l1.6-1.9c1.9,1.6,3.8,3.3,5.6,5L196.6,61.1z M185.3,51.8c-2-1.4-4-2.8-6.1-4l1.3-2.1    c2.1,1.3,4.2,2.7,6.3,4.1L185.3,51.8z M81.3,44.5l-1.1-2.2c2.2-1.1,4.5-2.2,6.8-3.2l1,2.3C85.6,42.3,83.4,43.4,81.3,44.5z     M172.8,44.2c-1-0.5-1.5-1-2.7-1.5l1-2.3c1,0.4,1.7,0.7,2.8,1.6L172.8,44.2z M94.7,38.7l-0.8-2.3c2.4-0.8,4.8-1.5,7.2-2.2l0.6,2.4    C99.3,37.2,97,38,94.7,38.7z M159.3,38.5c-2.3-0.8-4.7-1.5-7-2.1l0.6-2.4c2.4,0.6,4.8,1.3,7.2,2.1L159.3,38.5z M108.8,35l-0.5-2.4    c2.4-0.5,4.9-0.8,7.4-1.1l0.3,2.5C113.6,34.2,111.2,34.6,108.8,35z M145.2,34.9c-2.4-0.4-4.8-0.8-7.2-1l0.3-2.5    c2.5,0.3,5,0.6,7.4,1.1L145.2,34.9z M123.3,33.4l-0.1-2.5c2.5-0.1,5-0.1,7.5,0l-0.1,2.5C128.2,33.3,125.8,33.3,123.3,33.4z"/>
		<path opacity="0.2" d="M251.5,185.4l-5.6,1.5l-4.1-4.1l1.4-5.6l0.1,0c-1.9-1.2-3.9-2.2-6-3l0,0.1l-3.6,4.5l-5.7-0.9l-2.1-5.4    l0.1-0.1c-2.2,0.1-4.4,0.5-6.6,1.1l0.1,0.1l-0.3,5.8l-5.1,2.7l-4.9-3.1l0-0.1c-0.9,0.7-1.8,1.5-2.6,2.4c-0.8,0.8-1.4,1.6-2.1,2.4    l0.1,0l3.2,4.8l-2.6,5.2l-5.8,0.4l-0.1-0.1c-0.6,2.2-0.9,4.4-1,6.6l0.1-0.1l5.4,2l1,5.7l-4.4,3.7l-0.1,0c0.8,2.1,1.8,4.1,3.1,5.9    l0-0.1l5.6-1.6l4.1,4l-1.4,5.6l-0.1,0c1.9,1.2,3.9,2.2,6,3l0-0.1l3.6-4.5l5.7,0.8l2.1,5.4l-0.1,0.1c2.2-0.1,4.5-0.5,6.6-1.1    l-0.1-0.1l0.2-5.8l5.1-2.7l4.9,3.1l0,0.1c0.9-0.7,1.7-1.5,2.5-2.3c0.8-0.8,1.5-1.6,2.2-2.5l-0.1,0l-3.2-4.8l2.6-5.2l5.8-0.4    l0.1,0.1c0.6-2.2,0.9-4.4,1-6.6l-0.1,0.1l-5.4-2l-1-5.7l4.4-3.7l0.1,0c-0.8-2-1.8-3.9-3-5.8L251.5,185.4z M232.2,201.8    c-0.2,2.6-2.5,4.5-5,4.3c-2.5-0.2-4.5-2.5-4.2-5c0.2-2.6,2.5-4.5,5-4.2C230.5,197,232.4,199.3,232.2,201.8z"/>
		<path fill="#F64400" d="M250.7,218.1L250.7,218.1l-3.3-4.8l2.6-5.2l5.8-0.4l0.1,0.1c0.6-2.2,0.9-4.4,1-6.6l-0.1,0.1l-5.4-2l-1-5.7    l4.4-3.7l0.1,0c-0.8-2-1.8-3.9-3-5.8l0,0.1l-5.6,1.5l-4.1-4.1l1.4-5.6l0.1,0c-1.9-1.2-3.9-2.2-6-3l0,0.1l-3.6,4.5l-5.7-0.9    l-2.1-5.4l0.1-0.1c-2.2,0.1-4.4,0.5-6.6,1.1l0.1,0.1l-0.3,5.8l-5.1,2.7l-4.9-3.1l0-0.1c-0.9,0.7-1.8,1.5-2.6,2.3    c-0.8,0.8-1.4,1.6-2.1,2.4l0.1,0l3.2,4.8l-2.6,5.2l-5.8,0.4l-0.1-0.1c-0.6,2.2-0.9,4.4-1,6.6l0.1-0.1l5.4,2l1,5.7l-4.4,3.7l-0.1,0    c0.8,2.1,1.8,4.1,3.1,5.9l0-0.1l5.6-1.6l4.1,4l-1.4,5.6l-0.1,0c1.9,1.2,3.9,2.2,6,3l0-0.1l3.6-4.5l5.7,0.8l2.1,5.4l-0.1,0.1    c2.2-0.1,4.4-0.5,6.6-1.1l-0.1-0.1l0.2-5.8l5.1-2.7l4.9,3.1l0,0.1c0.9-0.7,1.7-1.5,2.5-2.3C249.3,219.8,250.1,219,250.7,218.1z     M215.8,212.7c-6.8-6.6-6.9-17.4-0.4-24.2c6.6-6.8,17.4-6.9,24.2-0.3c6.8,6.6,6.9,17.4,0.4,24.2    C233.5,219.2,222.6,219.3,215.8,212.7z"/>
		<path fill="#ECF0F1" d="M229.2,182.8c-9.7-0.8-18.3,6.4-19.1,16.2c-0.8,9.7,6.4,18.3,16.2,19.1c9.7,0.8,18.3-6.4,19.1-16.2    C246.2,192.2,239,183.6,229.2,182.8z M227.4,205.1c-2.6-0.2-4.5-2.4-4.3-5c0.2-2.6,2.5-4.5,5-4.2c2.6,0.2,4.5,2.4,4.3,5    C232.2,203.4,230,205.3,227.4,205.1z"/>
		<path fill="#F64200" d="M229,185.6c-8.2-0.7-15.3,5.4-16,13.6c-0.7,8.2,5.4,15.3,13.6,16c8.2,0.7,15.3-5.4,16-13.6    C243.2,193.5,237.2,186.3,229,185.6z M227.4,205.1c-2.6-0.2-4.5-2.4-4.3-5c0.2-2.6,2.5-4.5,5-4.2c2.6,0.2,4.5,2.4,4.3,5    C232.2,203.4,230,205.3,227.4,205.1z"/>
		<path opacity="0.2" d="M275.9,146.9l-4.5,1.2l-3.3-3.3l1.2-4.5l0.1,0c-1.5-1-3.2-1.8-4.8-2.4l0,0.1l-2.9,3.6L257,141l-1.7-4.3    l0-0.1c-1.8,0.1-3.6,0.4-5.3,0.9l0.1,0l-0.2,4.6l-4.1,2.1l-3.9-2.5l0-0.1c-0.7,0.6-1.4,1.2-2.1,1.9c-0.6,0.6-1.2,1.3-1.7,2l0.1,0    l2.6,3.9l-2.1,4.2l-4.6,0.3l0-0.1c-0.5,1.8-0.7,3.6-0.8,5.4l0.1-0.1l4.4,1.6l0.8,4.6l-3.6,3l-0.1,0c0.6,1.7,1.5,3.3,2.5,4.8l0-0.1    l4.5-1.3l3.3,3.2l-1.2,4.5l-0.1,0c1.5,1,3.2,1.8,4.8,2.4l0-0.1l2.9-3.6l4.6,0.7l1.7,4.3l-0.1,0.1c1.8-0.1,3.6-0.4,5.3-0.9l-0.1,0    l0.2-4.6l4.1-2.2l3.9,2.5l0,0.1c0.7-0.6,1.4-1.2,2-1.9c0.6-0.6,1.2-1.3,1.7-2l-0.1,0l-2.6-3.9l2.1-4.2l4.6-0.3l0,0.1    c0.5-1.7,0.7-3.5,0.8-5.3l-0.1,0.1l-4.4-1.6l-0.8-4.6l3.6-3l0.1,0C277.7,149.9,276.9,148.3,275.9,146.9L275.9,146.9z M260.3,160.2    c-0.2,2.1-2,3.6-4,3.4c-2.1-0.2-3.6-2-3.4-4c0.2-2.1,2-3.6,4-3.4C258.9,156.4,260.4,158.2,260.3,160.2z"/>
		<path fill="#FF7B49" d="M275.2,173.5L275.2,173.5l-2.7-3.9l2.1-4.2l4.6-0.3l0,0.1c0.5-1.8,0.7-3.5,0.8-5.3L280,160l-4.4-1.6    l-0.8-4.6l3.6-3l0.1,0c-0.6-1.6-1.4-3.2-2.4-4.6l0,0.1l-4.5,1.2l-3.3-3.3l1.2-4.5l0.1,0c-1.5-1-3.2-1.8-4.8-2.4l0,0.1l-2.9,3.6    l-4.6-0.7l-1.7-4.3l0-0.1c-1.8,0.1-3.6,0.4-5.3,0.9l0.1,0l-0.2,4.6l-4.1,2.1l-3.9-2.5l0-0.1c-0.7,0.6-1.4,1.2-2.1,1.9    c-0.6,0.6-1.2,1.3-1.7,2l0.1,0l2.6,3.9l-2.1,4.2l-4.6,0.3l0-0.1c-0.5,1.8-0.7,3.6-0.8,5.4l0.1-0.1l4.3,1.6l0.8,4.6l-3.6,3l-0.1,0    c0.6,1.7,1.5,3.3,2.5,4.8l0-0.1l4.5-1.3l3.3,3.3l-1.2,4.5l-0.1,0c1.5,1,3.2,1.8,4.8,2.4l0-0.1l2.9-3.6l4.6,0.7l1.7,4.3l-0.1,0.1    c1.8-0.1,3.6-0.4,5.3-0.9l-0.1,0l0.2-4.6l4.1-2.2l3.9,2.5l0,0.1c0.7-0.6,1.4-1.2,2-1.9C274.1,174.9,274.7,174.2,275.2,173.5z     M247.1,169.1c-5.5-5.3-5.6-14.1-0.3-19.5c5.3-5.5,14.1-5.6,19.5-0.3c5.5,5.3,5.6,14.1,0.3,19.5    C261.3,174.3,252.6,174.5,247.1,169.1z"/>
		<path fill="#ECF0F1" d="M257.9,145c-7.8-0.6-14.7,5.2-15.4,13c-0.7,7.8,5.2,14.7,13,15.4c7.8,0.7,14.7-5.2,15.4-13    C271.6,152.6,265.7,145.7,257.9,145z M256.4,163c-2.1-0.2-3.6-2-3.4-4c0.2-2.1,2-3.6,4-3.4c2.1,0.2,3.6,2,3.4,4    C260.3,161.6,258.5,163.1,256.4,163z"/>
		<path fill="#FF7B49" d="M257.7,147.3c-6.6-0.5-12.4,4.4-12.9,11c-0.5,6.6,4.4,12.4,10.9,12.9c6.6,0.5,12.4-4.4,12.9-10.9    C269.2,153.6,264.3,147.8,257.7,147.3z M256.4,163c-2.1-0.2-3.6-2-3.4-4c0.2-2.1,2-3.6,4-3.4c2.1,0.2,3.6,2,3.4,4    C260.3,161.6,258.5,163.1,256.4,163z"/>
		<path fill="#FF7B49" d="M54.2,130.8c0,13.6-11,24.7-24.7,24.7c-13.6,0-24.7-11-24.7-24.7c0-13.6,11-24.7,24.7-24.7    C43.2,106.1,54.2,117.2,54.2,130.8z"/>
		<path fill="#414042" d="M177.4,231.4c0,12.9-10.4,23.3-23.3,23.3c-12.9,0-23.3-10.4-23.3-23.3c0-12.9,10.4-23.3,23.3-23.3    C167,208.1,177.4,218.5,177.4,231.4z"/>
		<path fill="#F1F2F2" d="M163,229.9c-0.1,0-0.3,0-0.3-0.1c1-1.5-1.9-4.8-6.2-3.9c-0.1,0-0.7,0.2-0.8,0.3c0,0-0.2-0.1-0.4-0.3    c-2.1-1.8-7.1-2.3-7.2,3.6c0,0-0.2,0-0.7,0c-7.1-0.3-7.4,8.6-2,8.5c0,0,12.4,0,16.6,0C166.4,238.1,169.3,231.7,163,229.9z     M152.2,227.7c-1,0.1-1.1,0.8-1,1c0,0.5-0.3,0.9-0.8,1c0,0,0,0-0.1,0c-0.5,0-0.9-0.4-0.9-0.8c-0.1-1.1,0.6-2.8,2.7-3    c0.5,0,0.9,0.3,1,0.8C153,227.2,152.7,227.7,152.2,227.7z"/>
		<path fill="#CCCCCC" d="M49.5,244.4c0.1,0.6,0.5,1,1.1,1h22c0.6,0,1-0.4,1.1-1H49.5z"/>
		<path fill="#474F59" d="M30.1,244.2H93h1.6v-39.9c0-0.9-0.7-1.6-1.6-1.6H30.1c-0.9,0-1.6,0.7-1.6,1.6v39.9H30.1z"/>
		<path fill="#B3B3B3" d="M94.6,244.3H28.5c-0.1,0-0.1-0.1-0.1-0.1v-39.9c0-1,0.8-1.8,1.8-1.8H93c1,0,1.8,0.8,1.8,1.8v39.9    C94.8,244.3,94.7,244.3,94.6,244.3z M28.6,244.1h65.8v-39.8c0-0.8-0.7-1.5-1.5-1.5H30.1c-0.8,0-1.5,0.7-1.5,1.5V244.1z"/>
		<rect x="32.6" y="206.6" fill="#30363D" width="57.9" height="33.6"/>
		<path fill="#E6E6E6" d="M100.7,244.4H73.6c-0.1,0.6-0.5,1-1.1,1h-22c-0.6,0-1-0.4-1.1-1H22.4c0,0.1,0,0.3,0,0.4v1.2    c0,2,1.6,2.1,3.6,2.1h71.2c2,0,3.6-0.1,3.6-2.1v-1.2C100.8,244.6,100.7,244.5,100.7,244.4z"/>
		<path fill="#B3B3B3" d="M97.2,248.2H25.9c-1.7,0-3.7,0-3.7-2.2v-1.2c0-0.1,0-0.2,0-0.3c0-0.1,0-0.1,0-0.2c0-0.1,0.1-0.1,0.1-0.1    h27.1c0.1,0,0.1,0.1,0.1,0.1c0.1,0.5,0.5,0.9,0.9,0.9h22c0.5,0,0.9-0.4,0.9-0.9c0-0.1,0.1-0.1,0.1-0.1h27.1c0.1,0,0.1,0.1,0.1,0.1    c0,0,0,0.1,0,0.1c0,0.1,0,0.2,0,0.3v1.2C100.9,248.2,98.8,248.2,97.2,248.2z M22.5,244.5C22.5,244.5,22.5,244.6,22.5,244.5    c0,0.1,0,0.2,0,0.3v1.2c0,1.8,1.4,1.9,3.4,1.9h71.2c2,0,3.4-0.1,3.4-1.9v-1.2c0-0.1,0-0.2,0-0.2c0,0,0,0,0,0H73.7    c-0.1,0.6-0.6,1-1.2,1h-22c-0.6,0-1.1-0.4-1.2-1H22.5z"/>
		<rect x="35.6" y="212.8" fill="#72BCC5" width="14.1" height="0.7"/>
		<rect x="51" y="212.8" fill="#D46F41" width="3.2" height="0.7"/>
		<rect x="35.6" y="210.1" fill="#D46F41" width="9.4" height="0.7"/>
		<rect x="44" y="215.5" fill="#DCE4E7" width="29.7" height="0.7"/>
		<rect x="35.6" y="215.5" fill="#EC8558" width="6.9" height="0.7"/>
		<rect x="38.6" y="218.3" fill="#DCE4E7" width="24" height="0.7"/>
		<rect x="63.9" y="218.3" fill="#D46F41" width="4.1" height="0.7"/>
		<rect x="38.6" y="221" fill="#EC8558" width="4.6" height="0.7"/>
		<rect x="38.6" y="223.7" fill="#EC8558" width="4.6" height="0.7"/>
		<rect x="44.5" y="221" fill="#72BCC5" width="25" height="0.7"/>
		<rect x="44.5" y="223.7" fill="#72BCC5" width="13.1" height="0.7"/>
		<rect x="58.6" y="223.7" fill="#DCE4E7" width="13.1" height="0.7"/>
		<rect x="44.4" y="226.4" fill="#72BCC5" width="17.4" height="0.7"/>
		<rect x="35.6" y="226.4" fill="#EC8558" width="7.7" height="0.7"/>
		<rect x="63.4" y="226.4" fill="#D46F41" width="2.4" height="0.7"/>
		<rect x="38.6" y="229.3" fill="#EC8558" width="4.6" height="0.7"/>
		<rect x="38.6" y="232" fill="#EC8558" width="4.6" height="0.7"/>
		<rect x="44.5" y="229.3" fill="#72BCC5" width="25" height="0.7"/>
		<rect x="44.5" y="232" fill="#72BCC5" width="13.1" height="0.7"/>
		<rect x="58.6" y="232" fill="#DCE4E7" width="13.1" height="0.7"/>
		<rect x="44.4" y="234.8" fill="#72BCC5" width="17.4" height="0.7"/>
		<rect x="35.6" y="234.8" fill="#EC8558" width="7.7" height="0.7"/>
		<rect x="63.4" y="234.8" fill="#D46F41" width="2.4" height="0.7"/>
		<polygon fill="#939598" points="203.2,40.3 203.2,48.1 203.2,105.3 275.1,105.1 289.9,89.8 289.9,48.1 289.9,40.3   "/>
		<polygon fill="#414042" points="290.8,88.7 290.8,39.2 204.1,39.2 204.1,104.2 276,104   "/>
		<polygon fill="#BCBEC0" points="276,88.3 276,104 290.8,88.7   "/>
		<polygon fill="#231F20" points="276.9,89.4 276,104 290.8,88.7   "/>
		<rect x="204.1" y="39.2" fill="#EC8558" width="86.7" height="7.7"/>
		<path fill="#FFFBF5" d="M286.3,43.1c0,0.9-0.7,1.6-1.6,1.6c-0.9,0-1.6-0.7-1.6-1.6c0-0.9,0.7-1.6,1.6-1.6    C285.6,41.4,286.3,42.2,286.3,43.1z"/>
		<path fill="#FFFBF5" d="M279.3,43.1c0,0.9-0.7,1.6-1.6,1.6c-0.9,0-1.6-0.7-1.6-1.6c0-0.9,0.7-1.6,1.6-1.6    C278.6,41.4,279.3,42.2,279.3,43.1z"/>
		<path fill="#FFFBF5" d="M272.3,43.1c0,0.9-0.7,1.6-1.6,1.6c-0.9,0-1.6-0.7-1.6-1.6c0-0.9,0.7-1.6,1.6-1.6    C271.6,41.4,272.3,42.2,272.3,43.1z"/>
		<rect x="211.5" y="50.7" fill="#ABB7B7" width="36.3" height="4.1"/>
		<rect x="207.1" y="69.5" fill="#EC8558" width="54.7" height="1.3"/>
		<rect x="262.5" y="69.5" fill="#72BCC5" width="4" height="1.3"/>
		<rect x="207" y="72" fill="#EC8558" width="16" height="1.3"/>
		<rect x="207" y="74.4" fill="#E84C3D" width="19.3" height="1.3"/>
		<rect x="226.8" y="74.4" fill="#E84C3D" width="9.7" height="1.3"/>
		<rect x="223.7" y="72" fill="#EC8558" width="5.2" height="1.3"/>
		<rect x="229.6" y="72" fill="#EC8558" width="15.1" height="1.3"/>
		<rect x="245.4" y="72" fill="#E84C3D" width="1.8" height="1.3"/>
		<rect x="247.6" y="72" fill="#72BCC5" width="33.3" height="1.3"/>
		<rect x="207.1" y="76.9" fill="#72BCC5" width="54.7" height="1.3"/>
		<rect x="262.5" y="76.9" fill="#72BCC5" width="4" height="1.3"/>
		<rect x="207" y="79.4" fill="#EC8558" width="16" height="1.3"/>
		<rect x="207" y="81.8" fill="#72BCC5" width="19.3" height="1.3"/>
		<rect x="226.8" y="81.8" fill="#72BCC5" width="9.7" height="1.3"/>
		<rect x="223.7" y="79.4" fill="#EC8558" width="5.2" height="1.3"/>
		<rect x="229.6" y="79.4" fill="#EC8558" width="15.1" height="1.3"/>
		<rect x="245.4" y="79.4" fill="#EC8558" width="1.8" height="1.3"/>
		<rect x="247.6" y="79.4" fill="#E84C3D" width="33.3" height="1.3"/>
		<rect x="207.1" y="84.1" fill="#EC8558" width="54.7" height="1.3"/>
		<rect x="262.5" y="84.1" fill="#EC8558" width="4" height="1.3"/>
		<rect x="207" y="86.6" fill="#E84C3D" width="16" height="1.3"/>
		<rect x="207" y="89" fill="#EC8558" width="19.3" height="1.3"/>
		<rect x="226.8" y="89" fill="#EC8558" width="9.7" height="1.3"/>
		<rect x="223.7" y="86.6" fill="#72BCC5" width="5.2" height="1.3"/>
		<rect x="229.6" y="86.6" fill="#E84C3D" width="15.1" height="1.3"/>
		<rect x="245.4" y="86.6" fill="#E84C3D" width="1.8" height="1.3"/>
		<rect x="247.6" y="86.6" fill="#72BCC5" width="33.3" height="1.3"/>
		<path fill="#FFFFFF" d="M209.4,62.6c0-0.1,0.1-0.3,0.2-0.3l2.9-1.9c0,0,0.1,0,0.1,0c0.1,0,0.3,0.1,0.3,0.3c0,0.1,0,0.1-0.1,0.2    l-2.8,1.8l2.7,1.9c0.1,0,0.1,0.1,0.1,0.2c0,0.1-0.1,0.2-0.3,0.2c-0.1,0-0.1,0-0.1-0.1c0,0-2.6-1.7-2.9-2    C209.4,62.8,209.4,62.7,209.4,62.6z"/>
		<path fill="#FFFFFF" d="M214.3,65.4c0,0.1-0.1,0.2-0.2,0.2c0,0-0.1,0-0.1,0c-0.1,0-0.2-0.1-0.2-0.2c0,0,0-0.1,0-0.1l2.7-6.1    c0.1-0.1,0.1-0.2,0.2-0.2c0,0,0.1,0,0.1,0c0.1,0,0.2,0.1,0.2,0.2c0,0,0,0.1,0,0.1L214.3,65.4z"/>
		<path fill="#FFFFFF" d="M218,59.3c0-0.2,0.2-0.4,0.4-0.4h2.2c1,0,1.8,0.8,1.8,1.8c0,1-0.8,1.8-1.8,1.8h-2.1v3    c0,0.2-0.1,0.3-0.3,0.3c-0.2,0-0.3-0.1-0.3-0.3V59.3z M220.6,61.8c0.7,0,1.3-0.6,1.3-1.3c0-0.7-0.6-1.2-1.3-1.2h-2.1v2.5H220.6z"/>
		<path fill="#FFFFFF" d="M223.4,61.7c0-0.1,0.1-0.3,0.3-0.3c0.1,0,0.3,0.1,0.3,0.3v0.3c0,0.2-0.1,0.3-0.3,0.3    c-0.2,0-0.3-0.1-0.3-0.3V61.7z M223.4,64.9c0-0.2,0.1-0.3,0.3-0.3c0.1,0,0.3,0.1,0.3,0.3v0.3c0,0.2-0.1,0.3-0.3,0.3    c-0.2,0-0.3-0.1-0.3-0.3V64.9z"/>
		<path fill="#FFFFFF" d="M226.6,59.2c0.1,0,0.1-0.1,0.2-0.1c0.2,0,0.4,0.2,0.4,0.4v5.7c0,0.2-0.1,0.3-0.3,0.3    c-0.1,0-0.3-0.1-0.3-0.3v-5.5l-1.4,1c0,0-0.1,0-0.2,0c-0.2,0-0.3-0.1-0.3-0.3c0-0.1,0.1-0.2,0.1-0.2L226.6,59.2z"/>
		<path fill="#FFFFFF" d="M228.6,64.9c0,0-0.1,0.1-0.1,0.1c-0.2,0-0.3-0.1-0.3-0.2c0-0.1,0-0.2,0.1-0.2l2.8-1.9    c-0.5-0.3-2.8-1.8-2.8-1.8c-0.1,0-0.1-0.1-0.1-0.2c0-0.2,0.1-0.3,0.3-0.3c0,0,0.1,0,0.1,0l2.9,1.9c0.1,0.1,0.2,0.2,0.2,0.3    c0,0.1-0.1,0.3-0.2,0.3C231.2,63.2,228.6,64.9,228.6,64.9z"/>
		<path fill="#074447" d="M71,35.8c-2.9-6.7-7.8-11.6-14.6-14.5c-3.4-1.4-6.9-2.2-10.6-2.2c-3.7,0-7.2,0.7-10.6,2.2    c-6.7,2.9-11.7,7.8-14.6,14.5c-1.4,3.4-2.2,6.9-2.2,10.6c0,3.7,0.7,7.3,2.2,10.7c2.9,6.7,7.9,11.7,14.6,14.6    c3.4,1.5,6.9,2.2,10.6,2.2c3.7,0,7.2-0.7,10.6-2.2c6.8-2.9,11.7-7.8,14.6-14.6c1.5-3.4,2.2-6.9,2.2-10.7    C73.2,42.7,72.5,39.2,71,35.8z M36.7,24.2c-2.4,3-4.1,6.8-5.2,11.4h-7.2C26.9,30.5,31.4,26.4,36.7,24.2z M21.7,46.4    c0-2.6,0.4-5.1,1.2-7.5h7.8c-0.4,2.5-0.6,5.1-0.6,7.5c0,2.5,0.2,4.9,0.6,7.5h-7.9C22.1,51.5,21.7,49,21.7,46.4z M24.3,57.2h7.2    c1.1,4.7,2.8,8.6,5.2,11.5C31.3,66.5,26.9,62.4,24.3,57.2z M44.1,70.2c-1.9-0.6-3.8-2-5.4-4.3c-1.6-2.3-2.9-5.2-3.8-8.7h9.2V70.2z     M44.1,53.9h-9.9c-0.4-2.7-0.6-5.2-0.6-7.5c0-2.5,0.2-5,0.7-7.5h9.9L44.1,53.9L44.1,53.9z M44.1,35.6h-9.2    c0.9-3.4,2.2-6.3,3.8-8.6c1.7-2.3,3.4-3.8,5.4-4.3V35.6z M67.3,35.6h-7.2c-1.1-4.6-2.8-8.4-5.2-11.4    C60.2,26.4,64.7,30.5,67.3,35.6z M47.5,22.7c1.9,0.5,3.7,2,5.4,4.3c1.6,2.3,2.9,5.2,3.8,8.6h-9.2V22.7z M47.5,38.9h9.9    c0.4,2.5,0.7,5,0.7,7.5c0,2.3-0.2,4.8-0.6,7.5h-9.9V38.9z M47.5,70.2v-13h9.2c-0.9,3.4-2.2,6.3-3.8,8.7    C51.3,68.3,49.5,69.7,47.5,70.2z M54.9,68.7c2.4-3,4.1-6.8,5.2-11.5h7.2C64.7,62.4,60.3,66.5,54.9,68.7z M68.7,53.9h-7.9    c0.4-2.5,0.6-5,0.6-7.5c0-2.5-0.2-5-0.6-7.5h7.8c0.8,2.4,1.2,4.9,1.2,7.5C69.9,49,69.5,51.5,68.7,53.9z"/>
		<path fill="#FFFFFF" d="M16.3,118.8v24h24.2v-24H16.3z M38.5,120.8c0,1.7,0,18.3,0,20c-1.7,0-18.5,0-20.2,0c0-1.7,0-18.3,0-20    C20,120.8,36.7,120.8,38.5,120.8z"/>
		<path fill="#FFFFFF" d="M25.8,134.2l-6.4-2.8v-1.5l6.4-2.8v1.8l-4.4,1.7l4.4,1.8V134.2z"/>
		<path fill="#FFFFFF" d="M26.3,135.5l2.3-9.6H30l-2.3,9.6H26.3z"/>
		<path fill="#FFFFFF" d="M30.6,134.2v-1.8l4.4-1.8l-4.4-1.7v-1.8l6.4,2.8v1.5C36.9,131.5,30.6,134.2,30.6,134.2z"/>
		<path fill="#0D8085" d="M145.6,15.4h8.4l-10-11.7v10C143.9,14.7,144.7,15.4,145.6,15.4z"/>
		<path fill="#13BBC1" d="M133.9,37.1V25.4c0-2.8,2.2-5,5-5h15V17h-8.4c-1.8,0-3.3-1.5-3.3-3.3v-10h-16.7c-1.8,0-3.3,1.5-3.3,3.3    v38.4c0,1.8,1.5,3.3,3.3,3.3h25.1c1.8,0,3.3-1.5,3.3-3.3v-3.3h-15C136,42.1,133.9,39.9,133.9,37.1z"/>
		<path fill="#FF7B49" d="M167.3,22h-28.4c-1.8,0-3.3,1.5-3.3,3.3v11.7c0,1.8,1.5,3.3,3.3,3.3h28.4c1.8,0,3.3-1.5,3.3-3.3V25.4    C170.6,23.5,169.1,22,167.3,22z"/>
		<path fill="#FFFFFF" d="M143.9,25.4h-5v3.3v8.4h1.7v-5h3.3c1.8,0,3.3-1.5,3.3-3.3C147.2,26.9,145.7,25.4,143.9,25.4z M143.9,30.4    h-3.3V27h3.3c1,0,1.7,0.7,1.7,1.7C145.6,29.7,144.9,30.4,143.9,30.4z"/>
		<path fill="#FFFFFF" d="M163.9,25.4h-5v3.3v8.4h1.7v-5h3.3c1.8,0,3.3-1.5,3.3-3.3C167.3,26.9,165.8,25.4,163.9,25.4z M163.9,30.4    h-3.3V27h3.3c1,0,1.7,0.7,1.7,1.7C165.6,29.7,164.9,30.4,163.9,30.4z"/>
		<polygon fill="#FFFFFF" points="157.2,37.1 155.6,37.1 155.6,32.1 150.6,32.1 150.6,37.1 148.9,37.1 148.9,25.4 150.6,25.4     150.6,30.4 155.6,30.4 155.6,25.4 157.2,25.4   "/>
	</g>
</g>
<g id="Nerd_Male_Profile_Avatar">
</g>
<g id="Nerd_Man_With_Curly_Hair_And_Circular_Eyeglasses_Avatar">
</g>
</svg>
