<?xml version="1.0" encoding="utf-8"?>
<!-- Generator: Adobe Illustrator 19.0.0, SVG Export Plug-In . SVG Version: 6.00 Build 0)  -->
<!DOCTYPE svg PUBLIC "-//W3C//DTD SVG 1.1//EN" "http://www.w3.org/Graphics/SVG/1.1/DTD/svg11.dtd">
<svg version="1.1" id="Layer_1" xmlns="http://www.w3.org/2000/svg" xmlns:xlink="http://www.w3.org/1999/xlink" x="0px" y="0px"
	 width="449px" height="456.9px" viewBox="91 -93.2 449 456.9" style="enable-background:new 91 -93.2 449 456.9;"
	 xml:space="preserve">
<style type="text/css">
	.st0{fill:#BFE9F3;}
	.st1{fill:#939390;}
	.st2{fill:#5D5E59;}
	.st3{fill:#00A6CF;}
	.st4{fill:#40BCDB;}
	.st5{fill:#272822;}
	.st6{fill:#FFFFFF;}
	.st7{font-family:'MuseoSansRounded-700';}
	.st8{font-size:43.0989px;}
	.st9{fill:#FF9B42;}
	.st10{fill:#CCEDF5;}
</style>
<ellipse class="st0" cx="314.9" cy="133.3" rx="212.3" ry="212.5"/>
<g>
	
		<image style="overflow:visible;opacity:0.35;enable-background:new    ;" width="971" height="758" xlink:href="4D20883EAF76B611.png"  transform="matrix(0.4604 0 0 0.4607 91.4239 -46.6693)">
	</image>
	<g>
		<path class="st1" d="M515.2-34.6H114.5c-6.6,0-12,5.4-12,12v219.6v29.6c0,6.6,5.4,12,12,12h150.2v31.9h-40c-2.9,0-5.4,0.4-5.4,1
			V290h191.1v-18.5c0-0.6-2.5-1-5.4-1h-40v-31.9h150.2c6.6,0,12-5.4,12-12v-29.6V-22.6C527.2-29.2,521.8-34.6,515.2-34.6z"/>
	</g>
</g>
<rect x="264.7" y="211.9" class="st2" width="100.6" height="73.4"/>
<path class="st2" d="M527.2-22.6c0-6.6-5.4-12-12-12H114.5c-6.6,0-12,5.4-12,12v219.6h424.6V-22.6z"/>
<path class="st2" d="M410.4,271.6c0-0.6-2.5-1-5.4-1H224.7c-2.9,0-5.4,0.4-5.4,1v18.5h191.1V271.6z"/>
<rect x="133.6" y="-1.2" class="st3" width="179.5" height="48.5"/>
<rect x="133.6" y="127.1" class="st3" width="179.5" height="48.5"/>
<rect x="133.6" y="47.3" class="st4" width="89.8" height="99.5"/>
<rect x="223.4" y="47.3" class="st0" width="89.8" height="99.5"/>
<path class="st1" d="M114.5,238.8h400.7c6.6,0,12-5.4,12-12v-29.8H102.6v29.6C102.6,233.4,108,238.8,114.5,238.8z"/>
<rect x="313.1" y="-1.2" class="st5" width="179.5" height="176.6"/>
<text transform="matrix(0.9992 0 0 1 349.0449 51.2355)" class="st6 st7 st8">&lt;</text>
<text transform="matrix(0.9992 0 0 1 375.6816 51.2355)" class="st9 st7 st8">---</text>
<text transform="matrix(0.9992 0 0 1 429.5352 51.2355)" class="st6 st7 st8">&gt;</text>
<text transform="matrix(0.9992 0 0 1 349.0449 97.9855)" class="st6 st7 st8">------</text>
<text transform="matrix(0.9992 0 0 1 349.0449 144.7355)" class="st6 st7 st8">&lt;</text>
<text transform="matrix(0.9992 0 0 1 375.6816 144.7355)" class="st9 st7 st8">/--</text>
<text transform="matrix(0.9992 0 0 1 429.1475 144.7355)" class="st6 st7 st8">&gt;</text>
<g>
	<path class="st6" d="M158.9,9.7c-7.5,0-13.5,6-13.5,13.5c0,3.5,1.4,6.6,3.5,8.9v-8.9c0-5.6,4.4-10,10-10s10,4.4,10,10
		s-4.4,10-10,10c-2.7,0-5.2-1.2-7.1-2.9v4.4c2.1,1.4,4.4,2.1,7.1,2.1c7.5,0,13.5-6,13.5-13.5S166.4,9.7,158.9,9.7z"/>
	<path class="st6" d="M158.9,30.3c3.9,0,7.1-3.3,7.1-7.1s-3.3-7.1-7.1-7.1s-7.1,3.3-7.1,7.1S155.1,30.3,158.9,30.3z M158.9,19.1
		c2.3,0,4.1,1.7,4.1,4.1s-1.7,4.1-4.1,4.1s-4.1-1.7-4.1-4.1S156.8,19.1,158.9,19.1z"/>
</g>
<g>
	
		<image style="overflow:visible;opacity:0.35;enable-background:new    ;" width="242" height="367" xlink:href="4D20883EAF76B613.png"  transform="matrix(0.453 0 0 0.4534 133.8134 152.6331)">
	</image>
	<g>
		<path class="st5" d="M228,307.4h-78.8c-1.9,0-3.5-1.5-3.5-3.5V167.3c0-1.9,1.5-3.5,3.5-3.5H228c1.9,0,3.5,1.5,3.5,3.5v136.6
			C231.5,305.8,229.9,307.4,228,307.4z"/>
	</g>
</g>
<rect x="156.8" y="177.7" class="st2" width="63.9" height="109.7"/>
<rect x="156.8" y="177.7" class="st3" width="63.9" height="27.2"/>
<rect x="156.8" y="205" class="st4" width="63.9" height="45.8"/>
<rect x="156.8" y="250.9" class="st0" width="63.9" height="36.7"/>
<text transform="matrix(0.9992 0 0 1 197.0874 203.6252)" class="st10 st7 st8">-</text>
<text transform="matrix(0.9992 0 0 1 219.3906 36.466)" class="st10 st7 st8">- - - </text>
<g>
	<path class="st6" d="M170.7,181.8c-5.4,0-9.7,4.2-9.7,9.7c0,2.5,1,4.6,2.5,6.4v-6.4c0-4.1,3.3-7.1,7.1-7.1s7.1,3.3,7.1,7.1
		c0,4.1-3.3,7.1-7.1,7.1c-1.9,0-3.9-0.8-5-2.1v3.1c1.5,1,3.3,1.5,5,1.5c5.4,0,9.7-4.2,9.7-9.7C180.3,186,176.1,181.8,170.7,181.8z"
		/>
	<path class="st6" d="M170.7,196.5c2.9,0,5-2.3,5-5c0-2.9-2.3-5-5-5c-2.9,0-5,2.3-5,5C165.7,194.2,168,196.5,170.7,196.5z
		 M170.7,188.6c1.5,0,2.9,1.4,2.9,2.9c0,1.5-1.4,2.9-2.9,2.9c-1.5,0-2.9-1.4-2.9-2.9C167.8,189.7,169.1,188.6,170.7,188.6z"/>
</g>
</svg>
