<svg id="Layer_1" data-name="Layer 1" xmlns="http://www.w3.org/2000/svg" viewBox="0 0 500 287.07">
  <defs>
    <style>
      .cls-1, .cls-2 {
        fill: #059498;
      }

      .cls-1 {
        opacity: 0.3;
      }

      .cls-2 {
        opacity: 0.4;
      }

      .cls-3 {
        fill: #f5f9e2;
      }

      .cls-4 {
        fill: #fdcf9d;
      }

      .cls-5 {
        fill: #5b849f;
      }

      .cls-6 {
        fill: #326587;
      }

      .cls-7 {
        fill: #bdced9;
      }

      .cls-8 {
        fill: #132633;
      }

      .cls-9 {
        fill: #264c65;
      }

      .cls-10 {
        fill: #b7e0e2;
      }

      .cls-11 {
        fill: #7c9db2;
      }

      .cls-12 {
        fill: #9ea5ac;
      }

      .cls-13 {
        fill: #ebf0f4;
      }

      .cls-14 {
        fill: #fba28a;
      }

      .cls-15 {
        fill: #fa8363;
      }

      .cls-16 {
        fill: #e6cddb;
      }

      .cls-17 {
        fill: #9ba1ab;
      }

      .cls-18 {
        fill: #84a3b7;
      }

      .cls-19 {
        fill: #6adce0;
      }

      .cls-20 {
        fill: #fddad0;
      }

      .cls-21 {
        fill: #dee6ec;
      }

      .cls-22 {
        fill: #3b3c3d;
        opacity: 0.35;
      }

      .cls-23 {
        fill: #fafbfa;
      }

      .cls-24 {
        fill: #2c130b;
      }

      .cls-25 {
        fill: #0f0f0f;
      }

      .cls-26 {
        fill: #f9643c;
      }

      .cls-27 {
        fill: #382d26;
      }

      .cls-28 {
        fill: #fdd9b1;
      }

      .cls-29 {
        fill: #b04c2c;
      }

      .cls-30 {
        fill: #0c1f2f;
      }

      .cls-31 {
        fill: #e2f3f3;
      }
    </style>
  </defs>
  <title>development</title>
  <rect class="cls-1" y="250.52" width="500" height="36.55"/>
  <polygon class="cls-2" points="358.21 266.1 155.02 266.1 163.56 257.99 349.8 257.99 358.21 266.1"/>
  <path class="cls-3" d="M277,189.47" transform="translate(0 -12.93)"/>
  <path class="cls-4" d="M255,153.77h0.11" transform="translate(0 -12.93)"/>
  <path class="cls-4" d="M255,149.42c0-.3,0-0.61,0-0.92C255,148.81,255,149.12,255,149.42Z" transform="translate(0 -12.93)"/>
  <rect class="cls-5" x="164.11" y="188.12" width="3.05" height="70.07"/>
  <rect class="cls-5" x="346.21" y="187.91" width="3.05" height="70.27"/>
  <rect class="cls-6" x="318.83" y="189.72" width="37.37" height="17.34"/>
  <rect class="cls-6" x="318.83" y="207.48" width="37.37" height="17.34"/>
  <rect class="cls-6" x="318.83" y="225.71" width="37.37" height="17.34"/>
  <rect class="cls-5" x="319.48" y="242.98" width="37.65" height="1.71"/>
  <polygon class="cls-6" points="312.73 236.59 312.73 187.98 318.02 187.98 318.02 244.69 312.73 236.59"/>
  <rect class="cls-5" x="355.16" y="187.91" width="3.05" height="78.12"/>
  <rect class="cls-5" x="319.48" y="207.01" width="37.65" height="1.72"/>
  <rect class="cls-5" x="319.48" y="224.63" width="37.65" height="1.71"/>
  <rect class="cls-5" x="155.02" y="187.91" width="203.19" height="3.05"/>
  <polygon class="cls-7" points="358.21 188.1 155.02 188.1 163.56 179.99 349.8 179.99 358.21 188.1"/>
  <path class="cls-5" d="M333.83,204a4,4,0,0,0,8,0s0-.09,0-0.14h-8S333.83,204,333.83,204Z" transform="translate(0 -12.93)"/>
  <path class="cls-5" d="M333.83,221.81a4,4,0,0,0,8,0s0-.09,0-0.14h-8S333.83,221.76,333.83,221.81Z" transform="translate(0 -12.93)"/>
  <path class="cls-5" d="M333.83,239.46a4,4,0,1,0,8,0s0-.09,0-0.14h-8S333.83,239.42,333.83,239.46Z" transform="translate(0 -12.93)"/>
  <rect class="cls-5" x="317.58" y="189.08" width="3.05" height="55.62"/>
  <rect class="cls-5" x="241.45" y="167.72" width="27.11" height="13.74"/>
  <rect class="cls-8" x="241.45" y="167.72" width="27.11" height="5.68"/>
  <path class="cls-9" d="M311.25,180a3.06,3.06,0,0,1-2.93,3.18H201.71a3.06,3.06,0,0,1-2.93-3.18V106.89a3.06,3.06,0,0,1,2.93-3.18H308.32a3.06,3.06,0,0,1,2.93,3.18V180Z" transform="translate(0 -12.93)"/>
  <rect class="cls-10" x="201.95" y="94.49" width="106.13" height="65.43"/>
  <path class="cls-3" d="M255,195.89" transform="translate(0 -12.93)"/>
  <rect class="cls-11" x="233.61" y="180.9" width="42.8" height="1.69"/>
  <polygon class="cls-12" points="284.97 186.53 218.9 186.53 219.85 183.69 284.07 183.69 284.97 186.53"/>
  <polygon class="cls-9" points="218.9 185.16 219.85 183.69 284.07 183.69 284.97 185.16 218.9 185.16"/>
  <rect class="cls-5" x="218.9" y="185.16" width="66.07" height="1.38"/>
  <rect class="cls-5" x="155.02" y="188.73" width="3.05" height="77.29"/>
  <g>
    <path class="cls-13" d="M428.1,169.92a1.8,1.8,0,0,1-1.78,1.83H340.38a1.8,1.8,0,0,1-1.78-1.83V99a1.8,1.8,0,0,1,1.78-1.83h85.94A1.8,1.8,0,0,1,428.1,99v70.92Z" transform="translate(0 -12.93)"/>
    <path class="cls-14" d="M428.1,98.95a1.78,1.78,0,0,0-1.78-1.78H340.38a1.78,1.78,0,0,0-1.78,1.78v6.59H428.1V98.95Z" transform="translate(0 -12.93)"/>
    <rect class="cls-15" x="350.67" y="100.16" width="55.44" height="2.07"/>
    <rect class="cls-16" x="350.67" y="104.46" width="47.7" height="2.07"/>
    <rect class="cls-17" x="350.67" y="113.34" width="21.78" height="2.07"/>
    <rect class="cls-18" x="353.55" y="117.79" width="15.3" height="2.07"/>
    <rect class="cls-19" x="356.12" y="122.34" width="31.63" height="2.07"/>
    <rect class="cls-17" x="358.82" y="131.12" width="31.63" height="2.07"/>
    <rect class="cls-19" x="356.12" y="135.67" width="22.19" height="2.07"/>
    <rect class="cls-17" x="356.12" y="140.12" width="22.19" height="2.07"/>
    <rect class="cls-17" x="359.36" y="144.45" width="14.76" height="2.07"/>
    <rect class="cls-18" x="350.72" y="148.93" width="12.33" height="2.08"/>
    <rect class="cls-17" x="390.41" y="148.93" width="8.82" height="2.08"/>
    <rect class="cls-19" x="364.48" y="148.93" width="23.54" height="2.08"/>
    <rect class="cls-19" x="375.56" y="144.45" width="37.84" height="2.07"/>
    <rect class="cls-16" x="379.74" y="140.12" width="14.22" height="2.07"/>
    <rect class="cls-17" x="380.82" y="135.67" width="22.18" height="2.07"/>
    <rect class="cls-17" x="390.13" y="122.34" width="13.55" height="2.07"/>
    <rect class="cls-17" x="370.69" y="117.79" width="13.86" height="2.07"/>
    <rect class="cls-17" x="387.75" y="117.79" width="12.6" height="2.07"/>
    <rect class="cls-17" x="374.61" y="113.34" width="22.14" height="2.07"/>
    <rect class="cls-17" x="358.77" y="126.79" width="21.78" height="2.07"/>
    <rect class="cls-19" x="382.71" y="126.79" width="22.14" height="2.07"/>
    <rect class="cls-18" x="350.67" y="108.75" width="42.84" height="2.08"/>
    <path class="cls-20" d="M347.71,101.52a2.66,2.66,0,0,1-2.66,2.66h0a2.65,2.65,0,0,1-2.65-2.66h0a2.65,2.65,0,0,1,2.65-2.65h0a2.66,2.66,0,0,1,2.66,2.65h0Z" transform="translate(0 -12.93)"/>
    <path class="cls-20" d="M355.49,101.52a2.66,2.66,0,0,1-2.66,2.66h0a2.65,2.65,0,0,1-2.65-2.66h0a2.65,2.65,0,0,1,2.65-2.65h0a2.65,2.65,0,0,1,2.66,2.65h0Z" transform="translate(0 -12.93)"/>
    <path class="cls-20" d="M363.27,101.52a2.66,2.66,0,0,1-2.66,2.66h0a2.65,2.65,0,0,1-2.65-2.66h0a2.65,2.65,0,0,1,2.65-2.65h0a2.65,2.65,0,0,1,2.66,2.65h0Z" transform="translate(0 -12.93)"/>
  </g>
  <g>
    <path class="cls-21" d="M142.83,159.77a1.8,1.8,0,0,1-1.78,1.83H55.12a1.8,1.8,0,0,1-1.78-1.83V88.85A1.8,1.8,0,0,1,55.12,87h85.94a1.8,1.8,0,0,1,1.78,1.82v70.92Z" transform="translate(0 -12.93)"/>
    <path class="cls-6" d="M142.83,88.8A1.78,1.78,0,0,0,141.05,87H55.12a1.78,1.78,0,0,0-1.78,1.78v6.59h89.49V88.8Z" transform="translate(0 -12.93)"/>
    <rect class="cls-15" x="65.4" y="90.01" width="55.44" height="2.07"/>
    <rect class="cls-16" x="65.4" y="94.31" width="47.7" height="2.07"/>
    <rect class="cls-17" x="65.4" y="103.2" width="21.78" height="2.07"/>
    <rect class="cls-18" x="68.28" y="107.64" width="15.3" height="2.07"/>
    <rect class="cls-19" x="70.85" y="112.2" width="31.63" height="2.07"/>
    <rect class="cls-17" x="73.55" y="120.97" width="31.63" height="2.07"/>
    <rect class="cls-19" x="70.85" y="125.53" width="22.19" height="2.07"/>
    <rect class="cls-17" x="70.85" y="129.97" width="22.19" height="2.07"/>
    <rect class="cls-17" x="74.09" y="134.3" width="14.76" height="2.07"/>
    <rect class="cls-18" x="65.45" y="138.78" width="12.33" height="2.07"/>
    <rect class="cls-17" x="105.14" y="138.78" width="8.82" height="2.07"/>
    <rect class="cls-19" x="79.22" y="138.78" width="23.54" height="2.07"/>
    <rect class="cls-19" x="90.29" y="134.3" width="37.84" height="2.07"/>
    <rect class="cls-16" x="94.47" y="129.97" width="14.22" height="2.07"/>
    <rect class="cls-17" x="95.55" y="125.53" width="22.18" height="2.07"/>
    <rect class="cls-17" x="104.87" y="112.2" width="13.55" height="2.07"/>
    <rect class="cls-17" x="85.43" y="107.64" width="13.86" height="2.07"/>
    <rect class="cls-17" x="102.48" y="107.64" width="12.6" height="2.07"/>
    <rect class="cls-17" x="89.34" y="103.2" width="22.14" height="2.07"/>
    <rect class="cls-17" x="73.5" y="116.64" width="21.78" height="2.07"/>
    <rect class="cls-19" x="97.44" y="116.64" width="22.14" height="2.07"/>
    <rect class="cls-18" x="65.4" y="98.6" width="42.84" height="2.08"/>
    <path class="cls-18" d="M62.45,91.37A2.65,2.65,0,0,1,59.79,94h0a2.65,2.65,0,0,1-2.65-2.66h0a2.65,2.65,0,0,1,2.65-2.65h0a2.65,2.65,0,0,1,2.65,2.65h0Z" transform="translate(0 -12.93)"/>
    <path class="cls-18" d="M70.23,91.37A2.66,2.66,0,0,1,67.57,94h0a2.66,2.66,0,0,1-2.65-2.66h0a2.65,2.65,0,0,1,2.65-2.65h0a2.65,2.65,0,0,1,2.66,2.65h0Z" transform="translate(0 -12.93)"/>
    <path class="cls-18" d="M78,91.37A2.65,2.65,0,0,1,75.35,94h0a2.65,2.65,0,0,1-2.65-2.66h0a2.65,2.65,0,0,1,2.65-2.65h0A2.65,2.65,0,0,1,78,91.37h0Z" transform="translate(0 -12.93)"/>
  </g>
  <g>
    <path class="cls-13" d="M348.95,94.94a1.63,1.63,0,0,1-1.6,1.65H269.8a1.63,1.63,0,0,1-1.6-1.65v-64a1.63,1.63,0,0,1,1.6-1.65h77.54a1.63,1.63,0,0,1,1.6,1.65v64Z" transform="translate(0 -12.93)"/>
    <path class="cls-14" d="M348.95,30.89a1.6,1.6,0,0,0-1.6-1.6H269.8a1.6,1.6,0,0,0-1.6,1.6v5.95h80.75V30.89Z" transform="translate(0 -12.93)"/>
    <rect class="cls-15" x="279.08" y="30.73" width="50.03" height="1.87"/>
    <rect class="cls-16" x="279.08" y="34.6" width="43.04" height="1.87"/>
    <rect class="cls-17" x="279.08" y="42.62" width="19.65" height="1.87"/>
    <rect class="cls-18" x="281.68" y="46.63" width="13.81" height="1.87"/>
    <rect class="cls-19" x="283.99" y="50.74" width="28.55" height="1.87"/>
    <rect class="cls-17" x="286.43" y="58.66" width="28.54" height="1.87"/>
    <rect class="cls-19" x="283.99" y="62.77" width="20.02" height="1.87"/>
    <rect class="cls-17" x="283.99" y="66.78" width="20.02" height="1.87"/>
    <rect class="cls-17" x="286.92" y="70.69" width="13.32" height="1.87"/>
    <rect class="cls-18" x="279.12" y="74.73" width="11.12" height="1.87"/>
    <rect class="cls-17" x="314.93" y="74.73" width="7.96" height="1.87"/>
    <rect class="cls-19" x="291.54" y="74.73" width="21.24" height="1.87"/>
    <rect class="cls-19" x="301.54" y="70.69" width="34.15" height="1.87"/>
    <rect class="cls-16" x="305.31" y="66.78" width="12.83" height="1.87"/>
    <rect class="cls-17" x="306.29" y="62.77" width="20.02" height="1.87"/>
    <rect class="cls-17" x="314.69" y="50.74" width="12.22" height="1.87"/>
    <rect class="cls-17" x="297.15" y="46.63" width="12.51" height="1.87"/>
    <rect class="cls-17" x="312.54" y="46.63" width="11.37" height="1.87"/>
    <rect class="cls-17" x="300.68" y="42.62" width="19.98" height="1.87"/>
    <rect class="cls-17" x="286.39" y="54.75" width="19.65" height="1.87"/>
    <rect class="cls-19" x="307.99" y="54.75" width="19.98" height="1.87"/>
    <rect class="cls-18" x="279.08" y="38.48" width="38.66" height="1.87"/>
    <path class="cls-20" d="M276.41,33.21a2.4,2.4,0,0,1-2.39,2.4h0a2.4,2.4,0,0,1-2.4-2.4h0a2.39,2.39,0,0,1,2.4-2.39h0a2.39,2.39,0,0,1,2.39,2.39h0Z" transform="translate(0 -12.93)"/>
    <path class="cls-20" d="M283.43,33.21a2.4,2.4,0,0,1-2.4,2.4h0a2.4,2.4,0,0,1-2.39-2.4h0A2.39,2.39,0,0,1,281,30.82h0a2.4,2.4,0,0,1,2.4,2.39h0Z" transform="translate(0 -12.93)"/>
    <path class="cls-20" d="M290.45,33.21a2.4,2.4,0,0,1-2.4,2.4h0a2.4,2.4,0,0,1-2.4-2.4h0a2.39,2.39,0,0,1,2.4-2.39h0a2.39,2.39,0,0,1,2.4,2.39h0Z" transform="translate(0 -12.93)"/>
  </g>
  <g>
    <path class="cls-13" d="M144.19,159.4a1.82,1.82,0,0,1-1.8,1.85H55.52a1.82,1.82,0,0,1-1.8-1.85V87.71a1.82,1.82,0,0,1,1.8-1.85h86.86a1.82,1.82,0,0,1,1.8,1.85V159.4Z" transform="translate(0 -12.93)"/>
    <path class="cls-14" d="M144.19,87.66a1.8,1.8,0,0,0-1.8-1.8H55.52a1.8,1.8,0,0,0-1.8,1.8v6.66h90.46V87.66Z" transform="translate(0 -12.93)"/>
    <rect class="cls-15" x="65.92" y="89.03" width="56.04" height="2.1"/>
    <rect class="cls-16" x="65.92" y="93.37" width="48.21" height="2.1"/>
    <rect class="cls-17" x="65.92" y="102.35" width="22.02" height="2.1"/>
    <rect class="cls-18" x="68.83" y="106.85" width="15.47" height="2.1"/>
    <rect class="cls-19" x="71.42" y="111.45" width="31.98" height="2.1"/>
    <rect class="cls-17" x="74.16" y="120.32" width="31.98" height="2.1"/>
    <rect class="cls-19" x="71.42" y="124.93" width="22.43" height="2.1"/>
    <rect class="cls-17" x="71.42" y="129.42" width="22.43" height="2.1"/>
    <rect class="cls-17" x="74.7" y="133.8" width="14.92" height="2.1"/>
    <rect class="cls-18" x="65.97" y="138.33" width="12.46" height="2.1"/>
    <rect class="cls-17" x="106.09" y="138.33" width="8.92" height="2.1"/>
    <rect class="cls-19" x="79.88" y="138.33" width="23.79" height="2.1"/>
    <rect class="cls-19" x="91.08" y="133.8" width="38.25" height="2.1"/>
    <rect class="cls-16" x="95.31" y="129.42" width="14.37" height="2.1"/>
    <rect class="cls-17" x="96.4" y="124.93" width="22.42" height="2.1"/>
    <rect class="cls-17" x="105.81" y="111.45" width="13.69" height="2.1"/>
    <rect class="cls-17" x="86.16" y="106.85" width="14.01" height="2.1"/>
    <rect class="cls-17" x="103.4" y="106.85" width="12.74" height="2.1"/>
    <rect class="cls-17" x="90.12" y="102.35" width="22.38" height="2.1"/>
    <rect class="cls-17" x="74.11" y="115.94" width="22.02" height="2.1"/>
    <rect class="cls-19" x="98.31" y="115.94" width="22.38" height="2.1"/>
    <rect class="cls-18" x="65.92" y="97.71" width="43.3" height="2.1"/>
    <path class="cls-20" d="M62.93,90.26a2.68,2.68,0,0,1-2.68,2.68h0a2.68,2.68,0,0,1-2.68-2.68h0a2.68,2.68,0,0,1,2.68-2.68h0a2.68,2.68,0,0,1,2.68,2.68h0Z" transform="translate(0 -12.93)"/>
    <path class="cls-20" d="M70.8,90.26a2.68,2.68,0,0,1-2.68,2.68h0a2.68,2.68,0,0,1-2.68-2.68h0a2.68,2.68,0,0,1,2.68-2.68h0a2.68,2.68,0,0,1,2.68,2.68h0Z" transform="translate(0 -12.93)"/>
    <path class="cls-20" d="M78.66,90.26A2.68,2.68,0,0,1,76,92.95h0a2.68,2.68,0,0,1-2.68-2.68h0A2.68,2.68,0,0,1,76,87.58h0a2.68,2.68,0,0,1,2.68,2.68h0Z" transform="translate(0 -12.93)"/>
  </g>
  <path class="cls-22" d="M404.64,57.11H318.7a1.78,1.78,0,0,0-1.78,1.78v71a1.8,1.8,0,0,0,1.78,1.83h85.94a1.8,1.8,0,0,0,1.78-1.83v-71A1.78,1.78,0,0,0,404.64,57.11Z" transform="translate(0 -12.93)"/>
  <g>
    <path class="cls-23" d="M404.35,127.8a1.8,1.8,0,0,1-1.78,1.83H316.64a1.8,1.8,0,0,1-1.78-1.83V56.88A1.8,1.8,0,0,1,316.64,55h85.94a1.8,1.8,0,0,1,1.78,1.83V127.8Z" transform="translate(0 -12.93)"/>
    <path class="cls-14" d="M404.35,56.83A1.78,1.78,0,0,0,402.57,55H316.64a1.78,1.78,0,0,0-1.78,1.78v6.59h89.49V56.83Z" transform="translate(0 -12.93)"/>
    <rect class="cls-15" x="326.92" y="58.04" width="55.44" height="2.07"/>
    <rect class="cls-16" x="326.92" y="62.34" width="47.7" height="2.07"/>
    <rect class="cls-17" x="326.92" y="71.22" width="21.78" height="2.07"/>
    <rect class="cls-18" x="329.8" y="75.67" width="15.3" height="2.07"/>
    <rect class="cls-19" x="332.37" y="80.22" width="31.63" height="2.07"/>
    <rect class="cls-17" x="335.07" y="89" width="31.63" height="2.07"/>
    <rect class="cls-19" x="332.37" y="93.55" width="22.19" height="2.07"/>
    <rect class="cls-17" x="332.37" y="98" width="22.19" height="2.07"/>
    <rect class="cls-17" x="335.61" y="102.33" width="14.76" height="2.07"/>
    <rect class="cls-18" x="326.97" y="106.81" width="12.33" height="2.07"/>
    <rect class="cls-17" x="366.66" y="106.81" width="8.82" height="2.07"/>
    <rect class="cls-19" x="340.74" y="106.81" width="23.54" height="2.07"/>
    <rect class="cls-19" x="351.81" y="102.33" width="37.84" height="2.07"/>
    <rect class="cls-16" x="356" y="98" width="14.22" height="2.07"/>
    <rect class="cls-17" x="357.07" y="93.55" width="22.18" height="2.07"/>
    <rect class="cls-17" x="366.39" y="80.22" width="13.55" height="2.07"/>
    <rect class="cls-17" x="346.95" y="75.67" width="13.86" height="2.07"/>
    <rect class="cls-17" x="364" y="75.67" width="12.6" height="2.07"/>
    <rect class="cls-17" x="350.86" y="71.22" width="22.14" height="2.07"/>
    <rect class="cls-17" x="335.02" y="84.67" width="21.78" height="2.07"/>
    <rect class="cls-19" x="358.96" y="84.67" width="22.14" height="2.07"/>
    <rect class="cls-18" x="326.92" y="66.63" width="42.84" height="2.08"/>
    <path class="cls-20" d="M324,59.4a2.66,2.66,0,0,1-2.66,2.66h0a2.65,2.65,0,0,1-2.65-2.66h0a2.65,2.65,0,0,1,2.65-2.65h0A2.65,2.65,0,0,1,324,59.4h0Z" transform="translate(0 -12.93)"/>
    <path class="cls-20" d="M331.75,59.4a2.66,2.66,0,0,1-2.66,2.66h0a2.65,2.65,0,0,1-2.65-2.66h0a2.65,2.65,0,0,1,2.65-2.65h0a2.65,2.65,0,0,1,2.66,2.65h0Z" transform="translate(0 -12.93)"/>
    <path class="cls-20" d="M339.53,59.4a2.66,2.66,0,0,1-2.65,2.66h0a2.65,2.65,0,0,1-2.65-2.66h0a2.65,2.65,0,0,1,2.65-2.65h0a2.65,2.65,0,0,1,2.65,2.65h0Z" transform="translate(0 -12.93)"/>
  </g>
  <path class="cls-22" d="M293.57,15H216.12a1.6,1.6,0,0,0-1.6,1.6v64a1.62,1.62,0,0,0,1.6,1.65h77.45a1.63,1.63,0,0,0,1.6-1.65v-64A1.6,1.6,0,0,0,293.57,15Z" transform="translate(0 -12.93)"/>
  <g>
    <path class="cls-23" d="M293.11,78.5a1.63,1.63,0,0,1-1.6,1.65H214.05a1.62,1.62,0,0,1-1.6-1.65V14.58a1.62,1.62,0,0,1,1.6-1.65h77.45a1.62,1.62,0,0,1,1.6,1.65V78.5Z" transform="translate(0 -12.93)"/>
    <path class="cls-14" d="M293.11,14.53a1.6,1.6,0,0,0-1.6-1.6H214.05a1.6,1.6,0,0,0-1.6,1.6v5.94h80.65V14.53Z" transform="translate(0 -12.93)"/>
    <rect class="cls-15" x="223.33" y="14.35" width="49.96" height="1.87"/>
    <rect class="cls-16" x="223.33" y="18.22" width="42.99" height="1.87"/>
    <rect class="cls-17" x="223.33" y="26.23" width="19.63" height="1.87"/>
    <rect class="cls-18" x="225.92" y="30.24" width="13.79" height="1.87"/>
    <rect class="cls-19" x="228.23" y="34.34" width="28.51" height="1.87"/>
    <rect class="cls-17" x="230.67" y="42.25" width="28.51" height="1.87"/>
    <rect class="cls-19" x="228.23" y="46.36" width="19.99" height="1.87"/>
    <rect class="cls-17" x="228.23" y="50.36" width="19.99" height="1.87"/>
    <rect class="cls-17" x="231.15" y="54.27" width="13.3" height="1.87"/>
    <rect class="cls-18" x="223.37" y="58.3" width="11.11" height="1.87"/>
    <rect class="cls-17" x="259.14" y="58.3" width="7.95" height="1.87"/>
    <rect class="cls-19" x="235.78" y="58.3" width="21.21" height="1.87"/>
    <rect class="cls-19" x="245.75" y="54.27" width="34.11" height="1.87"/>
    <rect class="cls-16" x="249.53" y="50.36" width="12.81" height="1.87"/>
    <rect class="cls-17" x="250.5" y="46.36" width="19.99" height="1.87"/>
    <rect class="cls-17" x="258.89" y="34.34" width="12.21" height="1.87"/>
    <rect class="cls-17" x="241.37" y="30.24" width="12.49" height="1.87"/>
    <rect class="cls-17" x="256.74" y="30.24" width="11.36" height="1.87"/>
    <rect class="cls-17" x="244.9" y="26.23" width="19.95" height="1.87"/>
    <rect class="cls-17" x="230.63" y="38.35" width="19.63" height="1.87"/>
    <rect class="cls-19" x="252.2" y="38.35" width="19.95" height="1.87"/>
    <rect class="cls-18" x="223.33" y="22.09" width="38.61" height="1.87"/>
    <path class="cls-20" d="M220.66,16.85a2.39,2.39,0,0,1-2.39,2.39h0a2.39,2.39,0,0,1-2.39-2.39h0a2.39,2.39,0,0,1,2.39-2.39h0a2.39,2.39,0,0,1,2.39,2.39h0Z" transform="translate(0 -12.93)"/>
    <path class="cls-20" d="M227.67,16.85a2.39,2.39,0,0,1-2.39,2.39h0a2.39,2.39,0,0,1-2.39-2.39h0a2.39,2.39,0,0,1,2.39-2.39h0a2.39,2.39,0,0,1,2.39,2.39h0Z" transform="translate(0 -12.93)"/>
    <path class="cls-20" d="M234.68,16.85a2.39,2.39,0,0,1-2.39,2.39h0a2.39,2.39,0,0,1-2.39-2.39h0a2.39,2.39,0,0,1,2.39-2.39h0a2.39,2.39,0,0,1,2.39,2.39h0Z" transform="translate(0 -12.93)"/>
  </g>
  <path class="cls-22" d="M197.85,34H116.75a1.68,1.68,0,0,0-1.68,1.68v67a1.7,1.7,0,0,0,1.68,1.72h81.09a1.7,1.7,0,0,0,1.68-1.72v-67A1.68,1.68,0,0,0,197.85,34Z" transform="translate(0 -12.93)"/>
  <g>
    <path class="cls-23" d="M201.79,100.37a1.7,1.7,0,0,1-1.68,1.72H119a1.7,1.7,0,0,1-1.68-1.72V33.44A1.7,1.7,0,0,1,119,31.72h81.09a1.7,1.7,0,0,1,1.68,1.72v66.93Z" transform="translate(0 -12.93)"/>
    <path class="cls-14" d="M201.79,33.4a1.68,1.68,0,0,0-1.68-1.68H119a1.68,1.68,0,0,0-1.68,1.68v6.22h84.45V33.4Z" transform="translate(0 -12.93)"/>
    <rect class="cls-15" x="128.73" y="33.81" width="52.32" height="1.96"/>
    <rect class="cls-16" x="128.73" y="37.87" width="45.01" height="1.96"/>
    <rect class="cls-17" x="128.73" y="46.25" width="20.55" height="1.96"/>
    <rect class="cls-18" x="131.45" y="50.45" width="14.44" height="1.96"/>
    <rect class="cls-19" x="133.87" y="54.74" width="29.85" height="1.96"/>
    <rect class="cls-17" x="136.42" y="63.03" width="29.85" height="1.96"/>
    <rect class="cls-19" x="133.87" y="67.32" width="20.93" height="1.96"/>
    <rect class="cls-17" x="133.87" y="71.52" width="20.93" height="1.96"/>
    <rect class="cls-17" x="136.93" y="75.61" width="13.93" height="1.96"/>
    <rect class="cls-18" x="128.77" y="79.83" width="11.63" height="1.96"/>
    <rect class="cls-17" x="166.23" y="79.83" width="8.32" height="1.96"/>
    <rect class="cls-19" x="141.77" y="79.83" width="22.21" height="1.96"/>
    <rect class="cls-19" x="152.21" y="75.61" width="35.71" height="1.96"/>
    <rect class="cls-16" x="156.16" y="71.52" width="13.42" height="1.96"/>
    <rect class="cls-17" x="157.18" y="67.32" width="20.93" height="1.96"/>
    <rect class="cls-17" x="165.97" y="54.74" width="12.78" height="1.96"/>
    <rect class="cls-17" x="147.63" y="50.45" width="13.08" height="1.96"/>
    <rect class="cls-17" x="163.72" y="50.45" width="11.89" height="1.96"/>
    <rect class="cls-17" x="151.32" y="46.25" width="20.89" height="1.96"/>
    <rect class="cls-17" x="136.37" y="58.94" width="20.55" height="1.96"/>
    <rect class="cls-19" x="158.96" y="58.94" width="20.89" height="1.96"/>
    <rect class="cls-18" x="128.73" y="41.92" width="40.42" height="1.96"/>
    <path class="cls-20" d="M125.94,35.82a2.5,2.5,0,0,1-2.5,2.51h0a2.5,2.5,0,0,1-2.51-2.51h0a2.5,2.5,0,0,1,2.51-2.5h0a2.5,2.5,0,0,1,2.5,2.5h0Z" transform="translate(0 -12.93)"/>
    <path class="cls-20" d="M133.28,35.82a2.51,2.51,0,0,1-2.51,2.51h0a2.51,2.51,0,0,1-2.51-2.51h0a2.5,2.5,0,0,1,2.51-2.5h0a2.5,2.5,0,0,1,2.51,2.5h0Z" transform="translate(0 -12.93)"/>
    <path class="cls-20" d="M140.62,35.82a2.5,2.5,0,0,1-2.51,2.51h0a2.51,2.51,0,0,1-2.51-2.51h0a2.5,2.5,0,0,1,2.51-2.5h0a2.5,2.5,0,0,1,2.51,2.5h0Z" transform="translate(0 -12.93)"/>
  </g>
  <path class="cls-22" d="M175,128.56H116.29a1.21,1.21,0,0,0-1.21,1.21V178.3a1.23,1.23,0,0,0,1.21,1.25H175a1.23,1.23,0,0,0,1.22-1.25V129.78A1.22,1.22,0,0,0,175,128.56Z" transform="translate(0 -12.93)"/>
  <g>
    <path class="cls-23" d="M177.91,180a1.23,1.23,0,0,1-1.22,1.25H117.94a1.23,1.23,0,0,1-1.22-1.25V131.46a1.23,1.23,0,0,1,1.22-1.25H176.7a1.23,1.23,0,0,1,1.22,1.25V180Z" transform="translate(0 -12.93)"/>
    <path class="cls-14" d="M177.91,131.43a1.22,1.22,0,0,0-1.22-1.21H117.94a1.22,1.22,0,0,0-1.22,1.21v4.51h61.18v-4.51Z" transform="translate(0 -12.93)"/>
    <rect class="cls-15" x="124.98" y="128.17" width="37.9" height="1.42"/>
    <rect class="cls-16" x="124.98" y="131.1" width="32.61" height="1.42"/>
    <rect class="cls-17" x="124.98" y="137.18" width="14.89" height="1.42"/>
    <rect class="cls-18" x="126.94" y="140.22" width="10.46" height="1.42"/>
    <rect class="cls-19" x="128.7" y="143.33" width="21.63" height="1.42"/>
    <rect class="cls-17" x="130.54" y="149.33" width="21.63" height="1.42"/>
    <rect class="cls-19" x="128.7" y="152.45" width="15.17" height="1.42"/>
    <rect class="cls-17" x="128.7" y="155.49" width="15.17" height="1.42"/>
    <rect class="cls-17" x="130.91" y="158.45" width="10.09" height="1.42"/>
    <rect class="cls-18" x="125.01" y="161.51" width="8.43" height="1.42"/>
    <rect class="cls-17" x="152.14" y="161.51" width="6.03" height="1.42"/>
    <rect class="cls-19" x="134.42" y="161.51" width="16.09" height="1.42"/>
    <rect class="cls-19" x="141.99" y="158.45" width="25.87" height="1.42"/>
    <rect class="cls-16" x="144.85" y="155.49" width="9.72" height="1.42"/>
    <rect class="cls-17" x="145.59" y="152.45" width="15.17" height="1.42"/>
    <rect class="cls-17" x="151.96" y="143.33" width="9.26" height="1.42"/>
    <rect class="cls-17" x="138.67" y="140.22" width="9.48" height="1.42"/>
    <rect class="cls-17" x="150.33" y="140.22" width="8.61" height="1.42"/>
    <rect class="cls-17" x="141.34" y="137.18" width="15.14" height="1.42"/>
    <rect class="cls-17" x="130.51" y="146.37" width="14.89" height="1.42"/>
    <rect class="cls-19" x="146.88" y="146.37" width="15.14" height="1.42"/>
    <rect class="cls-18" x="124.98" y="134.04" width="29.29" height="1.42"/>
    <path class="cls-20" d="M123,133.19a1.81,1.81,0,0,1-1.81,1.81h0a1.81,1.81,0,0,1-1.82-1.81h0a1.81,1.81,0,0,1,1.82-1.81h0a1.81,1.81,0,0,1,1.81,1.81h0Z" transform="translate(0 -12.93)"/>
    <path class="cls-20" d="M128.27,133.19a1.82,1.82,0,0,1-1.82,1.81h0a1.81,1.81,0,0,1-1.81-1.81h0a1.81,1.81,0,0,1,1.81-1.81h0a1.82,1.82,0,0,1,1.82,1.81h0Z" transform="translate(0 -12.93)"/>
    <path class="cls-20" d="M133.59,133.19a1.81,1.81,0,0,1-1.81,1.81h0a1.81,1.81,0,0,1-1.82-1.81h0a1.81,1.81,0,0,1,1.82-1.81h0a1.81,1.81,0,0,1,1.81,1.81h0Z" transform="translate(0 -12.93)"/>
  </g>
  <g>
    <path class="cls-23" d="M285.41,164.05a1.23,1.23,0,0,1-1.22,1.25H225.44a1.23,1.23,0,0,1-1.22-1.25V115.56a1.23,1.23,0,0,1,1.22-1.25h58.75a1.23,1.23,0,0,1,1.22,1.25v48.49Z" transform="translate(0 -12.93)"/>
    <path class="cls-14" d="M285.41,115.53a1.22,1.22,0,0,0-1.22-1.22H225.44a1.22,1.22,0,0,0-1.22,1.22V120h61.19v-4.51Z" transform="translate(0 -12.93)"/>
    <rect class="cls-15" x="232.47" y="112.27" width="37.9" height="1.42"/>
    <rect class="cls-16" x="232.47" y="115.21" width="32.61" height="1.42"/>
    <rect class="cls-17" x="232.47" y="121.28" width="14.89" height="1.42"/>
    <rect class="cls-18" x="234.44" y="124.32" width="10.46" height="1.42"/>
    <rect class="cls-19" x="236.19" y="127.44" width="21.63" height="1.42"/>
    <rect class="cls-17" x="238.04" y="133.44" width="21.63" height="1.42"/>
    <rect class="cls-19" x="236.19" y="136.55" width="15.17" height="1.42"/>
    <rect class="cls-17" x="236.19" y="139.59" width="15.17" height="1.42"/>
    <rect class="cls-17" x="238.41" y="142.55" width="10.09" height="1.42"/>
    <rect class="cls-18" x="232.5" y="145.61" width="8.43" height="1.42"/>
    <rect class="cls-17" x="259.64" y="145.61" width="6.03" height="1.42"/>
    <rect class="cls-19" x="241.91" y="145.61" width="16.09" height="1.42"/>
    <rect class="cls-19" x="249.48" y="142.55" width="25.87" height="1.42"/>
    <rect class="cls-16" x="252.34" y="139.59" width="9.72" height="1.42"/>
    <rect class="cls-17" x="253.08" y="136.55" width="15.17" height="1.42"/>
    <rect class="cls-17" x="259.45" y="127.44" width="9.26" height="1.42"/>
    <rect class="cls-17" x="246.16" y="124.32" width="9.48" height="1.42"/>
    <rect class="cls-17" x="257.82" y="124.32" width="8.61" height="1.42"/>
    <rect class="cls-17" x="248.84" y="121.28" width="15.14" height="1.42"/>
    <rect class="cls-17" x="238.01" y="130.47" width="14.89" height="1.42"/>
    <rect class="cls-19" x="254.38" y="130.47" width="15.14" height="1.42"/>
    <rect class="cls-18" x="232.47" y="118.14" width="29.29" height="1.42"/>
    <path class="cls-20" d="M230.45,117.29a1.81,1.81,0,0,1-1.81,1.82h0a1.81,1.81,0,0,1-1.82-1.82h0a1.81,1.81,0,0,1,1.82-1.81h0a1.81,1.81,0,0,1,1.81,1.81h0Z" transform="translate(0 -12.93)"/>
    <path class="cls-20" d="M235.77,117.29A1.82,1.82,0,0,1,234,119.1h0a1.82,1.82,0,0,1-1.81-1.82h0a1.82,1.82,0,0,1,1.81-1.81h0a1.82,1.82,0,0,1,1.82,1.81h0Z" transform="translate(0 -12.93)"/>
    <path class="cls-20" d="M241.09,117.29a1.81,1.81,0,0,1-1.81,1.82h0a1.82,1.82,0,0,1-1.82-1.82h0a1.81,1.81,0,0,1,1.82-1.81h0a1.81,1.81,0,0,1,1.81,1.81h0Z" transform="translate(0 -12.93)"/>
  </g>
  <g>
    <path class="cls-4" d="M257,175.58l-1.54-10.22c0-2.63,1-4.33-2-4.33s-1.72,2.14-1.72,4.77L250,175.58s0,0.08,0,.12h7v-0.12Z" transform="translate(0 -12.93)"/>
    <rect class="cls-4" x="240.89" y="260.81" width="3.92" height="6.34"/>
    <g>
      <path class="cls-24" d="M239.85,278.95a0.55,0.55,0,0,1,.15-0.45,2.9,2.9,0,0,1,.85-1.83s0.07,0.17.37,0.07,0.64-.2,1-0.36a1.39,1.39,0,0,1,1.47,0,4.09,4.09,0,0,0,.65.39,1.69,1.69,0,0,0,.52-0.17,1.88,1.88,0,0,1,.27.65c0.06,0.35.15,0.7,0.17,0.86a6.84,6.84,0,0,1,.24,1c0,0.3,0,.53,0,0.57s0,0.06,0,.2,0,0.27,0,.35a0.35,0.35,0,0,1-.2.38,12.65,12.65,0,0,1-2.32.29,4.1,4.1,0,0,1-2.32-.54,1,1,0,0,1-.28-0.47,1,1,0,0,0-.34-0.49A0.49,0.49,0,0,1,239.85,278.95Z" transform="translate(0 -12.93)"/>
      <path class="cls-25" d="M239.89,278.92a1.31,1.31,0,0,0-.17.42,1.16,1.16,0,0,0,.13.84,0.55,0.55,0,0,1,.33.53c0,0.28-.09,1.47.48,1.67a7.22,7.22,0,0,0,4.66.08,0.31,0.31,0,0,0,.19-0.32c0-.27,0-1.48,0-1.48a0.14,0.14,0,0,0-.12-0.1c-0.1,0-2.1.14-2.1,0.14a11.82,11.82,0,0,1-2.19-.22,1.51,1.51,0,0,1-.62-0.67,0.84,0.84,0,0,0-.35-0.52A0.45,0.45,0,0,1,239.89,278.92Z" transform="translate(0 -12.93)"/>
    </g>
    <rect class="cls-4" x="263.46" y="260.81" width="3.92" height="6.34"/>
    <g>
      <path class="cls-24" d="M262.41,278.95a0.55,0.55,0,0,1,.15-0.45,2.91,2.91,0,0,1,.85-1.83s0.07,0.17.37,0.07,0.64-.2,1-0.36a1.39,1.39,0,0,1,1.47,0,4.11,4.11,0,0,0,.65.39,1.69,1.69,0,0,0,.52-0.17,1.89,1.89,0,0,1,.27.65c0.06,0.35.15,0.7,0.17,0.86a6.85,6.85,0,0,1,.24,1c0,0.3,0,.53,0,0.57s0,0.06,0,.2,0,0.27,0,.35a0.35,0.35,0,0,1-.2.38,12.63,12.63,0,0,1-2.32.29,4.1,4.1,0,0,1-2.32-.54,1,1,0,0,1-.28-0.47,1,1,0,0,0-.34-0.49A0.49,0.49,0,0,1,262.41,278.95Z" transform="translate(0 -12.93)"/>
      <path class="cls-25" d="M262.46,278.92a1.3,1.3,0,0,0-.17.42,1.16,1.16,0,0,0,.13.84,0.55,0.55,0,0,1,.32.53c0,0.28-.09,1.47.48,1.67a7.22,7.22,0,0,0,4.67.08,0.31,0.31,0,0,0,.19-0.32c0-.27,0-1.48,0-1.48a0.14,0.14,0,0,0-.12-0.1c-0.1,0-2.09.14-2.09,0.14a11.84,11.84,0,0,1-2.19-.22,1.5,1.5,0,0,1-.62-0.67,0.83,0.83,0,0,0-.35-0.52A0.45,0.45,0,0,1,262.46,278.92Z" transform="translate(0 -12.93)"/>
    </g>
    <path class="cls-6" d="M247.79,237l6.32-.1h6.53c8.36,0,7.51-9.07,8.11-17.17l-28.64,0C240.75,227.81,239.43,237,247.79,237Z" transform="translate(0 -12.93)"/>
    <path class="cls-4" d="M264.09,149.61a1.18,1.18,0,0,0-1,.56v-4.64c0-5.26-3.05-9.46-9.25-9.58H253c-6.2.12-9.06,4.31-9.06,9.58v4.64a1.17,1.17,0,0,0-1-.56c-0.72.1-1.08,1.35-.81,2.78s1.07,2.52,1.79,2.43a0.36,0.36,0,0,0,.14-0.05c1.61,5.38-.51,11,5.83,11.56a9.85,9.85,0,0,0,3.49.62h0.07a9.84,9.84,0,0,0,3.49-.62c6.22,0,4.41-6.18,6-11.56a0.34,0.34,0,0,0,.14.05c0.72,0.09,1.53-1,1.79-2.43S264.81,149.71,264.09,149.61Z" transform="translate(0 -12.93)"/>
    <path class="cls-26" d="M257.72,172.66l-0.18-.49a1,1,0,0,0-1.09-.75h-5.9a1,1,0,0,0-1.09.75l-0.18.49c-0.28.54-.31,0.81,0.35,0.81h7.73C258,173.48,258,173.2,257.72,172.66Z" transform="translate(0 -12.93)"/>
    <path class="cls-27" d="M261.85,138.51c0.74-3.61-3.4-3-6.66-3h-0.13c-2.53.31-9.52,0.92-11.94-1.41a13.61,13.61,0,0,0,1.52,5.24c-0.85,1.17-.68,10.84-0.68,10.84s0.4,14.23,6.46,14.09c0,0,3.19-1.71,5.58-.09,0,0,7,.9,7.14-14,0,0,.2-7.1.2-9.08A2.66,2.66,0,0,0,261.85,138.51Z" transform="translate(0 -12.93)"/>
    <g>
      <g>
        <path class="cls-28" d="M269.31,195.93a0.33,0.33,0,0,1,.45.1h0a0.33,0.33,0,0,1-.1.46l-0.85.61a0.33,0.33,0,0,1-.45-0.1h0a0.33,0.33,0,0,1,.1-0.45Z" transform="translate(0 -12.93)"/>
        <path class="cls-28" d="M268.38,196.65a0.33,0.33,0,0,1,.46-0.07h0a0.33,0.33,0,0,1,.07.46l-0.56.88a0.33,0.33,0,0,1-.46.07h0a0.33,0.33,0,0,1-.07-0.46Z" transform="translate(0 -12.93)"/>
      </g>
      <g>
        <path class="cls-28" d="M270.41,195.42a0.33,0.33,0,0,1,.46.09h0a0.33,0.33,0,0,1-.09.46l-0.82.65a0.33,0.33,0,0,1-.46-0.09h0a0.33,0.33,0,0,1,.09-0.46Z" transform="translate(0 -12.93)"/>
        <path class="cls-28" d="M269.51,196.19a0.33,0.33,0,0,1,.46-0.09h0a0.33,0.33,0,0,1,.09.46l-0.52.91a0.33,0.33,0,0,1-.46.09h0a0.33,0.33,0,0,1-.09-0.46Z" transform="translate(0 -12.93)"/>
      </g>
      <rect class="cls-4" x="272.3" y="197.14" width="2.26" height="5.72" transform="translate(-65.32 183.11) rotate(-35.51)"/>
      <path class="cls-4" d="M271,198a0.33,0.33,0,0,1,.26.39h0a0.33,0.33,0,0,1-.38.26l-1.54-.29a0.33,0.33,0,0,1-.26-0.39h0a0.33,0.33,0,0,1,.38-0.26Z" transform="translate(0 -12.93)"/>
      <path class="cls-4" d="M269.51,197.75a0.33,0.33,0,0,1,.08.46h0a0.33,0.33,0,0,1-.46.08l-0.9-.54a0.33,0.33,0,0,1-.08-0.46h0a0.33,0.33,0,0,1,.46-0.09Z" transform="translate(0 -12.93)"/>
      <g>
        <path class="cls-4" d="M268.71,196.29a0.33,0.33,0,0,1,.4.24h0a0.33,0.33,0,0,1-.24.4l-1,.32a0.33,0.33,0,0,1-.4-0.24h0a0.33,0.33,0,0,1,.24-0.4Z" transform="translate(0 -12.93)"/>
        <path class="cls-4" d="M267.6,196.69a0.33,0.33,0,0,1,.46.07h0a0.33,0.33,0,0,1-.07.46l-0.81.66a0.33,0.33,0,0,1-.46-0.08h0a0.33,0.33,0,0,1,.07-0.46Z" transform="translate(0 -12.93)"/>
      </g>
      <path class="cls-4" d="M272.9,197.2a0.2,0.2,0,0,1,0,.28l-1.77,1.15a0.2,0.2,0,0,1-.26-0.1l-2.29-1.93a0.2,0.2,0,0,1,0-.28l2.17-1.06a0.2,0.2,0,0,1,.26.1Z" transform="translate(0 -12.93)"/>
    </g>
    <g>
      <g>
        <path class="cls-28" d="M237.85,195.89a0.33,0.33,0,0,0-.46.1h0a0.33,0.33,0,0,0,.11.46l0.85,0.61a0.33,0.33,0,0,0,.45-0.1h0a0.33,0.33,0,0,0-.1-0.46Z" transform="translate(0 -12.93)"/>
        <path class="cls-28" d="M238.78,196.62a0.33,0.33,0,0,0-.46-0.07h0a0.33,0.33,0,0,0-.07.46l0.56,0.88a0.33,0.33,0,0,0,.46.07h0a0.33,0.33,0,0,0,.07-0.46Z" transform="translate(0 -12.93)"/>
      </g>
      <g>
        <path class="cls-28" d="M236.75,195.39a0.33,0.33,0,0,0-.46.09h0a0.33,0.33,0,0,0,.09.46l0.82,0.65a0.33,0.33,0,0,0,.46-0.09h0a0.33,0.33,0,0,0-.08-0.46Z" transform="translate(0 -12.93)"/>
        <path class="cls-28" d="M237.64,196.15a0.33,0.33,0,0,0-.46-0.09h0a0.33,0.33,0,0,0-.09.46l0.52,0.91a0.33,0.33,0,0,0,.46.09h0a0.33,0.33,0,0,0,.09-0.46Z" transform="translate(0 -12.93)"/>
      </g>
      <polygon class="cls-4" points="231.15 188.71 232.99 190.02 236.31 185.36 234.29 184.31 231.15 188.71"/>
      <path class="cls-4" d="M236.15,198a0.33,0.33,0,0,0-.26.39h0a0.33,0.33,0,0,0,.39.26l1.54-.29a0.33,0.33,0,0,0,.26-0.39h0a0.33,0.33,0,0,0-.38-0.26Z" transform="translate(0 -12.93)"/>
      <path class="cls-4" d="M237.65,197.71a0.33,0.33,0,0,0-.09.46h0a0.33,0.33,0,0,0,.46.08l0.9-.54a0.33,0.33,0,0,0,.08-0.46h0a0.33,0.33,0,0,0-.46-0.08Z" transform="translate(0 -12.93)"/>
      <g>
        <path class="cls-4" d="M238.45,196.25a0.33,0.33,0,0,0-.4.24h0a0.33,0.33,0,0,0,.24.4l1,0.32a0.33,0.33,0,0,0,.4-0.24h0a0.33,0.33,0,0,0-.24-0.4Z" transform="translate(0 -12.93)"/>
        <path class="cls-4" d="M239.56,196.65a0.33,0.33,0,0,0-.46.08h0a0.33,0.33,0,0,0,.08.46l0.81,0.67a0.33,0.33,0,0,0,.46-0.08h0a0.33,0.33,0,0,0-.08-0.46Z" transform="translate(0 -12.93)"/>
      </g>
      <path class="cls-4" d="M234.29,197.24a0.27,0.27,0,0,0,.06.32l1.71,1a0.2,0.2,0,0,0,.26-0.1l2.29-1.93a0.2,0.2,0,0,0,0-.28l-2.17-1.06a0.2,0.2,0,0,0-.26.1Z" transform="translate(0 -12.93)"/>
    </g>
    <path class="cls-26" d="M275,197.89c0.61,1.28,1.13,2.41,1.6,3.46-0.94-1.23-1.33-1.68-2.1-2.75L274,198l-0.18.06-2.38,1.26-0.16.11,0.11,0.16c1,1.44,2.14,3.14,3.37,4.83,0.7,1,1.26,1.69,1.83,2.38,0.29,0.36.64,0.77,1,1.19h0l0.28,0.28a4.31,4.31,0,0,0,1.48,1.07h0l0.15,0a1.81,1.81,0,0,0,.64.1h0.07a2,2,0,0,0,1.41-.65,2,2,0,0,0,.57-1.3,0.92,0.92,0,0,1,0-.15v0a4.32,4.32,0,0,0-.08-1l0-.17a16,16,0,0,0-.42-1.61c-0.29-.94-0.62-1.83-1-2.87-0.62-1.61-1.32-3.3-2.25-5.46-3.38-7.73-7.45-13.33-10.47-19.46l-0.09-.18-0.18.09-3.82,2-0.18.09,0.1,0.18C266.92,184.6,271.38,190.31,275,197.89Zm5.27,11.45h0Zm-0.65-.11,0.08,0Zm0.48,0.1h0Zm-0.11,0h0Zm-0.09,0h0Zm-0.09,0h0Zm-0.09,0,0.07,0Z" transform="translate(0 -12.93)"/>
    <path class="cls-26" d="M243.45,179.42l0.09-.18-0.18-.09-3.82-2-0.18-.09-0.09.18c-3,6.14-7,11.27-10.41,19-0.94,2.16-1.63,3.85-2.25,5.46-0.4,1-.72,1.92-1,2.87a15.63,15.63,0,0,0-.42,1.61l0,0.17a4.31,4.31,0,0,0-.07,1v0a0.93,0.93,0,0,1,0,.15,2,2,0,0,0,.57,1.3,2,2,0,0,0,1.41.65h0.07a1.81,1.81,0,0,0,.64-0.1l0.15,0h0a4.34,4.34,0,0,0,1.48-1.07l0.28-.28h0c0.4-.42.75-0.84,1-1.19,0.56-.69,1.13-1.43,1.83-2.38,1.23-1.68,2.24-3.21,3.21-4.66l0.11-.16-0.2-.09-2.28-1.17-0.26-.15-0.35.55c-0.78,1.07-1.08,1.35-2,2.58,0.47-1.05,1-2.18,1.6-3.46C236,190.31,240.44,185.06,243.45,179.42Zm-16.35,29.91h0Zm0.63-.08,0.08,0Zm-0.46.08h0Zm0.12,0h0Zm0.1,0h0Zm0.09,0h0Zm0.08,0,0.07,0Z" transform="translate(0 -12.93)"/>
    <path class="cls-26" d="M271.5,221.74L269.34,188c-0.38-10.37.93-14.61-11.76-14.52h-8.25c-11.46.56-11.71,5.12-11.71,14.65l-0.06,32.36,2.81,4.58,28.15,0Z" transform="translate(0 -12.93)"/>
    <path class="cls-6" d="M257,233.15a3.88,3.88,0,0,0,3.88,3.88h4.58a3.88,3.88,0,0,0,3.88-3.88h0a3.88,3.88,0,0,0-3.88-3.88h-4.58a3.88,3.88,0,0,0-3.88,3.88h0Z" transform="translate(0 -12.93)"/>
    <path class="cls-6" d="M251.06,233.15a3.88,3.88,0,0,1-3.88,3.88H242.6a3.88,3.88,0,0,1-3.88-3.88h0a3.88,3.88,0,0,1,3.88-3.88h4.58a3.88,3.88,0,0,1,3.88,3.88h0Z" transform="translate(0 -12.93)"/>
    <polygon class="cls-29" points="268.37 213.71 240.43 213.71 240.29 212.02 268.57 212.02 268.37 213.71"/>
    <polygon class="cls-6" points="245.58 261.67 239.88 261.67 238.72 220.24 246.28 220.24 245.58 261.67"/>
    <polygon class="cls-6" points="262.51 261.47 268.21 261.47 269.38 220.24 261.81 220.24 262.51 261.47"/>
  </g>
  <g>
    <rect class="cls-12" x="252.08" y="207.36" width="3.55" height="53.46"/>
    <rect class="cls-30" x="251.05" y="246.92" width="5.51" height="13.91"/>
    <polygon class="cls-30" points="253.69 259.55 233.3 265.58 233.3 268.37 253.69 264.07 274.71 269.03 274.71 266.02 253.69 259.55"/>
    <ellipse class="cls-30" cx="234.54" cy="270.73" rx="2.45" ry="2.32"/>
    <ellipse class="cls-30" cx="254" cy="272.45" rx="2.45" ry="2.32"/>
    <ellipse class="cls-30" cx="273.08" cy="271.16" rx="2.45" ry="2.32"/>
    <polygon class="cls-30" points="255.31 269.48 252.52 269.48 252.03 260.4 255.63 260.4 255.31 269.48"/>
    <rect class="cls-30" x="233.3" y="267.47" width="0.93" height="1.33"/>
    <rect class="cls-30" x="273.78" y="267.47" width="0.93" height="2.17"/>
    <rect class="cls-30" x="253.47" y="267.47" width="0.93" height="3.43"/>
    <rect class="cls-30" x="251.75" y="207.36" width="4.04" height="18.68"/>
    <path class="cls-30" d="M272.66,239.48a2.9,2.9,0,0,1-3.06,2.7H237.73a2.9,2.9,0,0,1-3.06-2.7h0a2.9,2.9,0,0,1,3.06-2.7H269.6a2.9,2.9,0,0,1,3.06,2.7h0Z" transform="translate(0 -12.93)"/>
    <path class="cls-30" d="M272.57,219.27a3.76,3.76,0,0,1-3.92,3.56H238.9a3.76,3.76,0,0,1-3.92-3.56V202.35a3.76,3.76,0,0,1,3.92-3.56h29.75a3.75,3.75,0,0,1,3.92,3.56v16.92Z" transform="translate(0 -12.93)"/>
    <path class="cls-12" d="M257.77,210a3.42,3.42,0,0,0-3.62-3.19H253.4a3.42,3.42,0,0,0-3.62,3.19v17.52h8V210Z" transform="translate(0 -12.93)"/>
  </g>
  <rect class="cls-31" x="203.71" y="96.61" width="5.37" height="57.81"/>
  <rect class="cls-31" x="294.14" y="96.61" width="10.94" height="8.88"/>
  <rect class="cls-31" x="294.14" y="106.82" width="10.94" height="8.88"/>
  <rect class="cls-31" x="294.14" y="117.66" width="10.94" height="8.88"/>
  <rect class="cls-31" x="294.14" y="128.81" width="10.94" height="8.88"/>
</svg>
