<svg id="Layer_1" data-name="Layer 1" xmlns="http://www.w3.org/2000/svg" viewBox="0 0 650 300">
  <defs>
    <style>
      .cls-1, .cls-2 {
        fill: #059498;
      }

      .cls-1 {
        opacity: 0.3;
      }

      .cls-2 {
        opacity: 0.4;
      }

      .cls-3 {
        fill: #fdcf9d;
      }

      .cls-4 {
        fill: #5b849f;
      }

      .cls-5 {
        fill: #326587;
      }

      .cls-6 {
        fill: #bdced9;
      }

      .cls-7 {
        fill: #132633;
      }

      .cls-8 {
        fill: #264c65;
      }

      .cls-9 {
        fill: #b7e0e2;
      }

      .cls-10 {
        fill: #7c9db2;
      }

      .cls-11 {
        fill: #9ea5ac;
      }

      .cls-12 {
        fill: #ebf0f4;
      }

      .cls-13 {
        fill: #fba28a;
      }

      .cls-14 {
        fill: #fa8363;
      }

      .cls-15 {
        fill: #e6cddb;
      }

      .cls-16 {
        fill: #9ba1ab;
      }

      .cls-17 {
        fill: #84a3b7;
      }

      .cls-18 {
        fill: #6adce0;
      }

      .cls-19 {
        fill: #fddad0;
      }

      .cls-20 {
        fill: #dee6ec;
      }

      .cls-21 {
        fill: #3b3c3d;
        opacity: 0.35;
      }

      .cls-22 {
        fill: #fafbfa;
      }

      .cls-23 {
        fill: #2c130b;
      }

      .cls-24 {
        fill: #0f0f0f;
      }

      .cls-25 {
        fill: #f9643c;
      }

      .cls-26 {
        fill: #382d26;
      }

      .cls-27 {
        fill: #fdd9b1;
      }

      .cls-28 {
        fill: #b04c2c;
      }

      .cls-29 {
        fill: #0c1f2f;
      }

      .cls-30 {
        fill: #e2f3f3;
      }

      .cls-31 {
        opacity: 0.43;
      }
    </style>
  </defs>
  <title>development</title>
  <rect class="cls-1" x="-50" y="263.45" width="750" height="36.55"/>
  <polygon class="cls-2" points="433.21 279.03 230.02 279.03 238.56 270.93 424.8 270.93 433.21 279.03"/>
  <path class="cls-3" d="M330,149.42c0-.3,0-0.61,0-0.92C330,148.81,330,149.12,330,149.42Z"/>
  <rect class="cls-4" x="239.11" y="201.05" width="3.05" height="70.07"/>
  <rect class="cls-4" x="421.21" y="200.84" width="3.05" height="70.27"/>
  <rect class="cls-5" x="393.83" y="202.65" width="37.37" height="17.34"/>
  <rect class="cls-5" x="393.83" y="220.41" width="37.37" height="17.34"/>
  <rect class="cls-5" x="393.83" y="238.65" width="37.37" height="17.34"/>
  <rect class="cls-4" x="394.48" y="255.91" width="37.65" height="1.71"/>
  <polygon class="cls-5" points="387.73 249.52 387.73 200.91 393.02 200.91 393.02 257.63 387.73 249.52"/>
  <rect class="cls-4" x="430.16" y="200.84" width="3.05" height="78.12"/>
  <rect class="cls-4" x="394.48" y="219.94" width="37.65" height="1.72"/>
  <rect class="cls-4" x="394.48" y="237.56" width="37.65" height="1.71"/>
  <rect class="cls-4" x="230.02" y="200.84" width="203.19" height="3.05"/>
  <polygon class="cls-6" points="433.21 201.03 230.02 201.03 238.56 192.93 424.8 192.93 433.21 201.03"/>
  <path class="cls-4" d="M408.83,204a4,4,0,0,0,8,0s0-.09,0-0.14h-8S408.83,204,408.83,204Z"/>
  <path class="cls-4" d="M408.83,221.81a4,4,0,0,0,8,0s0-.09,0-0.14h-8S408.83,221.76,408.83,221.81Z"/>
  <path class="cls-4" d="M408.83,239.46a4,4,0,1,0,8,0s0-.09,0-0.14h-8S408.83,239.42,408.83,239.46Z"/>
  <rect class="cls-4" x="392.58" y="202.01" width="3.05" height="55.62"/>
  <rect class="cls-4" x="316.45" y="180.65" width="27.11" height="13.74"/>
  <rect class="cls-7" x="316.45" y="180.65" width="27.11" height="5.68"/>
  <path class="cls-8" d="M386.25,180a3.06,3.06,0,0,1-2.93,3.18H276.71a3.06,3.06,0,0,1-2.93-3.18V106.89a3.06,3.06,0,0,1,2.93-3.18H383.32a3.06,3.06,0,0,1,2.93,3.18V180Z"/>
  <rect class="cls-9" x="276.95" y="107.42" width="106.13" height="65.43"/>
  <rect class="cls-10" x="308.61" y="193.83" width="42.8" height="1.69"/>
  <polygon class="cls-11" points="359.97 199.46 293.9 199.46 294.86 196.62 359.07 196.62 359.97 199.46"/>
  <polygon class="cls-8" points="293.9 198.09 294.86 196.62 359.07 196.62 359.97 198.09 293.9 198.09"/>
  <rect class="cls-4" x="293.9" y="198.09" width="66.07" height="1.38"/>
  <rect class="cls-4" x="230.02" y="201.67" width="3.05" height="77.29"/>
  <g>
    <path class="cls-12" d="M503.1,169.92a1.8,1.8,0,0,1-1.78,1.83H415.38a1.8,1.8,0,0,1-1.78-1.83V99a1.8,1.8,0,0,1,1.78-1.83h85.94A1.8,1.8,0,0,1,503.1,99v70.92Z"/>
    <path class="cls-13" d="M503.1,98.95a1.78,1.78,0,0,0-1.78-1.78H415.38a1.78,1.78,0,0,0-1.78,1.78v6.59H503.1V98.95Z"/>
    <rect class="cls-14" x="425.67" y="113.09" width="55.44" height="2.07"/>
    <rect class="cls-15" x="425.67" y="117.39" width="47.7" height="2.07"/>
    <rect class="cls-16" x="425.67" y="126.27" width="21.78" height="2.07"/>
    <rect class="cls-17" x="428.55" y="130.72" width="15.3" height="2.07"/>
    <rect class="cls-18" x="431.12" y="135.27" width="31.63" height="2.07"/>
    <rect class="cls-16" x="433.82" y="144.05" width="31.63" height="2.07"/>
    <rect class="cls-18" x="431.12" y="148.6" width="22.19" height="2.07"/>
    <rect class="cls-16" x="431.12" y="153.05" width="22.19" height="2.07"/>
    <rect class="cls-16" x="434.36" y="157.38" width="14.76" height="2.07"/>
    <rect class="cls-17" x="425.72" y="161.86" width="12.33" height="2.08"/>
    <rect class="cls-16" x="465.41" y="161.86" width="8.82" height="2.08"/>
    <rect class="cls-18" x="439.48" y="161.86" width="23.54" height="2.08"/>
    <rect class="cls-18" x="450.56" y="157.38" width="37.84" height="2.07"/>
    <rect class="cls-15" x="454.74" y="153.05" width="14.22" height="2.07"/>
    <rect class="cls-16" x="455.82" y="148.6" width="22.18" height="2.07"/>
    <rect class="cls-16" x="465.13" y="135.27" width="13.55" height="2.07"/>
    <rect class="cls-16" x="445.69" y="130.72" width="13.86" height="2.07"/>
    <rect class="cls-16" x="462.75" y="130.72" width="12.6" height="2.07"/>
    <rect class="cls-16" x="449.61" y="126.27" width="22.14" height="2.07"/>
    <rect class="cls-16" x="433.77" y="139.72" width="21.78" height="2.07"/>
    <rect class="cls-18" x="457.71" y="139.72" width="22.14" height="2.07"/>
    <rect class="cls-17" x="425.67" y="121.68" width="42.84" height="2.08"/>
    <path class="cls-19" d="M422.71,101.52a2.66,2.66,0,0,1-2.66,2.66h0a2.65,2.65,0,0,1-2.65-2.66h0a2.65,2.65,0,0,1,2.65-2.65h0a2.66,2.66,0,0,1,2.66,2.65h0Z"/>
    <path class="cls-19" d="M430.49,101.52a2.66,2.66,0,0,1-2.66,2.66h0a2.65,2.65,0,0,1-2.65-2.66h0a2.65,2.65,0,0,1,2.65-2.65h0a2.65,2.65,0,0,1,2.66,2.65h0Z"/>
    <path class="cls-19" d="M438.27,101.52a2.66,2.66,0,0,1-2.66,2.66h0a2.65,2.65,0,0,1-2.65-2.66h0a2.65,2.65,0,0,1,2.65-2.65h0a2.65,2.65,0,0,1,2.66,2.65h0Z"/>
  </g>
  <g>
    <path class="cls-20" d="M217.83,159.77a1.8,1.8,0,0,1-1.78,1.83H130.12a1.8,1.8,0,0,1-1.78-1.83V88.85A1.8,1.8,0,0,1,130.12,87h85.94a1.8,1.8,0,0,1,1.78,1.82v70.92Z"/>
    <path class="cls-5" d="M217.83,88.8A1.78,1.78,0,0,0,216.05,87H130.12a1.78,1.78,0,0,0-1.78,1.78v6.59h89.49V88.8Z"/>
    <rect class="cls-14" x="140.4" y="102.94" width="55.44" height="2.07"/>
    <rect class="cls-15" x="140.4" y="107.24" width="47.7" height="2.07"/>
    <rect class="cls-16" x="140.4" y="116.13" width="21.78" height="2.07"/>
    <rect class="cls-17" x="143.28" y="120.57" width="15.3" height="2.07"/>
    <rect class="cls-18" x="145.85" y="125.13" width="31.63" height="2.07"/>
    <rect class="cls-16" x="148.55" y="133.9" width="31.63" height="2.07"/>
    <rect class="cls-18" x="145.85" y="138.46" width="22.19" height="2.07"/>
    <rect class="cls-16" x="145.85" y="142.9" width="22.19" height="2.07"/>
    <rect class="cls-16" x="149.09" y="147.23" width="14.76" height="2.07"/>
    <rect class="cls-17" x="140.45" y="151.71" width="12.33" height="2.07"/>
    <rect class="cls-16" x="180.14" y="151.71" width="8.82" height="2.07"/>
    <rect class="cls-18" x="154.22" y="151.71" width="23.54" height="2.07"/>
    <rect class="cls-18" x="165.29" y="147.23" width="37.84" height="2.07"/>
    <rect class="cls-15" x="169.47" y="142.9" width="14.22" height="2.07"/>
    <rect class="cls-16" x="170.55" y="138.46" width="22.18" height="2.07"/>
    <rect class="cls-16" x="179.87" y="125.13" width="13.55" height="2.07"/>
    <rect class="cls-16" x="160.43" y="120.57" width="13.86" height="2.07"/>
    <rect class="cls-16" x="177.48" y="120.57" width="12.6" height="2.07"/>
    <rect class="cls-16" x="164.34" y="116.13" width="22.14" height="2.07"/>
    <rect class="cls-16" x="148.5" y="129.57" width="21.78" height="2.07"/>
    <rect class="cls-18" x="172.44" y="129.57" width="22.14" height="2.07"/>
    <rect class="cls-17" x="140.4" y="111.54" width="42.84" height="2.08"/>
    <path class="cls-17" d="M137.45,91.37A2.65,2.65,0,0,1,134.79,94h0a2.65,2.65,0,0,1-2.65-2.66h0a2.65,2.65,0,0,1,2.65-2.65h0a2.65,2.65,0,0,1,2.65,2.65h0Z"/>
    <path class="cls-17" d="M145.23,91.37A2.66,2.66,0,0,1,142.57,94h0a2.66,2.66,0,0,1-2.65-2.66h0a2.65,2.65,0,0,1,2.65-2.65h0a2.65,2.65,0,0,1,2.66,2.65h0Z"/>
    <path class="cls-17" d="M153,91.37A2.65,2.65,0,0,1,150.35,94h0a2.65,2.65,0,0,1-2.65-2.66h0a2.65,2.65,0,0,1,2.65-2.65h0A2.65,2.65,0,0,1,153,91.37h0Z"/>
  </g>
  <g>
    <path class="cls-12" d="M423.95,94.94a1.63,1.63,0,0,1-1.6,1.65H344.8a1.63,1.63,0,0,1-1.6-1.65v-64a1.63,1.63,0,0,1,1.6-1.65h77.54a1.63,1.63,0,0,1,1.6,1.65v64Z"/>
    <path class="cls-13" d="M423.95,30.89a1.6,1.6,0,0,0-1.6-1.6H344.8a1.6,1.6,0,0,0-1.6,1.6v5.95h80.75V30.89Z"/>
    <rect class="cls-14" x="354.08" y="43.66" width="50.03" height="1.87"/>
    <rect class="cls-15" x="354.08" y="47.53" width="43.04" height="1.87"/>
    <rect class="cls-16" x="354.08" y="55.55" width="19.65" height="1.87"/>
    <rect class="cls-17" x="356.68" y="59.56" width="13.81" height="1.87"/>
    <rect class="cls-18" x="358.99" y="63.67" width="28.55" height="1.87"/>
    <rect class="cls-16" x="361.43" y="71.59" width="28.54" height="1.87"/>
    <rect class="cls-18" x="358.99" y="75.7" width="20.02" height="1.87"/>
    <rect class="cls-16" x="358.99" y="79.71" width="20.02" height="1.87"/>
    <rect class="cls-16" x="361.92" y="83.62" width="13.32" height="1.87"/>
    <rect class="cls-17" x="354.12" y="87.66" width="11.12" height="1.87"/>
    <rect class="cls-16" x="389.93" y="87.66" width="7.96" height="1.87"/>
    <rect class="cls-18" x="366.54" y="87.66" width="21.24" height="1.87"/>
    <rect class="cls-18" x="376.54" y="83.62" width="34.15" height="1.87"/>
    <rect class="cls-15" x="380.31" y="79.71" width="12.83" height="1.87"/>
    <rect class="cls-16" x="381.29" y="75.7" width="20.02" height="1.87"/>
    <rect class="cls-16" x="389.69" y="63.67" width="12.22" height="1.87"/>
    <rect class="cls-16" x="372.15" y="59.56" width="12.51" height="1.87"/>
    <rect class="cls-16" x="387.54" y="59.56" width="11.37" height="1.87"/>
    <rect class="cls-16" x="375.68" y="55.55" width="19.98" height="1.87"/>
    <rect class="cls-16" x="361.39" y="67.68" width="19.65" height="1.87"/>
    <rect class="cls-18" x="382.99" y="67.68" width="19.98" height="1.87"/>
    <rect class="cls-17" x="354.08" y="51.41" width="38.66" height="1.87"/>
    <path class="cls-19" d="M351.41,33.21a2.4,2.4,0,0,1-2.39,2.4h0a2.4,2.4,0,0,1-2.4-2.4h0a2.39,2.39,0,0,1,2.4-2.39h0a2.39,2.39,0,0,1,2.39,2.39h0Z"/>
    <path class="cls-19" d="M358.43,33.21a2.4,2.4,0,0,1-2.4,2.4h0a2.4,2.4,0,0,1-2.39-2.4h0A2.39,2.39,0,0,1,356,30.82h0a2.4,2.4,0,0,1,2.4,2.39h0Z"/>
    <path class="cls-19" d="M365.45,33.21a2.4,2.4,0,0,1-2.4,2.4h0a2.4,2.4,0,0,1-2.4-2.4h0a2.39,2.39,0,0,1,2.4-2.39h0a2.39,2.39,0,0,1,2.4,2.39h0Z"/>
  </g>
  <g>
    <path class="cls-12" d="M219.19,159.4a1.82,1.82,0,0,1-1.8,1.85H130.52a1.82,1.82,0,0,1-1.8-1.85V87.71a1.82,1.82,0,0,1,1.8-1.85h86.86a1.82,1.82,0,0,1,1.8,1.85V159.4Z"/>
    <path class="cls-13" d="M219.19,87.66a1.8,1.8,0,0,0-1.8-1.8H130.52a1.8,1.8,0,0,0-1.8,1.8v6.66h90.46V87.66Z"/>
    <rect class="cls-14" x="140.92" y="101.96" width="56.04" height="2.1"/>
    <rect class="cls-15" x="140.92" y="106.3" width="48.21" height="2.1"/>
    <rect class="cls-16" x="140.92" y="115.29" width="22.02" height="2.1"/>
    <rect class="cls-17" x="143.83" y="119.78" width="15.47" height="2.1"/>
    <rect class="cls-18" x="146.42" y="124.38" width="31.98" height="2.1"/>
    <rect class="cls-16" x="149.16" y="133.25" width="31.98" height="2.1"/>
    <rect class="cls-18" x="146.42" y="137.86" width="22.43" height="2.1"/>
    <rect class="cls-16" x="146.42" y="142.35" width="22.43" height="2.1"/>
    <rect class="cls-16" x="149.7" y="146.73" width="14.92" height="2.1"/>
    <rect class="cls-17" x="140.97" y="151.26" width="12.46" height="2.1"/>
    <rect class="cls-16" x="181.09" y="151.26" width="8.92" height="2.1"/>
    <rect class="cls-18" x="154.88" y="151.26" width="23.79" height="2.1"/>
    <rect class="cls-18" x="166.08" y="146.73" width="38.25" height="2.1"/>
    <rect class="cls-15" x="170.31" y="142.35" width="14.37" height="2.1"/>
    <rect class="cls-16" x="171.4" y="137.86" width="22.42" height="2.1"/>
    <rect class="cls-16" x="180.81" y="124.38" width="13.69" height="2.1"/>
    <rect class="cls-16" x="161.16" y="119.78" width="14.01" height="2.1"/>
    <rect class="cls-16" x="178.4" y="119.78" width="12.74" height="2.1"/>
    <rect class="cls-16" x="165.12" y="115.29" width="22.38" height="2.1"/>
    <rect class="cls-16" x="149.11" y="128.87" width="22.02" height="2.1"/>
    <rect class="cls-18" x="173.31" y="128.87" width="22.38" height="2.1"/>
    <rect class="cls-17" x="140.92" y="110.64" width="43.3" height="2.1"/>
    <path class="cls-19" d="M137.93,90.26a2.68,2.68,0,0,1-2.68,2.68h0a2.68,2.68,0,0,1-2.68-2.68h0a2.68,2.68,0,0,1,2.68-2.68h0a2.68,2.68,0,0,1,2.68,2.68h0Z"/>
    <path class="cls-19" d="M145.8,90.26a2.68,2.68,0,0,1-2.68,2.68h0a2.68,2.68,0,0,1-2.68-2.68h0a2.68,2.68,0,0,1,2.68-2.68h0a2.68,2.68,0,0,1,2.68,2.68h0Z"/>
    <path class="cls-19" d="M153.66,90.26A2.68,2.68,0,0,1,151,92.95h0a2.68,2.68,0,0,1-2.68-2.68h0A2.68,2.68,0,0,1,151,87.58h0a2.68,2.68,0,0,1,2.68,2.68h0Z"/>
  </g>
  <path class="cls-21" d="M479.64,57.11H393.7a1.78,1.78,0,0,0-1.78,1.78v71a1.8,1.8,0,0,0,1.78,1.83h85.94a1.8,1.8,0,0,0,1.78-1.83v-71A1.78,1.78,0,0,0,479.64,57.11Z"/>
  <g>
    <path class="cls-22" d="M479.35,127.8a1.8,1.8,0,0,1-1.78,1.83H391.64a1.8,1.8,0,0,1-1.78-1.83V56.88A1.8,1.8,0,0,1,391.64,55h85.94a1.8,1.8,0,0,1,1.78,1.83V127.8Z"/>
    <path class="cls-13" d="M479.35,56.83A1.78,1.78,0,0,0,477.57,55H391.64a1.78,1.78,0,0,0-1.78,1.78v6.59h89.49V56.83Z"/>
    <rect class="cls-14" x="401.92" y="70.97" width="55.44" height="2.07"/>
    <rect class="cls-15" x="401.92" y="75.27" width="47.7" height="2.07"/>
    <rect class="cls-16" x="401.92" y="84.15" width="21.78" height="2.07"/>
    <rect class="cls-17" x="404.8" y="88.6" width="15.3" height="2.07"/>
    <rect class="cls-18" x="407.37" y="93.15" width="31.63" height="2.07"/>
    <rect class="cls-16" x="410.07" y="101.93" width="31.63" height="2.07"/>
    <rect class="cls-18" x="407.37" y="106.48" width="22.19" height="2.07"/>
    <rect class="cls-16" x="407.37" y="110.93" width="22.19" height="2.07"/>
    <rect class="cls-16" x="410.61" y="115.26" width="14.76" height="2.07"/>
    <rect class="cls-17" x="401.97" y="119.74" width="12.33" height="2.07"/>
    <rect class="cls-16" x="441.66" y="119.74" width="8.82" height="2.07"/>
    <rect class="cls-18" x="415.74" y="119.74" width="23.54" height="2.07"/>
    <rect class="cls-18" x="426.81" y="115.26" width="37.84" height="2.07"/>
    <rect class="cls-15" x="431" y="110.93" width="14.22" height="2.07"/>
    <rect class="cls-16" x="432.07" y="106.48" width="22.18" height="2.07"/>
    <rect class="cls-16" x="441.39" y="93.15" width="13.55" height="2.07"/>
    <rect class="cls-16" x="421.95" y="88.6" width="13.86" height="2.07"/>
    <rect class="cls-16" x="439" y="88.6" width="12.6" height="2.07"/>
    <rect class="cls-16" x="425.86" y="84.15" width="22.14" height="2.07"/>
    <rect class="cls-16" x="410.02" y="97.6" width="21.78" height="2.07"/>
    <rect class="cls-18" x="433.96" y="97.6" width="22.14" height="2.07"/>
    <rect class="cls-17" x="401.92" y="79.56" width="42.84" height="2.08"/>
    <path class="cls-19" d="M399,59.4a2.66,2.66,0,0,1-2.66,2.66h0a2.65,2.65,0,0,1-2.65-2.66h0a2.65,2.65,0,0,1,2.65-2.65h0A2.65,2.65,0,0,1,399,59.4h0Z"/>
    <path class="cls-19" d="M406.75,59.4a2.66,2.66,0,0,1-2.66,2.66h0a2.65,2.65,0,0,1-2.65-2.66h0a2.65,2.65,0,0,1,2.65-2.65h0a2.65,2.65,0,0,1,2.66,2.65h0Z"/>
    <path class="cls-19" d="M414.53,59.4a2.66,2.66,0,0,1-2.65,2.66h0a2.65,2.65,0,0,1-2.65-2.66h0a2.65,2.65,0,0,1,2.65-2.65h0a2.65,2.65,0,0,1,2.65,2.65h0Z"/>
  </g>
  <path class="cls-21" d="M368.57,15H291.12a1.6,1.6,0,0,0-1.6,1.6v64a1.62,1.62,0,0,0,1.6,1.65h77.45a1.63,1.63,0,0,0,1.6-1.65v-64A1.6,1.6,0,0,0,368.57,15Z"/>
  <g>
    <path class="cls-22" d="M368.11,78.5a1.63,1.63,0,0,1-1.6,1.65H289.05a1.62,1.62,0,0,1-1.6-1.65V14.58a1.62,1.62,0,0,1,1.6-1.65h77.45a1.62,1.62,0,0,1,1.6,1.65V78.5Z"/>
    <path class="cls-13" d="M368.11,14.53a1.6,1.6,0,0,0-1.6-1.6H289.05a1.6,1.6,0,0,0-1.6,1.6v5.94h80.65V14.53Z"/>
    <rect class="cls-14" x="298.33" y="27.28" width="49.96" height="1.87"/>
    <rect class="cls-15" x="298.33" y="31.15" width="42.99" height="1.87"/>
    <rect class="cls-16" x="298.33" y="39.16" width="19.63" height="1.87"/>
    <rect class="cls-17" x="300.92" y="43.17" width="13.79" height="1.87"/>
    <rect class="cls-18" x="303.23" y="47.27" width="28.51" height="1.87"/>
    <rect class="cls-16" x="305.67" y="55.18" width="28.51" height="1.87"/>
    <rect class="cls-18" x="303.23" y="59.29" width="19.99" height="1.87"/>
    <rect class="cls-16" x="303.23" y="63.29" width="19.99" height="1.87"/>
    <rect class="cls-16" x="306.15" y="67.2" width="13.3" height="1.87"/>
    <rect class="cls-17" x="298.37" y="71.23" width="11.11" height="1.87"/>
    <rect class="cls-16" x="334.14" y="71.23" width="7.95" height="1.87"/>
    <rect class="cls-18" x="310.78" y="71.23" width="21.21" height="1.87"/>
    <rect class="cls-18" x="320.75" y="67.2" width="34.11" height="1.87"/>
    <rect class="cls-15" x="324.53" y="63.29" width="12.81" height="1.87"/>
    <rect class="cls-16" x="325.5" y="59.29" width="19.99" height="1.87"/>
    <rect class="cls-16" x="333.89" y="47.27" width="12.21" height="1.87"/>
    <rect class="cls-16" x="316.37" y="43.17" width="12.49" height="1.87"/>
    <rect class="cls-16" x="331.74" y="43.17" width="11.36" height="1.87"/>
    <rect class="cls-16" x="319.9" y="39.16" width="19.95" height="1.87"/>
    <rect class="cls-16" x="305.63" y="51.28" width="19.63" height="1.87"/>
    <rect class="cls-18" x="327.2" y="51.28" width="19.95" height="1.87"/>
    <rect class="cls-17" x="298.33" y="35.02" width="38.61" height="1.87"/>
    <path class="cls-19" d="M295.66,16.85a2.39,2.39,0,0,1-2.39,2.39h0a2.39,2.39,0,0,1-2.39-2.39h0a2.39,2.39,0,0,1,2.39-2.39h0a2.39,2.39,0,0,1,2.39,2.39h0Z"/>
    <path class="cls-19" d="M302.67,16.85a2.39,2.39,0,0,1-2.39,2.39h0a2.39,2.39,0,0,1-2.39-2.39h0a2.39,2.39,0,0,1,2.39-2.39h0a2.39,2.39,0,0,1,2.39,2.39h0Z"/>
    <path class="cls-19" d="M309.68,16.85a2.39,2.39,0,0,1-2.39,2.39h0a2.39,2.39,0,0,1-2.39-2.39h0a2.39,2.39,0,0,1,2.39-2.39h0a2.39,2.39,0,0,1,2.39,2.39h0Z"/>
  </g>
  <path class="cls-21" d="M272.85,34H191.75a1.68,1.68,0,0,0-1.68,1.68v67a1.7,1.7,0,0,0,1.68,1.72h81.09a1.7,1.7,0,0,0,1.68-1.72v-67A1.68,1.68,0,0,0,272.85,34Z"/>
  <g>
    <path class="cls-22" d="M276.79,100.37a1.7,1.7,0,0,1-1.68,1.72H194a1.7,1.7,0,0,1-1.68-1.72V33.44A1.7,1.7,0,0,1,194,31.72h81.09a1.7,1.7,0,0,1,1.68,1.72v66.93Z"/>
    <path class="cls-13" d="M276.79,33.4a1.68,1.68,0,0,0-1.68-1.68H194a1.68,1.68,0,0,0-1.68,1.68v6.22h84.45V33.4Z"/>
    <rect class="cls-14" x="203.73" y="46.74" width="52.32" height="1.96"/>
    <rect class="cls-15" x="203.73" y="50.8" width="45.01" height="1.96"/>
    <rect class="cls-16" x="203.73" y="59.18" width="20.55" height="1.96"/>
    <rect class="cls-17" x="206.45" y="63.38" width="14.44" height="1.96"/>
    <rect class="cls-18" x="208.87" y="67.68" width="29.85" height="1.96"/>
    <rect class="cls-16" x="211.42" y="75.96" width="29.85" height="1.96"/>
    <rect class="cls-18" x="208.87" y="80.25" width="20.93" height="1.96"/>
    <rect class="cls-16" x="208.87" y="84.45" width="20.93" height="1.96"/>
    <rect class="cls-16" x="211.93" y="88.54" width="13.93" height="1.96"/>
    <rect class="cls-17" x="203.77" y="92.76" width="11.63" height="1.96"/>
    <rect class="cls-16" x="241.23" y="92.76" width="8.32" height="1.96"/>
    <rect class="cls-18" x="216.77" y="92.76" width="22.21" height="1.96"/>
    <rect class="cls-18" x="227.21" y="88.54" width="35.71" height="1.96"/>
    <rect class="cls-15" x="231.16" y="84.45" width="13.42" height="1.96"/>
    <rect class="cls-16" x="232.18" y="80.25" width="20.93" height="1.96"/>
    <rect class="cls-16" x="240.97" y="67.68" width="12.78" height="1.96"/>
    <rect class="cls-16" x="222.63" y="63.38" width="13.08" height="1.96"/>
    <rect class="cls-16" x="238.72" y="63.38" width="11.89" height="1.96"/>
    <rect class="cls-16" x="226.32" y="59.18" width="20.89" height="1.96"/>
    <rect class="cls-16" x="211.37" y="71.87" width="20.55" height="1.96"/>
    <rect class="cls-18" x="233.96" y="71.87" width="20.89" height="1.96"/>
    <rect class="cls-17" x="203.73" y="54.85" width="40.42" height="1.96"/>
    <path class="cls-19" d="M200.94,35.82a2.5,2.5,0,0,1-2.5,2.51h0a2.5,2.5,0,0,1-2.51-2.51h0a2.5,2.5,0,0,1,2.51-2.5h0a2.5,2.5,0,0,1,2.5,2.5h0Z"/>
    <path class="cls-19" d="M208.28,35.82a2.51,2.51,0,0,1-2.51,2.51h0a2.51,2.51,0,0,1-2.51-2.51h0a2.5,2.5,0,0,1,2.51-2.5h0a2.5,2.5,0,0,1,2.51,2.5h0Z"/>
    <path class="cls-19" d="M215.62,35.82a2.5,2.5,0,0,1-2.51,2.51h0a2.51,2.51,0,0,1-2.51-2.51h0a2.5,2.5,0,0,1,2.51-2.5h0a2.5,2.5,0,0,1,2.51,2.5h0Z"/>
  </g>
  <path class="cls-21" d="M250,128.56H191.29a1.21,1.21,0,0,0-1.21,1.21V178.3a1.23,1.23,0,0,0,1.21,1.25H250a1.23,1.23,0,0,0,1.22-1.25V129.78A1.22,1.22,0,0,0,250,128.56Z"/>
  <g>
    <path class="cls-22" d="M252.91,180a1.23,1.23,0,0,1-1.22,1.25H192.94a1.23,1.23,0,0,1-1.22-1.25V131.46a1.23,1.23,0,0,1,1.22-1.25H251.7a1.23,1.23,0,0,1,1.22,1.25V180Z"/>
    <path class="cls-13" d="M252.91,131.43a1.22,1.22,0,0,0-1.22-1.21H192.94a1.22,1.22,0,0,0-1.22,1.21v4.51h61.18v-4.51Z"/>
    <rect class="cls-14" x="199.98" y="141.1" width="37.9" height="1.42"/>
    <rect class="cls-15" x="199.98" y="144.04" width="32.61" height="1.42"/>
    <rect class="cls-16" x="199.98" y="150.11" width="14.89" height="1.42"/>
    <rect class="cls-17" x="201.94" y="153.15" width="10.46" height="1.42"/>
    <rect class="cls-18" x="203.7" y="156.26" width="21.63" height="1.42"/>
    <rect class="cls-16" x="205.54" y="162.26" width="21.63" height="1.42"/>
    <rect class="cls-18" x="203.7" y="165.38" width="15.17" height="1.42"/>
    <rect class="cls-16" x="203.7" y="168.42" width="15.17" height="1.42"/>
    <rect class="cls-16" x="205.91" y="171.38" width="10.09" height="1.42"/>
    <rect class="cls-17" x="200.01" y="174.44" width="8.43" height="1.42"/>
    <rect class="cls-16" x="227.14" y="174.44" width="6.03" height="1.42"/>
    <rect class="cls-18" x="209.42" y="174.44" width="16.09" height="1.42"/>
    <rect class="cls-18" x="216.99" y="171.38" width="25.87" height="1.42"/>
    <rect class="cls-15" x="219.85" y="168.42" width="9.72" height="1.42"/>
    <rect class="cls-16" x="220.59" y="165.38" width="15.17" height="1.42"/>
    <rect class="cls-16" x="226.96" y="156.26" width="9.26" height="1.42"/>
    <rect class="cls-16" x="213.67" y="153.15" width="9.48" height="1.42"/>
    <rect class="cls-16" x="225.33" y="153.15" width="8.61" height="1.42"/>
    <rect class="cls-16" x="216.34" y="150.11" width="15.14" height="1.42"/>
    <rect class="cls-16" x="205.51" y="159.3" width="14.89" height="1.42"/>
    <rect class="cls-18" x="221.88" y="159.3" width="15.14" height="1.42"/>
    <rect class="cls-17" x="199.98" y="146.97" width="29.29" height="1.42"/>
    <path class="cls-19" d="M198,133.19a1.81,1.81,0,0,1-1.81,1.81h0a1.81,1.81,0,0,1-1.82-1.81h0a1.81,1.81,0,0,1,1.82-1.81h0a1.81,1.81,0,0,1,1.81,1.81h0Z"/>
    <path class="cls-19" d="M203.27,133.19a1.82,1.82,0,0,1-1.82,1.81h0a1.81,1.81,0,0,1-1.81-1.81h0a1.81,1.81,0,0,1,1.81-1.81h0a1.82,1.82,0,0,1,1.82,1.81h0Z"/>
    <path class="cls-19" d="M208.59,133.19a1.81,1.81,0,0,1-1.81,1.81h0a1.81,1.81,0,0,1-1.82-1.81h0a1.81,1.81,0,0,1,1.82-1.81h0a1.81,1.81,0,0,1,1.81,1.81h0Z"/>
  </g>
  <g>
    <path class="cls-22" d="M360.41,164.05a1.23,1.23,0,0,1-1.22,1.25H300.44a1.23,1.23,0,0,1-1.22-1.25V115.56a1.23,1.23,0,0,1,1.22-1.25h58.75a1.23,1.23,0,0,1,1.22,1.25v48.49Z"/>
    <path class="cls-13" d="M360.41,115.53a1.22,1.22,0,0,0-1.22-1.22H300.44a1.22,1.22,0,0,0-1.22,1.22V120h61.19v-4.51Z"/>
    <rect class="cls-14" x="307.47" y="125.2" width="37.9" height="1.42"/>
    <rect class="cls-15" x="307.47" y="128.14" width="32.61" height="1.42"/>
    <rect class="cls-16" x="307.47" y="134.21" width="14.89" height="1.42"/>
    <rect class="cls-17" x="309.44" y="137.25" width="10.46" height="1.42"/>
    <rect class="cls-18" x="311.19" y="140.37" width="21.63" height="1.42"/>
    <rect class="cls-16" x="313.04" y="146.37" width="21.63" height="1.42"/>
    <rect class="cls-18" x="311.19" y="149.48" width="15.17" height="1.42"/>
    <rect class="cls-16" x="311.19" y="152.52" width="15.17" height="1.42"/>
    <rect class="cls-16" x="313.41" y="155.48" width="10.09" height="1.42"/>
    <rect class="cls-17" x="307.5" y="158.54" width="8.43" height="1.42"/>
    <rect class="cls-16" x="334.64" y="158.54" width="6.03" height="1.42"/>
    <rect class="cls-18" x="316.91" y="158.54" width="16.09" height="1.42"/>
    <rect class="cls-18" x="324.48" y="155.48" width="25.87" height="1.42"/>
    <rect class="cls-15" x="327.34" y="152.52" width="9.72" height="1.42"/>
    <rect class="cls-16" x="328.08" y="149.48" width="15.17" height="1.42"/>
    <rect class="cls-16" x="334.45" y="140.37" width="9.26" height="1.42"/>
    <rect class="cls-16" x="321.16" y="137.25" width="9.48" height="1.42"/>
    <rect class="cls-16" x="332.82" y="137.25" width="8.61" height="1.42"/>
    <rect class="cls-16" x="323.84" y="134.21" width="15.14" height="1.42"/>
    <rect class="cls-16" x="313.01" y="143.4" width="14.89" height="1.42"/>
    <rect class="cls-18" x="329.38" y="143.4" width="15.14" height="1.42"/>
    <rect class="cls-17" x="307.47" y="131.07" width="29.29" height="1.42"/>
    <path class="cls-19" d="M305.45,117.29a1.81,1.81,0,0,1-1.81,1.82h0a1.81,1.81,0,0,1-1.82-1.82h0a1.81,1.81,0,0,1,1.82-1.81h0a1.81,1.81,0,0,1,1.81,1.81h0Z"/>
    <path class="cls-19" d="M310.77,117.29A1.82,1.82,0,0,1,309,119.1h0a1.82,1.82,0,0,1-1.81-1.82h0a1.82,1.82,0,0,1,1.81-1.81h0a1.82,1.82,0,0,1,1.82,1.81h0Z"/>
    <path class="cls-19" d="M316.09,117.29a1.81,1.81,0,0,1-1.81,1.82h0a1.82,1.82,0,0,1-1.82-1.82h0a1.81,1.81,0,0,1,1.82-1.81h0a1.81,1.81,0,0,1,1.81,1.81h0Z"/>
  </g>
  <g>
    <path class="cls-3" d="M332,175.58l-1.54-10.22c0-2.63,1-4.33-2-4.33s-1.72,2.14-1.72,4.77L325,175.58s0,0.08,0,.12h7v-0.12Z"/>
    <rect class="cls-3" x="315.89" y="273.74" width="3.92" height="6.34"/>
    <g>
      <path class="cls-23" d="M314.85,278.95a0.55,0.55,0,0,1,.15-0.45,2.9,2.9,0,0,1,.85-1.83s0.07,0.17.37,0.07,0.64-.2,1-0.36a1.39,1.39,0,0,1,1.47,0,4.09,4.09,0,0,0,.65.39,1.69,1.69,0,0,0,.52-0.17,1.88,1.88,0,0,1,.27.65c0.06,0.35.15,0.7,0.17,0.86a6.84,6.84,0,0,1,.24,1c0,0.3,0,.53,0,0.57s0,0.06,0,.2,0,0.27,0,.35a0.35,0.35,0,0,1-.2.38,12.65,12.65,0,0,1-2.32.29,4.1,4.1,0,0,1-2.32-.54,1,1,0,0,1-.28-0.47,1,1,0,0,0-.34-0.49A0.49,0.49,0,0,1,314.85,278.95Z"/>
      <path class="cls-24" d="M314.89,278.92a1.31,1.31,0,0,0-.17.42,1.16,1.16,0,0,0,.13.84,0.55,0.55,0,0,1,.33.53c0,0.28-.09,1.47.48,1.67a7.22,7.22,0,0,0,4.66.08,0.31,0.31,0,0,0,.19-0.32c0-.27,0-1.48,0-1.48a0.14,0.14,0,0,0-.12-0.1c-0.1,0-2.1.14-2.1,0.14a11.82,11.82,0,0,1-2.19-.22,1.51,1.51,0,0,1-.62-0.67,0.84,0.84,0,0,0-.35-0.52A0.45,0.45,0,0,1,314.89,278.92Z"/>
    </g>
    <rect class="cls-3" x="338.46" y="273.74" width="3.92" height="6.34"/>
    <g>
      <path class="cls-23" d="M337.41,278.95a0.55,0.55,0,0,1,.15-0.45,2.91,2.91,0,0,1,.85-1.83s0.07,0.17.37,0.07,0.64-.2,1-0.36a1.39,1.39,0,0,1,1.47,0,4.11,4.11,0,0,0,.65.39,1.69,1.69,0,0,0,.52-0.17,1.89,1.89,0,0,1,.27.65c0.06,0.35.15,0.7,0.17,0.86a6.85,6.85,0,0,1,.24,1c0,0.3,0,.53,0,0.57s0,0.06,0,.2,0,0.27,0,.35a0.35,0.35,0,0,1-.2.38,12.63,12.63,0,0,1-2.32.29,4.1,4.1,0,0,1-2.32-.54,1,1,0,0,1-.28-0.47,1,1,0,0,0-.34-0.49A0.49,0.49,0,0,1,337.41,278.95Z"/>
      <path class="cls-24" d="M337.46,278.92a1.3,1.3,0,0,0-.17.42,1.16,1.16,0,0,0,.13.84,0.55,0.55,0,0,1,.32.53c0,0.28-.09,1.47.48,1.67a7.22,7.22,0,0,0,4.67.08,0.31,0.31,0,0,0,.19-0.32c0-.27,0-1.48,0-1.48a0.14,0.14,0,0,0-.12-0.1c-0.1,0-2.09.14-2.09,0.14a11.84,11.84,0,0,1-2.19-.22,1.5,1.5,0,0,1-.62-0.67,0.83,0.83,0,0,0-.35-0.52A0.45,0.45,0,0,1,337.46,278.92Z"/>
    </g>
    <path class="cls-5" d="M322.79,237l6.32-.1h6.53c8.36,0,7.51-9.07,8.11-17.17l-28.64,0C315.75,227.81,314.43,237,322.79,237Z"/>
    <path class="cls-3" d="M339.09,149.61a1.18,1.18,0,0,0-1,.56v-4.64c0-5.26-3.05-9.46-9.25-9.58H328c-6.2.12-9.06,4.31-9.06,9.58v4.64a1.17,1.17,0,0,0-1-.56c-0.72.1-1.08,1.35-.81,2.78s1.07,2.52,1.79,2.43a0.36,0.36,0,0,0,.14-0.05c1.61,5.38-.51,11,5.83,11.56a9.85,9.85,0,0,0,3.49.62h0.07a9.84,9.84,0,0,0,3.49-.62c6.22,0,4.41-6.18,6-11.56a0.34,0.34,0,0,0,.14.05c0.72,0.09,1.53-1,1.79-2.43S339.81,149.71,339.09,149.61Z"/>
    <path class="cls-25" d="M332.72,172.66l-0.18-.49a1,1,0,0,0-1.09-.75h-5.9a1,1,0,0,0-1.09.75l-0.18.49c-0.28.54-.31,0.81,0.35,0.81h7.73C333,173.48,333,173.2,332.72,172.66Z"/>
    <path class="cls-26" d="M336.85,138.51c0.74-3.61-3.4-3-6.66-3h-0.13c-2.53.31-9.52,0.92-11.94-1.41a13.61,13.61,0,0,0,1.52,5.24c-0.85,1.17-.68,10.84-0.68,10.84s0.4,14.23,6.46,14.09c0,0,3.19-1.71,5.58-.09,0,0,7,.9,7.14-14,0,0,.2-7.1.2-9.08A2.66,2.66,0,0,0,336.85,138.51Z"/>
    <g>
      <g>
        <path class="cls-27" d="M344.31,195.93a0.33,0.33,0,0,1,.45.1h0a0.33,0.33,0,0,1-.1.46l-0.85.61a0.33,0.33,0,0,1-.45-0.1h0a0.33,0.33,0,0,1,.1-0.45Z"/>
        <path class="cls-27" d="M343.38,196.65a0.33,0.33,0,0,1,.46-0.07h0a0.33,0.33,0,0,1,.07.46l-0.56.88a0.33,0.33,0,0,1-.46.07h0a0.33,0.33,0,0,1-.07-0.46Z"/>
      </g>
      <g>
        <path class="cls-27" d="M345.41,195.42a0.33,0.33,0,0,1,.46.09h0a0.33,0.33,0,0,1-.09.46l-0.82.65a0.33,0.33,0,0,1-.46-0.09h0a0.33,0.33,0,0,1,.09-0.46Z"/>
        <path class="cls-27" d="M344.51,196.19a0.33,0.33,0,0,1,.46-0.09h0a0.33,0.33,0,0,1,.09.46l-0.52.91a0.33,0.33,0,0,1-.46.09h0a0.33,0.33,0,0,1-.09-0.46Z"/>
      </g>
      <rect class="cls-3" x="347.3" y="197.14" width="2.26" height="5.72" transform="translate(-51.36 239.61) rotate(-35.51)"/>
      <path class="cls-3" d="M346,198a0.33,0.33,0,0,1,.26.39h0a0.33,0.33,0,0,1-.38.26l-1.54-.29a0.33,0.33,0,0,1-.26-0.39h0a0.33,0.33,0,0,1,.38-0.26Z"/>
      <path class="cls-3" d="M344.51,197.75a0.33,0.33,0,0,1,.08.46h0a0.33,0.33,0,0,1-.46.08l-0.9-.54a0.33,0.33,0,0,1-.08-0.46h0a0.33,0.33,0,0,1,.46-0.09Z"/>
      <g>
        <path class="cls-3" d="M343.71,196.29a0.33,0.33,0,0,1,.4.24h0a0.33,0.33,0,0,1-.24.4l-1,.32a0.33,0.33,0,0,1-.4-0.24h0a0.33,0.33,0,0,1,.24-0.4Z"/>
        <path class="cls-3" d="M342.6,196.69a0.33,0.33,0,0,1,.46.07h0a0.33,0.33,0,0,1-.07.46l-0.81.66a0.33,0.33,0,0,1-.46-0.08h0a0.33,0.33,0,0,1,.07-0.46Z"/>
      </g>
      <path class="cls-3" d="M347.9,197.2a0.2,0.2,0,0,1,0,.28l-1.77,1.15a0.2,0.2,0,0,1-.26-0.1l-2.29-1.93a0.2,0.2,0,0,1,0-.28l2.17-1.06a0.2,0.2,0,0,1,.26.1Z"/>
    </g>
    <g>
      <g>
        <path class="cls-27" d="M312.85,195.89a0.33,0.33,0,0,0-.46.1h0a0.33,0.33,0,0,0,.11.46l0.85,0.61a0.33,0.33,0,0,0,.45-0.1h0a0.33,0.33,0,0,0-.1-0.46Z"/>
        <path class="cls-27" d="M313.78,196.62a0.33,0.33,0,0,0-.46-0.07h0a0.33,0.33,0,0,0-.07.46l0.56,0.88a0.33,0.33,0,0,0,.46.07h0a0.33,0.33,0,0,0,.07-0.46Z"/>
      </g>
      <g>
        <path class="cls-27" d="M311.75,195.39a0.33,0.33,0,0,0-.46.09h0a0.33,0.33,0,0,0,.09.46l0.82,0.65a0.33,0.33,0,0,0,.46-0.09h0a0.33,0.33,0,0,0-.08-0.46Z"/>
        <path class="cls-27" d="M312.64,196.15a0.33,0.33,0,0,0-.46-0.09h0a0.33,0.33,0,0,0-.09.46l0.52,0.91a0.33,0.33,0,0,0,.46.09h0a0.33,0.33,0,0,0,.09-0.46Z"/>
      </g>
      <polygon class="cls-3" points="306.14 201.64 307.99 202.95 311.31 198.29 309.29 197.24 306.14 201.64"/>
      <path class="cls-3" d="M311.15,198a0.33,0.33,0,0,0-.26.39h0a0.33,0.33,0,0,0,.39.26l1.54-.29a0.33,0.33,0,0,0,.26-0.39h0a0.33,0.33,0,0,0-.38-0.26Z"/>
      <path class="cls-3" d="M312.65,197.71a0.33,0.33,0,0,0-.09.46h0a0.33,0.33,0,0,0,.46.08l0.9-.54a0.33,0.33,0,0,0,.08-0.46h0a0.33,0.33,0,0,0-.46-0.08Z"/>
      <g>
        <path class="cls-3" d="M313.45,196.25a0.33,0.33,0,0,0-.4.24h0a0.33,0.33,0,0,0,.24.4l1,0.32a0.33,0.33,0,0,0,.4-0.24h0a0.33,0.33,0,0,0-.24-0.4Z"/>
        <path class="cls-3" d="M314.56,196.65a0.33,0.33,0,0,0-.46.08h0a0.33,0.33,0,0,0,.08.46l0.81,0.67a0.33,0.33,0,0,0,.46-0.08h0a0.33,0.33,0,0,0-.08-0.46Z"/>
      </g>
      <path class="cls-3" d="M309.29,197.24a0.27,0.27,0,0,0,.06.32l1.71,1a0.2,0.2,0,0,0,.26-0.1l2.29-1.93a0.2,0.2,0,0,0,0-.28l-2.17-1.06a0.2,0.2,0,0,0-.26.1Z"/>
    </g>
    <path class="cls-25" d="M350,197.89c0.61,1.28,1.13,2.41,1.6,3.46-0.94-1.23-1.33-1.68-2.1-2.75L349,198l-0.18.06-2.38,1.26-0.16.11,0.11,0.16c1,1.44,2.14,3.14,3.37,4.83,0.7,1,1.26,1.69,1.83,2.38,0.29,0.36.64,0.77,1,1.19h0l0.28,0.28a4.31,4.31,0,0,0,1.48,1.07h0l0.15,0a1.81,1.81,0,0,0,.64.1h0.07a2,2,0,0,0,1.41-.65,2,2,0,0,0,.57-1.3,0.92,0.92,0,0,1,0-.15v0a4.32,4.32,0,0,0-.08-1l0-.17a16,16,0,0,0-.42-1.61c-0.29-.94-0.62-1.83-1-2.87-0.62-1.61-1.32-3.3-2.25-5.46-3.38-7.73-7.45-13.33-10.47-19.46l-0.09-.18-0.18.09-3.82,2-0.18.09,0.1,0.18C341.92,184.6,346.38,190.31,350,197.89Zm5.27,11.45h0Zm-0.65-.11,0.08,0Zm0.48,0.1h0Zm-0.11,0h0Zm-0.09,0h0Zm-0.09,0h0Zm-0.09,0,0.07,0Z"/>
    <path class="cls-25" d="M318.45,179.42l0.09-.18-0.18-.09-3.82-2-0.18-.09-0.09.18c-3,6.14-7,11.27-10.41,19-0.94,2.16-1.63,3.85-2.25,5.46-0.4,1-.72,1.92-1,2.87a15.63,15.63,0,0,0-.42,1.61l0,0.17a4.31,4.31,0,0,0-.07,1v0a0.93,0.93,0,0,1,0,.15,2,2,0,0,0,.57,1.3,2,2,0,0,0,1.41.65h0.07a1.81,1.81,0,0,0,.64-0.1l0.15,0h0a4.34,4.34,0,0,0,1.48-1.07l0.28-.28h0c0.4-.42.75-0.84,1-1.19,0.56-.69,1.13-1.43,1.83-2.38,1.23-1.68,2.24-3.21,3.21-4.66l0.11-.16-0.2-.09-2.28-1.17-0.26-.15-0.35.55c-0.78,1.07-1.08,1.35-2,2.58,0.47-1.05,1-2.18,1.6-3.46C311,190.31,315.44,185.06,318.45,179.42Zm-16.35,29.91h0Zm0.63-.08,0.08,0Zm-0.46.08h0Zm0.12,0h0Zm0.1,0h0Zm0.09,0h0Zm0.08,0,0.07,0Z"/>
    <path class="cls-25" d="M346.5,221.74L344.34,188c-0.38-10.37.93-14.61-11.76-14.52h-8.25c-11.46.56-11.71,5.12-11.71,14.65l-0.06,32.36,2.81,4.58,28.15,0Z"/>
    <path class="cls-5" d="M332,233.15a3.88,3.88,0,0,0,3.88,3.88h4.58a3.88,3.88,0,0,0,3.88-3.88h0a3.88,3.88,0,0,0-3.88-3.88h-4.58a3.88,3.88,0,0,0-3.88,3.88h0Z"/>
    <path class="cls-5" d="M326.06,233.15a3.88,3.88,0,0,1-3.88,3.88H317.6a3.88,3.88,0,0,1-3.88-3.88h0a3.88,3.88,0,0,1,3.88-3.88h4.58a3.88,3.88,0,0,1,3.88,3.88h0Z"/>
    <polygon class="cls-28" points="343.37 226.64 315.43 226.64 315.29 224.95 343.57 224.95 343.37 226.64"/>
    <polygon class="cls-5" points="320.58 274.6 314.88 274.6 313.72 233.17 321.28 233.17 320.58 274.6"/>
    <polygon class="cls-5" points="337.51 274.4 343.21 274.4 344.38 233.17 336.81 233.17 337.51 274.4"/>
  </g>
  <g>
    <rect class="cls-11" x="327.08" y="220.29" width="3.55" height="53.46"/>
    <rect class="cls-29" x="326.05" y="259.85" width="5.51" height="13.91"/>
    <polygon class="cls-29" points="328.69 272.48 308.3 278.51 308.3 281.3 328.69 277.01 349.71 281.96 349.71 278.95 328.69 272.48"/>
    <ellipse class="cls-29" cx="309.54" cy="283.66" rx="2.45" ry="2.32"/>
    <ellipse class="cls-29" cx="329" cy="285.39" rx="2.45" ry="2.32"/>
    <ellipse class="cls-29" cx="348.08" cy="284.09" rx="2.45" ry="2.32"/>
    <polygon class="cls-29" points="330.31 282.41 327.52 282.41 327.04 273.33 330.63 273.33 330.31 282.41"/>
    <rect class="cls-29" x="308.3" y="280.4" width="0.93" height="1.33"/>
    <rect class="cls-29" x="348.78" y="280.4" width="0.93" height="2.17"/>
    <rect class="cls-29" x="328.47" y="280.4" width="0.93" height="3.43"/>
    <rect class="cls-29" x="326.75" y="220.29" width="4.04" height="18.68"/>
    <path class="cls-29" d="M347.66,239.48a2.9,2.9,0,0,1-3.06,2.7H312.73a2.9,2.9,0,0,1-3.06-2.7h0a2.9,2.9,0,0,1,3.06-2.7H344.6a2.9,2.9,0,0,1,3.06,2.7h0Z"/>
    <path class="cls-29" d="M347.57,219.27a3.76,3.76,0,0,1-3.92,3.56H313.9a3.76,3.76,0,0,1-3.92-3.56V202.35a3.76,3.76,0,0,1,3.92-3.56h29.75a3.75,3.75,0,0,1,3.92,3.56v16.92Z"/>
    <path class="cls-11" d="M332.77,210a3.42,3.42,0,0,0-3.62-3.19H328.4a3.42,3.42,0,0,0-3.62,3.19v17.52h8V210Z"/>
  </g>
  <rect class="cls-30" x="278.71" y="109.54" width="5.37" height="57.81"/>
  <rect class="cls-30" x="369.14" y="109.54" width="10.94" height="8.88"/>
  <rect class="cls-30" x="369.14" y="119.75" width="10.94" height="8.88"/>
  <rect class="cls-30" x="369.14" y="130.59" width="10.94" height="8.88"/>
  <rect class="cls-30" x="369.14" y="141.74" width="10.94" height="8.88"/>
  <g id="Layer_2" data-name="Layer 2" class="cls-31">
    <text/>  </g>
</svg>
